<?xml version="1.0" encoding="iso-8859-1"?>
<!-- Generator: Adobe Illustrator 16.0.4, SVG Export Plug-In . SVG Version: 6.00 Build 0)  -->
<!DOCTYPE svg PUBLIC "-//W3C//DTD SVG 1.1//EN" "http://www.w3.org/Graphics/SVG/1.1/DTD/svg11.dtd">
<svg version="1.1" id="Layer_1" xmlns="http://www.w3.org/2000/svg" xmlns:xlink="http://www.w3.org/1999/xlink" x="0px" y="0px"
	 width="135px" height="40px" viewBox="0 0 135 40" style="enable-background:new 0 0 135 40;" xml:space="preserve">
<g>
	<path style="fill:#A6A6A6;" d="M-54.803,40h-125.468c-2.607,0-4.729-2.128-4.729-4.732V4.726C-185,2.12-182.878,0-180.271,0
		h125.468C-52.197,0-50,2.12-50,4.726v30.542C-50,37.872-52.197,40-54.803,40L-54.803,40z"/>
	<path d="M-50.968,35.268c0,2.116-1.714,3.83-3.834,3.83h-125.469c-2.119,0-3.84-1.714-3.84-3.83V4.725
		c0-2.115,1.721-3.835,3.84-3.835h125.468c2.121,0,3.834,1.72,3.834,3.835L-50.968,35.268L-50.968,35.268z"/>
	<g>
		<g>
			<path style="fill:#FFFFFF;" d="M-154.872,19.784c-0.029-3.223,2.639-4.791,2.762-4.864c-1.512-2.203-3.854-2.504-4.677-2.528
				c-1.967-0.207-3.875,1.177-4.877,1.177c-1.022,0-2.565-1.157-4.228-1.123c-2.141,0.033-4.143,1.271-5.24,3.196
				c-2.266,3.922-0.576,9.688,1.595,12.859c1.086,1.553,2.354,3.287,4.017,3.226c1.625-0.066,2.231-1.035,4.192-1.035
				c1.943,0,2.513,1.035,4.207,0.996c1.744-0.027,2.843-1.56,3.89-3.127c1.256-1.779,1.76-3.533,1.779-3.623
				C-151.493,24.924-154.839,23.646-154.872,19.784z"/>
			<path style="fill:#FFFFFF;" d="M-158.071,10.306c0.873-1.093,1.471-2.58,1.305-4.089c-1.265,0.056-2.846,0.875-3.758,1.944
				c-0.806,0.942-1.525,2.486-1.34,3.938C-160.442,12.205-158.983,11.382-158.071,10.306z"/>
		</g>
	</g>
	<g>
		<path style="fill:#FFFFFF;" d="M-131.354,31.504h-2.271l-1.244-3.909h-4.324l-1.185,3.909h-2.211l4.284-13.308h2.646
			L-131.354,31.504z M-135.245,25.955l-1.125-3.475c-0.119-0.355-0.342-1.191-0.671-2.508h-0.04
			c-0.131,0.566-0.342,1.402-0.632,2.508l-1.104,3.475H-135.245z"/>
		<path style="fill:#FFFFFF;" d="M-120.338,26.588c0,1.632-0.44,2.922-1.323,3.869c-0.79,0.843-1.771,1.264-2.941,1.264
			c-1.265,0-2.172-0.453-2.726-1.361h-0.04v5.055h-2.132V25.066c0-1.025-0.026-2.078-0.079-3.158h1.875l0.119,1.521h0.04
			c0.711-1.146,1.79-1.718,3.237-1.718c1.133,0,2.078,0.447,2.834,1.342C-120.716,23.949-120.338,25.127-120.338,26.588z
			 M-122.51,26.666c0-0.934-0.21-1.704-0.632-2.311c-0.461-0.631-1.08-0.947-1.856-0.947c-0.526,0-1.004,0.176-1.431,0.523
			c-0.428,0.35-0.709,0.807-0.84,1.372c-0.065,0.265-0.099,0.48-0.099,0.65v1.6c0,0.698,0.214,1.287,0.642,1.769
			c0.429,0.48,0.984,0.721,1.668,0.721c0.804,0,1.429-0.311,1.875-0.928C-122.733,28.496-122.51,27.68-122.51,26.666z"/>
		<path style="fill:#FFFFFF;" d="M-109.301,26.588c0,1.632-0.441,2.922-1.324,3.869c-0.789,0.843-1.77,1.264-2.941,1.264
			c-1.264,0-2.172-0.453-2.724-1.361h-0.04v5.055h-2.132V25.066c0-1.025-0.027-2.078-0.079-3.158h1.875l0.119,1.521h0.04
			c0.71-1.146,1.789-1.718,3.237-1.718c1.131,0,2.076,0.447,2.834,1.342C-109.68,23.949-109.301,25.127-109.301,26.588z
			 M-111.473,26.666c0-0.934-0.211-1.704-0.633-2.311c-0.461-0.631-1.078-0.947-1.855-0.947c-0.527,0-1.004,0.176-1.432,0.523
			c-0.428,0.35-0.707,0.807-0.838,1.372c-0.065,0.265-0.1,0.48-0.1,0.65v1.6c0,0.698,0.214,1.287,0.641,1.769
			c0.428,0.479,0.983,0.721,1.67,0.721c0.803,0,1.428-0.311,1.875-0.928C-111.697,28.496-111.473,27.68-111.473,26.666z"/>
		<path style="fill:#FFFFFF;" d="M-96.961,27.771c0,1.133-0.393,2.054-1.182,2.765c-0.867,0.776-2.074,1.165-3.625,1.165
			c-1.433,0-2.58-0.276-3.449-0.829l0.494-1.777c0.936,0.566,1.963,0.851,3.082,0.851c0.803,0,1.428-0.183,1.877-0.545
			c0.447-0.361,0.67-0.848,0.67-1.453c0-0.54-0.184-0.995-0.553-1.364c-0.367-0.369-0.98-0.712-1.836-1.029
			c-2.33-0.868-3.494-2.142-3.494-3.815c0-1.094,0.408-1.991,1.225-2.689c0.814-0.699,1.9-1.048,3.258-1.048
			c1.211,0,2.217,0.211,3.02,0.632l-0.532,1.738c-0.75-0.408-1.599-0.612-2.548-0.612c-0.75,0-1.336,0.185-1.756,0.554
			c-0.354,0.328-0.532,0.729-0.532,1.205c0,0.525,0.202,0.961,0.61,1.303c0.355,0.315,1,0.658,1.937,1.027
			c1.146,0.461,1.985,1,2.526,1.617C-97.23,26.081-96.961,26.852-96.961,27.771z"/>
		<path style="fill:#FFFFFF;" d="M-89.912,23.508h-2.35v4.659c0,1.185,0.414,1.776,1.244,1.776c0.381,0,0.697-0.032,0.947-0.099
			l0.059,1.619c-0.42,0.157-0.973,0.236-1.658,0.236c-0.842,0-1.5-0.257-1.975-0.771c-0.474-0.514-0.711-1.376-0.711-2.587v-4.837
			h-1.4v-1.6h1.4v-1.758l2.094-0.631v2.389h2.35V23.508z"/>
		<path style="fill:#FFFFFF;" d="M-79.309,26.627c0,1.475-0.422,2.686-1.265,3.633c-0.883,0.975-2.055,1.461-3.516,1.461
			c-1.408,0-2.529-0.467-3.365-1.4c-0.836-0.935-1.254-2.113-1.254-3.534c0-1.487,0.431-2.705,1.293-3.652
			c0.86-0.948,2.022-1.422,3.483-1.422c1.408,0,2.541,0.467,3.396,1.402C-79.717,24.021-79.309,25.191-79.309,26.627z
			 M-81.521,26.696c0-0.886-0.188-1.645-0.571-2.277c-0.447-0.767-1.087-1.147-1.914-1.147c-0.857,0-1.509,0.383-1.955,1.147
			c-0.384,0.634-0.572,1.405-0.572,2.317c0,0.885,0.188,1.644,0.572,2.275c0.461,0.766,1.104,1.148,1.937,1.148
			c0.813,0,1.452-0.391,1.914-1.168C-81.719,28.348-81.521,27.58-81.521,26.696z"/>
		<path style="fill:#FFFFFF;" d="M-72.379,23.783c-0.211-0.039-0.436-0.059-0.672-0.059c-0.75,0-1.33,0.282-1.738,0.85
			c-0.355,0.5-0.533,1.132-0.533,1.895v5.035h-2.131l0.02-6.574c0-1.105-0.026-2.113-0.08-3.021h1.857l0.078,1.836h0.059
			c0.226-0.631,0.58-1.14,1.066-1.521c0.475-0.343,0.988-0.514,1.541-0.514c0.197,0,0.375,0.014,0.533,0.039V23.783z"/>
		<path style="fill:#FFFFFF;" d="M-62.844,26.252c0,0.382-0.025,0.704-0.078,0.967h-6.396c0.025,0.948,0.334,1.674,0.928,2.174
			c0.539,0.446,1.236,0.67,2.093,0.67c0.946,0,1.812-0.15,2.588-0.453l0.334,1.479c-0.908,0.396-1.979,0.593-3.217,0.593
			c-1.488,0-2.656-0.438-3.507-1.312c-0.848-0.875-1.272-2.051-1.272-3.524c0-1.446,0.396-2.651,1.187-3.612
			c0.828-1.026,1.946-1.539,3.354-1.539c1.383,0,2.431,0.513,3.142,1.539C-63.127,24.047-62.844,25.055-62.844,26.252z
			 M-64.877,25.699c0.014-0.633-0.125-1.178-0.414-1.639c-0.369-0.594-0.936-0.89-1.699-0.89c-0.697,0-1.264,0.289-1.697,0.869
			c-0.354,0.461-0.565,1.014-0.631,1.658L-64.877,25.699L-64.877,25.699z"/>
	</g>
	<g>
		<g>
			<path style="fill:#FFFFFF;" d="M-135.95,10.009c0,1.177-0.354,2.063-1.058,2.658c-0.653,0.549-1.581,0.824-2.783,0.824
				c-0.597,0-1.106-0.026-1.533-0.078V6.982c0.558-0.09,1.157-0.136,1.806-0.136c1.145,0,2.008,0.249,2.59,0.747
				C-136.276,8.156-135.95,8.961-135.95,10.009z M-137.056,10.038c0-0.763-0.201-1.348-0.605-1.756
				c-0.404-0.407-0.994-0.611-1.771-0.611c-0.33,0-0.61,0.022-0.844,0.068v4.889c0.129,0.02,0.365,0.029,0.709,0.029
				c0.801,0,1.42-0.223,1.856-0.669C-137.274,11.542-137.056,10.892-137.056,10.038z"/>
			<path style="fill:#FFFFFF;" d="M-130.091,11.037c0,0.725-0.207,1.319-0.621,1.785c-0.434,0.479-1.01,0.718-1.727,0.718
				c-0.692,0-1.244-0.229-1.654-0.689c-0.41-0.459-0.615-1.038-0.615-1.736c0-0.73,0.211-1.329,0.635-1.794
				c0.424-0.465,0.994-0.698,1.713-0.698c0.691,0,1.248,0.229,1.668,0.688C-130.292,9.757-130.091,10.333-130.091,11.037z
				 M-131.179,11.071c0-0.436-0.094-0.809-0.28-1.119c-0.22-0.376-0.533-0.564-0.94-0.564c-0.42,0-0.74,0.188-0.961,0.564
				c-0.188,0.311-0.281,0.69-0.281,1.138c0,0.435,0.095,0.808,0.281,1.119c0.228,0.376,0.543,0.564,0.951,0.564
				c0.4,0,0.715-0.191,0.94-0.574C-131.274,11.882-131.179,11.506-131.179,11.071z"/>
			<path style="fill:#FFFFFF;" d="M-122.235,8.719l-1.475,4.714h-0.96l-0.611-2.047c-0.155-0.511-0.28-1.019-0.379-1.522h-0.019
				c-0.092,0.518-0.217,1.024-0.379,1.522l-0.649,2.047h-0.972l-1.387-4.714h1.078l0.532,2.241c0.129,0.53,0.235,1.035,0.32,1.513
				h0.019c0.078-0.394,0.207-0.896,0.389-1.503l0.67-2.25h0.854l0.641,2.202c0.155,0.537,0.281,1.054,0.379,1.552h0.028
				c0.071-0.485,0.179-1.002,0.32-1.552l0.571-2.202L-122.235,8.719L-122.235,8.719z"/>
			<path style="fill:#FFFFFF;" d="M-116.802,13.433h-1.048v-2.7c0-0.832-0.316-1.248-0.95-1.248c-0.312,0-0.562,0.114-0.757,0.343
				c-0.193,0.229-0.291,0.499-0.291,0.808v2.796h-1.048v-3.366c0-0.414-0.014-0.863-0.039-1.349h0.922l0.049,0.737h0.028
				c0.123-0.229,0.305-0.418,0.543-0.569c0.285-0.176,0.603-0.265,0.951-0.265c0.439,0,0.806,0.142,1.096,0.427
				c0.363,0.349,0.544,0.87,0.544,1.562V13.433z"/>
			<path style="fill:#FFFFFF;" d="M-113.912,13.433h-1.047V6.556h1.047V13.433z"/>
			<path style="fill:#FFFFFF;" d="M-107.742,11.037c0,0.725-0.207,1.319-0.621,1.785c-0.434,0.479-1.01,0.718-1.727,0.718
				c-0.693,0-1.244-0.229-1.654-0.689c-0.41-0.459-0.615-1.038-0.615-1.736c0-0.73,0.211-1.329,0.635-1.794
				c0.425-0.465,0.994-0.698,1.711-0.698c0.693,0,1.248,0.229,1.671,0.688C-107.943,9.757-107.742,10.333-107.742,11.037z
				 M-108.83,11.071c0-0.436-0.094-0.809-0.281-1.119c-0.219-0.376-0.533-0.564-0.938-0.564c-0.423,0-0.742,0.188-0.961,0.564
				c-0.188,0.311-0.281,0.69-0.281,1.138c0,0.435,0.094,0.808,0.281,1.119c0.227,0.376,0.543,0.564,0.95,0.564
				c0.4,0,0.713-0.191,0.939-0.574C-108.926,11.882-108.83,11.506-108.83,11.071z"/>
			<path style="fill:#FFFFFF;" d="M-102.67,13.433h-0.941l-0.078-0.543h-0.028c-0.322,0.433-0.781,0.65-1.378,0.65
				c-0.444,0-0.805-0.143-1.075-0.427c-0.246-0.258-0.369-0.579-0.369-0.96c0-0.576,0.24-1.015,0.724-1.319
				c0.481-0.304,1.159-0.453,2.032-0.446V10.3c0-0.621-0.325-0.931-0.979-0.931c-0.465,0-0.875,0.117-1.229,0.349l-0.213-0.688
				c0.438-0.271,0.979-0.407,1.617-0.407c1.232,0,1.85,0.65,1.85,1.95v1.736C-102.738,12.78-102.715,13.155-102.67,13.433z
				 M-103.758,11.813v-0.727c-1.156-0.02-1.734,0.297-1.734,0.95c0,0.246,0.066,0.43,0.201,0.553s0.307,0.184,0.512,0.184
				c0.23,0,0.445-0.073,0.641-0.218c0.197-0.146,0.318-0.331,0.363-0.558C-103.764,11.946-103.758,11.884-103.758,11.813z"/>
			<path style="fill:#FFFFFF;" d="M-96.715,13.433h-0.93l-0.049-0.757h-0.029c-0.297,0.576-0.803,0.864-1.514,0.864
				c-0.568,0-1.041-0.223-1.416-0.669c-0.375-0.446-0.562-1.025-0.562-1.736c0-0.763,0.203-1.381,0.611-1.853
				c0.395-0.44,0.879-0.66,1.455-0.66c0.633,0,1.075,0.213,1.328,0.64h0.02V6.556h1.049v5.607
				C-96.752,12.622-96.74,13.045-96.715,13.433z M-97.801,11.445v-0.786c0-0.136-0.01-0.246-0.029-0.33
				c-0.059-0.252-0.186-0.464-0.379-0.635c-0.195-0.171-0.43-0.257-0.701-0.257c-0.391,0-0.697,0.155-0.922,0.466
				c-0.223,0.311-0.336,0.708-0.336,1.193c0,0.466,0.107,0.844,0.322,1.135c0.227,0.31,0.533,0.465,0.916,0.465
				c0.344,0,0.619-0.129,0.828-0.388C-97.9,12.069-97.801,11.781-97.801,11.445z"/>
			<path style="fill:#FFFFFF;" d="M-87.752,11.037c0,0.725-0.207,1.319-0.621,1.785c-0.434,0.479-1.008,0.718-1.727,0.718
				c-0.691,0-1.242-0.229-1.654-0.689c-0.41-0.459-0.615-1.038-0.615-1.736c0-0.73,0.211-1.329,0.635-1.794
				c0.424-0.465,0.994-0.698,1.713-0.698c0.691,0,1.248,0.229,1.668,0.688C-87.953,9.757-87.752,10.333-87.752,11.037z
				 M-88.838,11.071c0-0.436-0.094-0.809-0.281-1.119c-0.221-0.376-0.533-0.564-0.941-0.564c-0.42,0-0.739,0.188-0.961,0.564
				c-0.188,0.311-0.28,0.69-0.28,1.138c0,0.435,0.094,0.808,0.28,1.119c0.228,0.376,0.543,0.564,0.951,0.564
				c0.4,0,0.715-0.191,0.941-0.574C-88.936,11.882-88.838,11.506-88.838,11.071z"/>
			<path style="fill:#FFFFFF;" d="M-82.117,13.433h-1.047v-2.7c0-0.832-0.316-1.248-0.951-1.248c-0.311,0-0.562,0.114-0.756,0.343
				c-0.193,0.229-0.291,0.499-0.291,0.808v2.796h-1.049v-3.366c0-0.414-0.012-0.863-0.037-1.349h0.92l0.049,0.737h0.029
				c0.123-0.229,0.305-0.418,0.543-0.569c0.285-0.176,0.602-0.265,0.951-0.265c0.439,0,0.805,0.142,1.096,0.427
				c0.363,0.349,0.543,0.87,0.543,1.562V13.433z"/>
			<path style="fill:#FFFFFF;" d="M-75.064,9.504h-1.153v2.29c0,0.582,0.204,0.873,0.61,0.873c0.188,0,0.344-0.016,0.467-0.049
				l0.027,0.795c-0.207,0.078-0.479,0.117-0.813,0.117c-0.414,0-0.736-0.126-0.97-0.378c-0.233-0.252-0.35-0.676-0.35-1.271V9.504
				h-0.689V8.719h0.689V7.855l1.027-0.31v1.173h1.154V9.504L-75.064,9.504z"/>
			<path style="fill:#FFFFFF;" d="M-69.516,13.433h-1.049v-2.68c0-0.845-0.316-1.268-0.949-1.268c-0.486,0-0.818,0.245-1,0.735
				c-0.031,0.104-0.049,0.229-0.049,0.377v2.835h-1.047V6.556h1.047v2.841h0.02c0.33-0.517,0.803-0.775,1.416-0.775
				c0.434,0,0.793,0.142,1.078,0.427c0.355,0.355,0.533,0.883,0.533,1.581V13.433z"/>
			<path style="fill:#FFFFFF;" d="M-63.793,10.853c0,0.188-0.014,0.346-0.039,0.475h-3.143c0.014,0.466,0.164,0.821,0.455,1.067
				c0.266,0.22,0.608,0.33,1.028,0.33c0.466,0,0.89-0.074,1.271-0.223l0.163,0.728c-0.446,0.194-0.973,0.291-1.582,0.291
				c-0.729,0-1.305-0.215-1.721-0.645c-0.418-0.43-0.625-1.007-0.625-1.731c0-0.711,0.193-1.303,0.582-1.775
				c0.406-0.504,0.955-0.756,1.648-0.756c0.678,0,1.193,0.252,1.541,0.756C-63.932,9.77-63.793,10.265-63.793,10.853z
				 M-64.793,10.582c0.008-0.311-0.061-0.579-0.203-0.805c-0.182-0.291-0.459-0.437-0.834-0.437c-0.342,0-0.621,0.142-0.834,0.427
				c-0.174,0.227-0.277,0.498-0.311,0.815H-64.793z"/>
		</g>
	</g>
</g>
<g>
	<path style="fill:#A6A6A6;" d="M-424.803,40h-125.468c-2.607,0-4.729-2.128-4.729-4.732V4.727C-555,2.12-552.878,0-550.271,0
		h125.468C-422.197,0-420,2.12-420,4.727v30.541C-420,37.872-422.197,40-424.803,40L-424.803,40z"/>
	<path d="M-420.968,35.268c0,2.116-1.714,3.83-3.834,3.83h-125.469c-2.119,0-3.84-1.714-3.84-3.83V4.725
		c0-2.115,1.721-3.834,3.84-3.834h125.468c2.121,0,3.834,1.719,3.834,3.834L-420.968,35.268L-420.968,35.268z"/>
	<g>
		<g>
			<path style="fill:#FFFFFF;" d="M-524.872,19.784c-0.029-3.224,2.639-4.791,2.762-4.864c-1.512-2.203-3.854-2.504-4.677-2.527
				c-1.967-0.207-3.875,1.176-4.877,1.176c-1.022,0-2.565-1.156-4.228-1.122c-2.141,0.032-4.143,1.271-5.24,3.196
				c-2.266,3.922-0.576,9.688,1.595,12.858c1.086,1.553,2.354,3.287,4.017,3.226c1.625-0.066,2.231-1.035,4.192-1.035
				c1.943,0,2.513,1.035,4.207,0.996c1.744-0.027,2.843-1.56,3.89-3.127c1.256-1.779,1.76-3.533,1.779-3.623
				C-521.493,24.924-524.839,23.646-524.872,19.784z"/>
			<path style="fill:#FFFFFF;" d="M-528.071,10.307c0.873-1.094,1.471-2.58,1.305-4.09c-1.265,0.057-2.846,0.875-3.758,1.944
				c-0.806,0.942-1.525,2.485-1.34,3.938C-530.442,12.205-528.983,11.382-528.071,10.307z"/>
		</g>
	</g>
	<g>
		<path style="fill:#FFFFFF;" d="M-501.354,31.504h-2.271l-1.244-3.909h-4.324l-1.185,3.909h-2.211l4.284-13.308h2.646
			L-501.354,31.504z M-505.245,25.955l-1.125-3.475c-0.119-0.355-0.342-1.191-0.671-2.508h-0.04
			c-0.131,0.566-0.342,1.402-0.632,2.508l-1.104,3.475H-505.245z"/>
		<path style="fill:#FFFFFF;" d="M-490.338,26.588c0,1.632-0.44,2.922-1.323,3.869c-0.79,0.843-1.771,1.264-2.941,1.264
			c-1.265,0-2.172-0.453-2.726-1.361h-0.04v5.055h-2.132V25.066c0-1.025-0.026-2.078-0.079-3.158h1.875l0.119,1.521h0.04
			c0.711-1.146,1.79-1.718,3.237-1.718c1.133,0,2.078,0.447,2.834,1.342C-490.716,23.949-490.338,25.127-490.338,26.588z
			 M-492.51,26.666c0-0.934-0.21-1.704-0.632-2.311c-0.461-0.631-1.08-0.947-1.856-0.947c-0.526,0-1.004,0.176-1.431,0.523
			c-0.428,0.35-0.709,0.807-0.84,1.372c-0.065,0.265-0.099,0.48-0.099,0.65v1.6c0,0.698,0.214,1.287,0.642,1.769
			c0.429,0.48,0.984,0.721,1.668,0.721c0.804,0,1.429-0.311,1.875-0.928C-492.733,28.496-492.51,27.68-492.51,26.666z"/>
		<path style="fill:#FFFFFF;" d="M-479.301,26.588c0,1.632-0.441,2.922-1.324,3.869c-0.789,0.843-1.77,1.264-2.941,1.264
			c-1.264,0-2.172-0.453-2.724-1.361h-0.04v5.055h-2.132V25.066c0-1.025-0.027-2.078-0.079-3.158h1.875l0.119,1.521h0.04
			c0.71-1.146,1.789-1.718,3.237-1.718c1.131,0,2.076,0.447,2.834,1.342C-479.68,23.949-479.301,25.127-479.301,26.588z
			 M-481.473,26.666c0-0.934-0.211-1.704-0.633-2.311c-0.461-0.631-1.078-0.947-1.855-0.947c-0.527,0-1.004,0.176-1.432,0.523
			c-0.428,0.35-0.707,0.807-0.838,1.372c-0.065,0.265-0.1,0.48-0.1,0.65v1.6c0,0.698,0.214,1.287,0.641,1.769
			c0.428,0.479,0.983,0.721,1.67,0.721c0.803,0,1.428-0.311,1.875-0.928C-481.697,28.496-481.473,27.68-481.473,26.666z"/>
		<path style="fill:#FFFFFF;" d="M-466.961,27.771c0,1.133-0.393,2.054-1.182,2.765c-0.867,0.776-2.074,1.165-3.625,1.165
			c-1.433,0-2.58-0.276-3.449-0.829l0.494-1.777c0.936,0.566,1.963,0.851,3.082,0.851c0.803,0,1.428-0.183,1.877-0.545
			c0.447-0.361,0.67-0.848,0.67-1.453c0-0.54-0.184-0.995-0.553-1.364c-0.367-0.369-0.98-0.712-1.836-1.029
			c-2.33-0.868-3.494-2.142-3.494-3.815c0-1.094,0.408-1.991,1.225-2.689c0.814-0.699,1.9-1.048,3.258-1.048
			c1.211,0,2.217,0.211,3.02,0.632l-0.532,1.738c-0.75-0.408-1.599-0.612-2.548-0.612c-0.75,0-1.336,0.185-1.756,0.554
			c-0.354,0.328-0.532,0.729-0.532,1.205c0,0.525,0.202,0.961,0.61,1.303c0.355,0.315,1,0.658,1.937,1.027
			c1.146,0.461,1.985,1,2.526,1.617C-467.23,26.081-466.961,26.852-466.961,27.771z"/>
		<path style="fill:#FFFFFF;" d="M-459.912,23.508h-2.35v4.659c0,1.185,0.414,1.776,1.244,1.776c0.381,0,0.697-0.032,0.947-0.099
			l0.059,1.619c-0.42,0.157-0.973,0.236-1.658,0.236c-0.842,0-1.5-0.257-1.975-0.771c-0.474-0.514-0.711-1.376-0.711-2.587v-4.837
			h-1.4v-1.6h1.4v-1.758l2.094-0.631v2.389h2.35V23.508z"/>
		<path style="fill:#FFFFFF;" d="M-449.309,26.627c0,1.475-0.422,2.686-1.265,3.633c-0.883,0.975-2.055,1.461-3.516,1.461
			c-1.408,0-2.529-0.467-3.365-1.4c-0.836-0.935-1.254-2.113-1.254-3.534c0-1.487,0.431-2.705,1.293-3.652
			c0.86-0.948,2.022-1.422,3.483-1.422c1.408,0,2.541,0.467,3.396,1.402C-449.717,24.021-449.309,25.191-449.309,26.627z
			 M-451.521,26.696c0-0.886-0.188-1.645-0.571-2.277c-0.447-0.767-1.087-1.147-1.914-1.147c-0.857,0-1.509,0.383-1.955,1.147
			c-0.384,0.634-0.572,1.405-0.572,2.317c0,0.885,0.188,1.644,0.572,2.275c0.461,0.766,1.104,1.148,1.937,1.148
			c0.813,0,1.452-0.391,1.914-1.168C-451.719,28.348-451.521,27.58-451.521,26.696z"/>
		<path style="fill:#FFFFFF;" d="M-442.379,23.783c-0.211-0.039-0.436-0.059-0.672-0.059c-0.75,0-1.33,0.282-1.738,0.85
			c-0.355,0.5-0.533,1.132-0.533,1.895v5.035h-2.131l0.02-6.574c0-1.105-0.026-2.113-0.08-3.021h1.857l0.078,1.836h0.059
			c0.226-0.631,0.58-1.14,1.066-1.521c0.475-0.343,0.988-0.514,1.541-0.514c0.197,0,0.375,0.014,0.533,0.039V23.783z"/>
		<path style="fill:#FFFFFF;" d="M-432.844,26.252c0,0.382-0.025,0.704-0.078,0.967h-6.396c0.025,0.948,0.334,1.674,0.928,2.174
			c0.539,0.446,1.236,0.67,2.093,0.67c0.946,0,1.812-0.15,2.588-0.453l0.334,1.479c-0.908,0.396-1.979,0.593-3.217,0.593
			c-1.488,0-2.656-0.438-3.507-1.312c-0.848-0.875-1.272-2.051-1.272-3.524c0-1.446,0.396-2.651,1.187-3.612
			c0.828-1.026,1.946-1.539,3.354-1.539c1.383,0,2.431,0.513,3.142,1.539C-433.127,24.047-432.844,25.055-432.844,26.252z
			 M-434.877,25.699c0.014-0.633-0.125-1.178-0.414-1.639c-0.369-0.594-0.936-0.89-1.699-0.89c-0.697,0-1.264,0.289-1.697,0.869
			c-0.354,0.461-0.565,1.014-0.631,1.658L-434.877,25.699L-434.877,25.699z"/>
	</g>
	<g>
		<g>
			<path style="fill:#FFFFFF;" d="M-505.95,10.009c0,1.177-0.354,2.063-1.058,2.658c-0.653,0.549-1.581,0.824-2.783,0.824
				c-0.597,0-1.106-0.026-1.533-0.078V6.982c0.558-0.09,1.157-0.137,1.806-0.137c1.145,0,2.008,0.249,2.59,0.747
				C-506.276,8.156-505.95,8.961-505.95,10.009z M-507.056,10.038c0-0.763-0.201-1.349-0.605-1.756s-0.994-0.611-1.771-0.611
				c-0.33,0-0.61,0.022-0.844,0.068v4.889c0.129,0.021,0.365,0.029,0.709,0.029c0.801,0,1.42-0.224,1.856-0.669
				C-507.274,11.542-507.056,10.893-507.056,10.038z"/>
			<path style="fill:#FFFFFF;" d="M-500.091,11.037c0,0.725-0.207,1.318-0.621,1.785c-0.434,0.479-1.01,0.718-1.727,0.718
				c-0.692,0-1.244-0.229-1.654-0.688s-0.615-1.039-0.615-1.736c0-0.73,0.211-1.329,0.635-1.794
				c0.424-0.466,0.994-0.698,1.713-0.698c0.691,0,1.248,0.229,1.668,0.688C-500.292,9.757-500.091,10.333-500.091,11.037z
				 M-501.179,11.071c0-0.436-0.094-0.809-0.28-1.119c-0.22-0.376-0.533-0.564-0.94-0.564c-0.42,0-0.74,0.188-0.961,0.564
				c-0.188,0.311-0.281,0.69-0.281,1.138c0,0.436,0.095,0.809,0.281,1.119c0.228,0.376,0.543,0.564,0.951,0.564
				c0.4,0,0.715-0.191,0.94-0.574C-501.274,11.882-501.179,11.506-501.179,11.071z"/>
			<path style="fill:#FFFFFF;" d="M-492.235,8.719l-1.475,4.715h-0.96l-0.611-2.048c-0.155-0.511-0.28-1.019-0.379-1.522h-0.019
				c-0.092,0.518-0.217,1.024-0.379,1.522l-0.649,2.048h-0.972l-1.387-4.715h1.078l0.532,2.241c0.129,0.53,0.235,1.035,0.32,1.513
				h0.019c0.078-0.394,0.207-0.896,0.389-1.503l0.67-2.25h0.854l0.641,2.202c0.155,0.537,0.281,1.055,0.379,1.553h0.028
				c0.071-0.485,0.179-1.002,0.32-1.553l0.571-2.202L-492.235,8.719L-492.235,8.719z"/>
			<path style="fill:#FFFFFF;" d="M-486.802,13.434h-1.048v-2.701c0-0.832-0.316-1.248-0.95-1.248c-0.312,0-0.562,0.115-0.757,0.344
				c-0.193,0.229-0.291,0.499-0.291,0.808v2.796h-1.048v-3.365c0-0.414-0.014-0.863-0.039-1.35h0.922l0.049,0.737h0.028
				c0.123-0.229,0.305-0.418,0.543-0.569c0.285-0.176,0.603-0.265,0.951-0.265c0.439,0,0.806,0.142,1.096,0.427
				c0.363,0.35,0.544,0.87,0.544,1.562V13.434z"/>
			<path style="fill:#FFFFFF;" d="M-483.912,13.434h-1.047V6.557h1.047V13.434z"/>
			<path style="fill:#FFFFFF;" d="M-477.742,11.037c0,0.725-0.207,1.318-0.621,1.785c-0.434,0.479-1.01,0.718-1.727,0.718
				c-0.693,0-1.244-0.229-1.654-0.688s-0.615-1.039-0.615-1.736c0-0.73,0.211-1.329,0.635-1.794
				c0.425-0.466,0.994-0.698,1.711-0.698c0.693,0,1.248,0.229,1.671,0.688C-477.943,9.757-477.742,10.333-477.742,11.037z
				 M-478.83,11.071c0-0.436-0.094-0.809-0.281-1.119c-0.219-0.376-0.533-0.564-0.938-0.564c-0.423,0-0.742,0.188-0.961,0.564
				c-0.188,0.311-0.281,0.69-0.281,1.138c0,0.436,0.094,0.809,0.281,1.119c0.227,0.376,0.543,0.564,0.95,0.564
				c0.4,0,0.713-0.191,0.939-0.574C-478.926,11.882-478.83,11.506-478.83,11.071z"/>
			<path style="fill:#FFFFFF;" d="M-472.67,13.434h-0.941l-0.078-0.543h-0.028c-0.322,0.433-0.781,0.649-1.378,0.649
				c-0.444,0-0.805-0.144-1.075-0.427c-0.246-0.258-0.369-0.579-0.369-0.961c0-0.575,0.24-1.015,0.724-1.318
				c0.481-0.304,1.159-0.453,2.032-0.446V10.3c0-0.621-0.325-0.931-0.979-0.931c-0.465,0-0.875,0.117-1.229,0.349l-0.213-0.688
				c0.438-0.271,0.979-0.407,1.617-0.407c1.232,0,1.85,0.65,1.85,1.95v1.735C-472.738,12.78-472.715,13.155-472.67,13.434z
				 M-473.758,11.812v-0.727c-1.156-0.02-1.734,0.297-1.734,0.95c0,0.246,0.066,0.43,0.201,0.553s0.307,0.185,0.512,0.185
				c0.23,0,0.445-0.073,0.641-0.219c0.197-0.146,0.318-0.33,0.363-0.558C-473.764,11.946-473.758,11.884-473.758,11.812z"/>
			<path style="fill:#FFFFFF;" d="M-466.715,13.434h-0.93l-0.049-0.758h-0.029c-0.297,0.576-0.803,0.864-1.514,0.864
				c-0.568,0-1.041-0.224-1.416-0.669c-0.375-0.446-0.562-1.025-0.562-1.736c0-0.763,0.203-1.381,0.611-1.853
				c0.395-0.44,0.879-0.66,1.455-0.66c0.633,0,1.075,0.213,1.328,0.64h0.02V6.557h1.049v5.606
				C-466.752,12.622-466.74,13.045-466.715,13.434z M-467.801,11.445v-0.786c0-0.136-0.01-0.246-0.029-0.33
				c-0.059-0.252-0.186-0.464-0.379-0.636c-0.195-0.17-0.43-0.256-0.701-0.256c-0.391,0-0.697,0.154-0.922,0.465
				c-0.223,0.312-0.336,0.709-0.336,1.193c0,0.467,0.107,0.844,0.322,1.135c0.227,0.311,0.533,0.466,0.916,0.466
				c0.344,0,0.619-0.13,0.828-0.388C-467.9,12.068-467.801,11.781-467.801,11.445z"/>
			<path style="fill:#FFFFFF;" d="M-457.752,11.037c0,0.725-0.207,1.318-0.621,1.785c-0.434,0.479-1.008,0.718-1.727,0.718
				c-0.691,0-1.242-0.229-1.654-0.688c-0.41-0.459-0.615-1.039-0.615-1.736c0-0.73,0.211-1.329,0.635-1.794
				c0.424-0.466,0.994-0.698,1.713-0.698c0.691,0,1.248,0.229,1.668,0.688C-457.953,9.757-457.752,10.333-457.752,11.037z
				 M-458.838,11.071c0-0.436-0.094-0.809-0.281-1.119c-0.221-0.376-0.533-0.564-0.941-0.564c-0.42,0-0.739,0.188-0.961,0.564
				c-0.188,0.311-0.28,0.69-0.28,1.138c0,0.436,0.094,0.809,0.28,1.119c0.228,0.376,0.543,0.564,0.951,0.564
				c0.4,0,0.715-0.191,0.941-0.574C-458.936,11.882-458.838,11.506-458.838,11.071z"/>
			<path style="fill:#FFFFFF;" d="M-452.117,13.434h-1.047v-2.701c0-0.832-0.316-1.248-0.951-1.248
				c-0.311,0-0.562,0.115-0.756,0.344c-0.193,0.229-0.291,0.499-0.291,0.808v2.796h-1.049v-3.365c0-0.414-0.012-0.863-0.037-1.35
				h0.92l0.049,0.737h0.029c0.123-0.229,0.305-0.418,0.543-0.569c0.285-0.176,0.602-0.265,0.951-0.265
				c0.439,0,0.805,0.142,1.096,0.427c0.363,0.35,0.543,0.87,0.543,1.562V13.434z"/>
			<path style="fill:#FFFFFF;" d="M-445.064,9.504h-1.153v2.29c0,0.582,0.204,0.873,0.61,0.873c0.188,0,0.344-0.017,0.467-0.049
				l0.027,0.795c-0.207,0.078-0.479,0.117-0.813,0.117c-0.414,0-0.736-0.126-0.97-0.378s-0.35-0.676-0.35-1.271V9.504h-0.689V8.719
				h0.689V7.855l1.027-0.311v1.173h1.154V9.504L-445.064,9.504z"/>
			<path style="fill:#FFFFFF;" d="M-439.516,13.434h-1.049v-2.681c0-0.845-0.316-1.269-0.949-1.269c-0.486,0-0.818,0.246-1,0.735
				c-0.031,0.104-0.049,0.229-0.049,0.378v2.834h-1.047V6.557h1.047v2.84h0.02c0.33-0.517,0.803-0.774,1.416-0.774
				c0.434,0,0.793,0.142,1.078,0.427c0.355,0.355,0.533,0.883,0.533,1.581V13.434z"/>
			<path style="fill:#FFFFFF;" d="M-433.793,10.854c0,0.188-0.014,0.346-0.039,0.475h-3.143c0.014,0.466,0.164,0.82,0.455,1.066
				c0.266,0.221,0.608,0.33,1.028,0.33c0.466,0,0.89-0.074,1.271-0.223l0.163,0.729c-0.446,0.193-0.973,0.291-1.582,0.291
				c-0.729,0-1.305-0.215-1.721-0.646c-0.418-0.43-0.625-1.007-0.625-1.731c0-0.711,0.193-1.303,0.582-1.774
				c0.406-0.504,0.955-0.756,1.648-0.756c0.678,0,1.193,0.252,1.541,0.756C-433.932,9.77-433.793,10.266-433.793,10.854z
				 M-434.793,10.582c0.008-0.311-0.061-0.579-0.203-0.805c-0.182-0.291-0.459-0.438-0.834-0.438c-0.342,0-0.621,0.143-0.834,0.428
				c-0.174,0.227-0.277,0.498-0.311,0.814H-434.793z"/>
		</g>
	</g>
</g>
<g style="opacity:0.7;">
	<path style="fill:#666666;" d="M-50,36c0,2.2-1.8,4-4,4h-127c-2.2,0-4-1.8-4-4V4c0-2.2,1.8-4,4-4h127c2.2,0,4,1.8,4,4V36z"/>
</g>
<g>
	<polygon style="fill:#2B6DF8;" points="-51.186,32.813 -82.812,1.187 -67.023,1.21 -51.186,17.047 	"/>
	<g>
		<path style="fill:#FFFFFF;" d="M-68.52,9.192c-0.852,0.852-1.963,0.252-2.619-0.518c-0.199-0.233-0.752-0.852-0.48-1.124
			c0.201-0.201,0.404-0.403,0.605-0.604c0.18,0.474,0.959,2.272,1.699,1.526c0.5-0.494-0.375-1.779-0.301-2.409
			c0.109-0.94,1.107-1.531,1.975-1.149c0.758,0.335,1.232,1.095,1.523,1.837c-0.146,0.06-0.719,0.405-0.848,0.351
			c-0.184-0.441-0.512-1.261-1.078-1.303c-0.697-0.046-0.498,0.766-0.367,1.155C-68.148,7.724-67.865,8.534-68.52,9.192
			C-68.848,9.521-68.283,8.955-68.52,9.192z"/>
		<path style="fill:#FFFFFF;" d="M-63.623,12.464c-2.453,2.452-5.908-1.014-3.455-3.466C-64.633,6.556-61.176,10.019-63.623,12.464
			C-64.225,13.065-63.02,11.861-63.623,12.464z M-66.275,9.811c-1.555,1.555,0.268,3.422,1.846,1.846
			C-62.848,10.075-64.721,8.256-66.275,9.811z"/>
		<path style="fill:#FFFFFF;" d="M-59.443,16.643c-2.453,2.453-5.906-1.01-3.457-3.466C-60.455,10.735-56.996,14.198-59.443,16.643
			C-60.045,17.244-58.84,16.04-59.443,16.643z M-62.096,13.99c-0.604,0.604-1.01,1.443-0.305,2.147
			c0.703,0.703,1.539,0.307,2.148-0.303C-58.672,14.254-60.541,12.436-62.096,13.99z"/>
		<path style="fill:#FFFFFF;" d="M-57.16,22.57c-0.221-0.22-0.916-0.688-0.98-0.979c-0.066-0.294,0.258-0.954,0.334-1.237
			c0.256-0.947,0.805-2.155,0.812-3.115c-0.859,0.975-1.783,1.879-2.701,2.797c-0.23-0.23-0.461-0.459-0.689-0.689
			c1.211-1.211,2.422-2.422,3.635-3.634c0.219,0.219,0.904,0.682,0.971,0.972c0.066,0.292-0.252,0.946-0.326,1.229
			c-0.26,0.975-0.732,2.099-0.799,3.089c0.609-0.679,1.246-1.323,1.891-1.968c0.26-0.259,0.52-0.519,0.779-0.778
			c0.027-0.029,0.629,0.601,0.709,0.681C-54.738,20.148-55.949,21.358-57.16,22.57z"/>
	</g>
</g>
<g>
	<path style="fill:#A6A6A6;" d="M-239.803,40h-125.468c-2.607,0-4.729-2.128-4.729-4.733V4.726C-370,2.12-367.878,0-365.271,0
		h125.468C-237.197,0-235,2.12-235,4.726v30.541C-235,37.872-237.197,40-239.803,40L-239.803,40z"/>
	<path d="M-235.967,35.268c0,2.116-1.715,3.83-3.834,3.83h-125.47c-2.119,0-3.839-1.714-3.839-3.83V4.725
		c0-2.115,1.72-3.835,3.839-3.835h125.468c2.121,0,3.834,1.72,3.834,3.835v30.542H-235.967z"/>
	<g>
		<g>
			<path style="fill:#FFFFFF;" d="M-339.871,19.795c-0.029-3.223,2.639-4.791,2.761-4.864c-1.511-2.203-3.853-2.504-4.676-2.528
				c-1.968-0.207-3.874,1.177-4.877,1.177c-1.022,0-2.565-1.157-4.228-1.123c-2.14,0.033-4.143,1.272-5.24,3.196
				c-2.266,3.923-0.576,9.688,1.595,12.858c1.086,1.553,2.354,3.287,4.016,3.226c1.625-0.067,2.231-1.036,4.193-1.036
				c1.943,0,2.513,1.036,4.207,0.997c1.743-0.028,2.843-1.56,3.89-3.127c1.256-1.78,1.76-3.533,1.779-3.623
				C-336.492,24.935-339.838,23.658-339.871,19.795z"/>
			<path style="fill:#FFFFFF;" d="M-343.071,10.317c0.874-1.093,1.472-2.58,1.306-4.089c-1.266,0.056-2.848,0.875-3.758,1.944
				c-0.806,0.942-1.525,2.486-1.34,3.938C-345.442,12.216-343.983,11.394-343.071,10.317z"/>
		</g>
	</g>
	<g>
		<path style="fill:#FFFFFF;" d="M-316.354,31.516h-2.271l-1.244-3.91h-4.323l-1.185,3.91h-2.211l4.283-13.309h2.646
			L-316.354,31.516z M-320.244,25.967l-1.125-3.475c-0.119-0.355-0.342-1.191-0.672-2.508h-0.039
			c-0.131,0.566-0.342,1.402-0.632,2.508l-1.105,3.475H-320.244z"/>
		<path style="fill:#FFFFFF;" d="M-305.337,26.599c0,1.632-0.44,2.923-1.323,3.87c-0.789,0.842-1.77,1.264-2.941,1.264
			c-1.264,0-2.172-0.455-2.725-1.363h-0.039v5.055h-2.133V25.078c0-1.026-0.027-2.079-0.079-3.158h1.876l0.118,1.52h0.04
			c0.711-1.145,1.789-1.717,3.237-1.717c1.132,0,2.077,0.447,2.833,1.342C-305.715,23.96-305.337,25.138-305.337,26.599z
			 M-307.509,26.678c0-0.935-0.21-1.705-0.632-2.311c-0.461-0.631-1.08-0.947-1.855-0.947c-0.527,0-1.004,0.175-1.432,0.523
			s-0.708,0.807-0.84,1.372c-0.065,0.264-0.098,0.48-0.098,0.651v1.6c0,0.697,0.213,1.287,0.641,1.768s0.984,0.721,1.669,0.721
			c0.803,0,1.429-0.311,1.876-0.928C-307.732,28.508-307.509,27.691-307.509,26.678z"/>
		<path style="fill:#FFFFFF;" d="M-294.299,26.599c0,1.632-0.441,2.923-1.324,3.87c-0.789,0.842-1.77,1.264-2.941,1.264
			c-1.264,0-2.172-0.455-2.725-1.363h-0.039v5.055h-2.133V25.078c0-1.026-0.027-2.079-0.079-3.158h1.876l0.118,1.52h0.04
			c0.711-1.145,1.789-1.717,3.238-1.717c1.131,0,2.076,0.447,2.834,1.342C-294.678,23.96-294.299,25.138-294.299,26.599z
			 M-296.471,26.678c0-0.935-0.211-1.705-0.633-2.311c-0.461-0.631-1.078-0.947-1.855-0.947c-0.527,0-1.004,0.175-1.432,0.523
			s-0.707,0.807-0.84,1.372c-0.064,0.264-0.098,0.48-0.098,0.651v1.6c0,0.697,0.213,1.287,0.641,1.768s0.984,0.721,1.67,0.721
			c0.803,0,1.428-0.311,1.875-0.928C-296.695,28.508-296.471,27.691-296.471,26.678z"/>
		<path style="fill:#FFFFFF;" d="M-281.959,27.783c0,1.133-0.395,2.053-1.182,2.764c-0.867,0.777-2.076,1.166-3.625,1.166
			c-1.432,0-2.582-0.277-3.449-0.83l0.494-1.777c0.934,0.566,1.961,0.85,3.08,0.85c0.805,0,1.43-0.182,1.877-0.543
			c0.447-0.363,0.672-0.848,0.672-1.455c0-0.539-0.186-0.994-0.553-1.363c-0.369-0.369-0.98-0.713-1.836-1.029
			c-2.33-0.869-3.496-2.143-3.496-3.816c0-1.094,0.408-1.991,1.225-2.689c0.816-0.699,1.902-1.049,3.258-1.049
			c1.211,0,2.219,0.211,3.021,0.632l-0.533,1.737c-0.75-0.407-1.6-0.611-2.547-0.611c-0.75,0-1.336,0.184-1.758,0.553
			c-0.355,0.329-0.533,0.73-0.533,1.204c0,0.526,0.205,0.961,0.613,1.304c0.355,0.315,1,0.658,1.934,1.026
			c1.146,0.461,1.988,1.001,2.527,1.618C-282.229,26.092-281.959,26.862-281.959,27.783z"/>
		<path style="fill:#FFFFFF;" d="M-274.912,23.519h-2.35v4.659c0,1.186,0.416,1.777,1.244,1.777c0.383,0,0.697-0.033,0.949-0.098
			l0.059,1.619c-0.422,0.156-0.975,0.236-1.658,0.236c-0.844,0-1.502-0.258-1.975-0.77c-0.475-0.514-0.711-1.377-0.711-2.588v-4.837
			h-1.402V21.92h1.402v-1.758l2.092-0.632v2.39h2.35V23.519z"/>
		<path style="fill:#FFFFFF;" d="M-264.309,26.639c0,1.475-0.422,2.686-1.264,3.633c-0.881,0.975-2.053,1.461-3.514,1.461
			c-1.41,0-2.531-0.467-3.367-1.402c-0.836-0.934-1.254-2.113-1.254-3.533c0-1.488,0.432-2.705,1.293-3.653
			c0.863-0.948,2.025-1.421,3.486-1.421c1.408,0,2.539,0.467,3.395,1.401C-264.717,24.032-264.309,25.203-264.309,26.639z
			 M-266.52,26.707c0-0.885-0.191-1.643-0.572-2.277c-0.447-0.766-1.086-1.148-1.916-1.148c-0.855,0-1.508,0.383-1.955,1.148
			c-0.381,0.635-0.572,1.406-0.572,2.317c0,0.885,0.191,1.644,0.572,2.276c0.461,0.766,1.105,1.148,1.936,1.148
			c0.816,0,1.455-0.389,1.916-1.168C-266.717,28.357-266.52,27.592-266.52,26.707z"/>
		<path style="fill:#FFFFFF;" d="M-257.379,23.795c-0.211-0.039-0.434-0.059-0.67-0.059c-0.752,0-1.33,0.283-1.738,0.849
			c-0.355,0.501-0.533,1.132-0.533,1.896v5.035h-2.133l0.02-6.575c0-1.106-0.025-2.112-0.078-3.021h1.855l0.08,1.836h0.059
			c0.223-0.632,0.578-1.139,1.066-1.521c0.473-0.343,0.986-0.513,1.539-0.513c0.197,0,0.375,0.013,0.533,0.039V23.795z"/>
		<path style="fill:#FFFFFF;" d="M-247.842,26.264c0,0.381-0.027,0.703-0.08,0.967h-6.396c0.025,0.947,0.336,1.672,0.928,2.172
			c0.539,0.447,1.238,0.672,2.094,0.672c0.947,0,1.809-0.152,2.586-0.455l0.336,1.48c-0.908,0.396-1.982,0.594-3.219,0.594
			c-1.488,0-2.656-0.438-3.504-1.314c-0.85-0.875-1.273-2.049-1.273-3.523c0-1.447,0.395-2.652,1.184-3.613
			c0.83-1.027,1.949-1.54,3.357-1.54c1.381,0,2.428,0.513,3.139,1.54C-248.125,24.059-247.842,25.065-247.842,26.264z
			 M-249.875,25.711c0.012-0.633-0.127-1.179-0.416-1.64c-0.367-0.593-0.934-0.888-1.697-0.888c-0.697,0-1.264,0.289-1.697,0.868
			c-0.355,0.461-0.566,1.014-0.633,1.659H-249.875z"/>
	</g>
	<g>
		<g>
			<path style="fill:#FFFFFF;" d="M-322.133,8.808c0,0.602-0.178,1.083-0.533,1.445c-0.459,0.472-1.129,0.708-2.008,0.708
				c-0.258,0-0.459-0.016-0.602-0.048v2.532h-1.047V6.994c0.498-0.09,1.068-0.136,1.711-0.136c0.83,0,1.455,0.178,1.877,0.534
				C-322.334,7.741-322.133,8.213-322.133,8.808z M-323.18,8.856c0-0.382-0.123-0.674-0.367-0.878s-0.586-0.306-1.023-0.306
				c-0.289,0-0.525,0.02-0.705,0.058v2.348c0.148,0.039,0.352,0.058,0.609,0.058c0.463,0,0.826-0.113,1.09-0.339
				C-323.312,9.571-323.18,9.257-323.18,8.856z"/>
			<path style="fill:#FFFFFF;" d="M-316.273,11.048c0,0.725-0.207,1.319-0.621,1.785c-0.434,0.479-1.008,0.718-1.727,0.718
				c-0.691,0-1.242-0.229-1.654-0.689c-0.41-0.459-0.615-1.038-0.615-1.736c0-0.73,0.211-1.329,0.635-1.794s0.994-0.698,1.713-0.698
				c0.691,0,1.248,0.229,1.668,0.688C-316.475,9.768-316.273,10.344-316.273,11.048z M-317.359,11.083
				c0-0.435-0.094-0.808-0.281-1.119c-0.221-0.376-0.533-0.564-0.941-0.564c-0.42,0-0.74,0.188-0.961,0.564
				c-0.188,0.311-0.281,0.69-0.281,1.138c0,0.435,0.094,0.808,0.281,1.119c0.227,0.376,0.543,0.564,0.951,0.564
				c0.4,0,0.715-0.191,0.941-0.574C-317.457,11.893-317.359,11.517-317.359,11.083z"/>
			<path style="fill:#FFFFFF;" d="M-310.23,11.02c0,0.795-0.221,1.429-0.66,1.901c-0.387,0.42-0.863,0.631-1.426,0.631
				c-0.672,0-1.168-0.278-1.484-0.834h-0.02l-0.057,0.728h-0.893c0.025-0.381,0.037-0.805,0.037-1.271V6.567h1.049v2.852h0.02
				c0.311-0.524,0.811-0.786,1.504-0.786c0.568,0,1.031,0.218,1.391,0.655S-310.23,10.302-310.23,11.02z M-311.297,11.058
				c0-0.459-0.104-0.834-0.311-1.125c-0.227-0.317-0.535-0.476-0.922-0.476c-0.26,0-0.492,0.084-0.699,0.252
				s-0.346,0.391-0.416,0.669c-0.027,0.11-0.039,0.22-0.039,0.33v0.824c0,0.324,0.107,0.602,0.324,0.834s0.486,0.349,0.811,0.349
				c0.395,0,0.701-0.148,0.922-0.446C-311.408,11.973-311.297,11.569-311.297,11.058z"/>
			<path style="fill:#FFFFFF;" d="M-307.514,7.324c0,0.188-0.062,0.339-0.184,0.456c-0.123,0.117-0.281,0.175-0.477,0.175
				c-0.174,0-0.322-0.06-0.441-0.179s-0.18-0.27-0.18-0.451s0.062-0.33,0.186-0.446s0.273-0.175,0.455-0.175
				s0.334,0.059,0.457,0.175C-307.576,6.994-307.514,7.143-307.514,7.324z M-307.631,13.444h-1.047V8.73h1.047V13.444z"/>
			<path style="fill:#FFFFFF;" d="M-301.889,10.864c0,0.188-0.014,0.346-0.039,0.475h-3.143c0.014,0.466,0.164,0.821,0.455,1.067
				c0.266,0.22,0.609,0.33,1.029,0.33c0.465,0,0.889-0.074,1.271-0.223l0.164,0.728c-0.447,0.194-0.973,0.291-1.582,0.291
				c-0.73,0-1.305-0.215-1.721-0.645c-0.418-0.43-0.625-1.007-0.625-1.731c0-0.711,0.193-1.303,0.582-1.775
				c0.406-0.504,0.955-0.756,1.648-0.756c0.678,0,1.193,0.252,1.541,0.756C-302.027,9.781-301.889,10.276-301.889,10.864z
				 M-302.889,10.593c0.008-0.311-0.061-0.579-0.203-0.805c-0.182-0.291-0.459-0.437-0.834-0.437c-0.342,0-0.621,0.142-0.834,0.427
				c-0.174,0.227-0.277,0.498-0.311,0.815H-302.889z"/>
			<path style="fill:#FFFFFF;" d="M-297.873,9.652c-0.104-0.02-0.213-0.029-0.33-0.029c-0.369,0-0.652,0.139-0.854,0.417
				c-0.174,0.246-0.262,0.556-0.262,0.931v2.474h-1.049l0.01-3.23c0-0.543-0.012-1.038-0.037-1.484h0.91l0.039,0.902h0.029
				c0.109-0.311,0.285-0.56,0.523-0.747c0.234-0.168,0.486-0.252,0.758-0.252c0.096,0,0.184,0.006,0.262,0.019V9.652z"/>
			<path style="fill:#FFFFFF;" d="M-293.17,13.444h-3.84v-0.611l1.881-2.473c0.117-0.155,0.33-0.411,0.641-0.767V9.574h-2.338V8.73
				h3.607v0.65l-1.842,2.435c-0.207,0.265-0.42,0.521-0.641,0.766v0.02h2.531V13.444z"/>
			<path style="fill:#FFFFFF;" d="M-282.635,8.73l-1.475,4.714h-0.959l-0.611-2.047c-0.156-0.511-0.281-1.019-0.379-1.523h-0.02
				c-0.09,0.518-0.217,1.025-0.379,1.523l-0.648,2.047h-0.971l-1.387-4.714h1.076l0.533,2.241c0.129,0.53,0.236,1.035,0.32,1.513
				h0.02c0.078-0.394,0.207-0.896,0.389-1.503l0.668-2.25h0.854l0.641,2.202c0.156,0.537,0.281,1.054,0.379,1.552h0.029
				c0.07-0.485,0.178-1.002,0.32-1.552l0.572-2.202H-282.635z"/>
		</g>
	</g>
</g>
<g>
	<path style="fill:#A6A6A6;" d="M130.197,40H4.729C2.122,40,0,37.872,0,35.267V4.726C0,2.12,2.122,0,4.729,0h125.468
		C132.803,0,135,2.12,135,4.726v30.541C135,37.872,132.803,40,130.197,40L130.197,40z"/>
	<path d="M134.033,35.268c0,2.116-1.715,3.83-3.834,3.83H4.729c-2.119,0-3.839-1.714-3.839-3.83V4.725
		c0-2.115,1.72-3.835,3.839-3.835h125.468c2.121,0,3.834,1.72,3.834,3.835v30.542H134.033z"/>
	<g>
		<g>
			<path style="fill:#FFFFFF;" d="M30.129,19.795c-0.029-3.223,2.639-4.791,2.761-4.864c-1.511-2.203-3.853-2.504-4.676-2.528
				c-1.968-0.207-3.874,1.177-4.877,1.177c-1.022,0-2.565-1.157-4.228-1.123c-2.14,0.033-4.143,1.272-5.24,3.196
				c-2.266,3.923-0.576,9.688,1.595,12.858c1.086,1.553,2.354,3.287,4.016,3.226c1.625-0.067,2.231-1.036,4.193-1.036
				c1.943,0,2.513,1.036,4.207,0.997c1.743-0.028,2.843-1.56,3.89-3.127c1.256-1.78,1.76-3.533,1.779-3.623
				C33.508,24.935,30.162,23.658,30.129,19.795z"/>
			<path style="fill:#FFFFFF;" d="M26.929,10.317c0.874-1.093,1.472-2.58,1.306-4.089c-1.266,0.056-2.848,0.875-3.758,1.944
				c-0.806,0.942-1.525,2.486-1.34,3.938C24.558,12.216,26.017,11.394,26.929,10.317z"/>
		</g>
	</g>
	<g>
		<path style="fill:#FFFFFF;" d="M53.646,31.516h-2.271l-1.244-3.91h-4.323l-1.185,3.91h-2.211l4.283-13.309h2.646L53.646,31.516z
			 M49.756,25.967l-1.125-3.475c-0.119-0.355-0.342-1.191-0.672-2.508H47.92c-0.131,0.566-0.342,1.402-0.632,2.508l-1.105,3.475
			H49.756z"/>
		<path style="fill:#FFFFFF;" d="M64.663,26.599c0,1.632-0.44,2.923-1.323,3.87c-0.789,0.842-1.77,1.264-2.941,1.264
			c-1.264,0-2.172-0.455-2.725-1.363h-0.039v5.055h-2.133V25.078c0-1.026-0.027-2.079-0.079-3.158h1.876l0.118,1.52h0.04
			c0.711-1.145,1.789-1.717,3.237-1.717c1.132,0,2.077,0.447,2.833,1.342C64.285,23.96,64.663,25.138,64.663,26.599z M62.491,26.678
			c0-0.935-0.21-1.705-0.632-2.311c-0.461-0.631-1.08-0.947-1.855-0.947c-0.527,0-1.004,0.175-1.432,0.523s-0.708,0.807-0.84,1.372
			c-0.065,0.264-0.098,0.48-0.098,0.651v1.6c0,0.697,0.213,1.287,0.641,1.768s0.984,0.721,1.669,0.721
			c0.803,0,1.429-0.311,1.876-0.928C62.268,28.508,62.491,27.691,62.491,26.678z"/>
		<path style="fill:#FFFFFF;" d="M75.701,26.599c0,1.632-0.441,2.923-1.324,3.87c-0.789,0.842-1.77,1.264-2.941,1.264
			c-1.264,0-2.172-0.455-2.725-1.363h-0.039v5.055h-2.133V25.078c0-1.026-0.027-2.079-0.079-3.158h1.876l0.118,1.52h0.04
			c0.711-1.145,1.789-1.717,3.238-1.717c1.131,0,2.076,0.447,2.834,1.342C75.322,23.96,75.701,25.138,75.701,26.599z M73.529,26.678
			c0-0.935-0.211-1.705-0.633-2.311c-0.461-0.631-1.078-0.947-1.855-0.947c-0.527,0-1.004,0.175-1.432,0.523
			s-0.707,0.807-0.84,1.372c-0.064,0.264-0.098,0.48-0.098,0.651v1.6c0,0.697,0.213,1.287,0.641,1.768s0.984,0.721,1.67,0.721
			c0.803,0,1.428-0.311,1.875-0.928C73.305,28.508,73.529,27.691,73.529,26.678z"/>
		<path style="fill:#FFFFFF;" d="M88.041,27.783c0,1.133-0.395,2.053-1.182,2.764c-0.867,0.777-2.076,1.166-3.625,1.166
			c-1.432,0-2.582-0.277-3.449-0.83l0.494-1.777c0.934,0.566,1.961,0.85,3.08,0.85c0.805,0,1.43-0.182,1.877-0.543
			c0.447-0.363,0.672-0.848,0.672-1.455c0-0.539-0.186-0.994-0.553-1.363c-0.369-0.369-0.98-0.713-1.836-1.029
			c-2.33-0.869-3.496-2.143-3.496-3.816c0-1.094,0.408-1.991,1.225-2.689c0.816-0.699,1.902-1.049,3.258-1.049
			c1.211,0,2.219,0.211,3.021,0.632l-0.533,1.737c-0.75-0.407-1.6-0.611-2.547-0.611c-0.75,0-1.336,0.184-1.758,0.553
			c-0.355,0.329-0.533,0.73-0.533,1.204c0,0.526,0.205,0.961,0.613,1.304c0.355,0.315,1,0.658,1.934,1.026
			c1.146,0.461,1.988,1.001,2.527,1.618C87.771,26.092,88.041,26.862,88.041,27.783z"/>
		<path style="fill:#FFFFFF;" d="M95.088,23.519h-2.35v4.659c0,1.186,0.416,1.777,1.244,1.777c0.383,0,0.697-0.033,0.949-0.098
			l0.059,1.619c-0.422,0.156-0.975,0.236-1.658,0.236c-0.844,0-1.502-0.258-1.975-0.77c-0.475-0.514-0.711-1.377-0.711-2.588v-4.837
			h-1.402V21.92h1.402v-1.758l2.092-0.632v2.39h2.35V23.519z"/>
		<path style="fill:#FFFFFF;" d="M105.691,26.639c0,1.475-0.422,2.686-1.264,3.633c-0.881,0.975-2.053,1.461-3.514,1.461
			c-1.41,0-2.531-0.467-3.367-1.402c-0.836-0.934-1.254-2.113-1.254-3.533c0-1.488,0.432-2.705,1.293-3.653
			c0.863-0.948,2.025-1.421,3.486-1.421c1.408,0,2.539,0.467,3.395,1.401C105.283,24.032,105.691,25.203,105.691,26.639z
			 M103.48,26.707c0-0.885-0.191-1.643-0.572-2.277c-0.447-0.766-1.086-1.148-1.916-1.148c-0.855,0-1.508,0.383-1.955,1.148
			c-0.381,0.635-0.572,1.406-0.572,2.317c0,0.885,0.191,1.644,0.572,2.276c0.461,0.766,1.105,1.148,1.936,1.148
			c0.816,0,1.455-0.389,1.916-1.168C103.283,28.357,103.48,27.592,103.48,26.707z"/>
		<path style="fill:#FFFFFF;" d="M112.621,23.795c-0.211-0.039-0.434-0.059-0.67-0.059c-0.752,0-1.33,0.283-1.738,0.849
			c-0.355,0.501-0.533,1.132-0.533,1.896v5.035h-2.133l0.02-6.575c0-1.106-0.025-2.112-0.078-3.021h1.855l0.08,1.836h0.059
			c0.223-0.632,0.578-1.139,1.066-1.521c0.473-0.343,0.986-0.513,1.539-0.513c0.197,0,0.375,0.013,0.533,0.039V23.795z"/>
		<path style="fill:#FFFFFF;" d="M122.158,26.264c0,0.381-0.027,0.703-0.08,0.967h-6.396c0.025,0.947,0.336,1.672,0.928,2.172
			c0.539,0.447,1.238,0.672,2.094,0.672c0.947,0,1.809-0.152,2.586-0.455l0.336,1.48c-0.908,0.396-1.982,0.594-3.219,0.594
			c-1.488,0-2.656-0.438-3.504-1.314c-0.85-0.875-1.273-2.049-1.273-3.523c0-1.447,0.395-2.652,1.184-3.613
			c0.83-1.027,1.949-1.54,3.357-1.54c1.381,0,2.428,0.513,3.139,1.54C121.875,24.059,122.158,25.065,122.158,26.264z
			 M120.125,25.711c0.012-0.633-0.127-1.179-0.416-1.64c-0.367-0.593-0.934-0.888-1.697-0.888c-0.697,0-1.264,0.289-1.697,0.868
			c-0.355,0.461-0.566,1.014-0.633,1.659H120.125z"/>
	</g>
	<g>
		<g>
			<path style="fill:#FFFFFF;" d="M47.867,8.808c0,0.602-0.178,1.083-0.533,1.445c-0.459,0.472-1.129,0.708-2.008,0.708
				c-0.258,0-0.459-0.016-0.602-0.048v2.532h-1.047V6.994c0.498-0.09,1.068-0.136,1.711-0.136c0.83,0,1.455,0.178,1.877,0.534
				C47.666,7.741,47.867,8.213,47.867,8.808z M46.82,8.856c0-0.382-0.123-0.674-0.367-0.878s-0.586-0.306-1.023-0.306
				c-0.289,0-0.525,0.02-0.705,0.058v2.348c0.148,0.039,0.352,0.058,0.609,0.058c0.463,0,0.826-0.113,1.09-0.339
				C46.688,9.571,46.82,9.257,46.82,8.856z"/>
			<path style="fill:#FFFFFF;" d="M53.727,11.048c0,0.725-0.207,1.319-0.621,1.785c-0.434,0.479-1.008,0.718-1.727,0.718
				c-0.691,0-1.242-0.229-1.654-0.689c-0.41-0.459-0.615-1.038-0.615-1.736c0-0.73,0.211-1.329,0.635-1.794s0.994-0.698,1.713-0.698
				c0.691,0,1.248,0.229,1.668,0.688C53.525,9.768,53.727,10.344,53.727,11.048z M52.641,11.083c0-0.435-0.094-0.808-0.281-1.119
				c-0.221-0.376-0.533-0.564-0.941-0.564c-0.42,0-0.74,0.188-0.961,0.564c-0.188,0.311-0.281,0.69-0.281,1.138
				c0,0.435,0.094,0.808,0.281,1.119c0.227,0.376,0.543,0.564,0.951,0.564c0.4,0,0.715-0.191,0.941-0.574
				C52.543,11.893,52.641,11.517,52.641,11.083z"/>
			<path style="fill:#FFFFFF;" d="M59.77,11.02c0,0.795-0.221,1.429-0.66,1.901c-0.387,0.42-0.863,0.631-1.426,0.631
				c-0.672,0-1.168-0.278-1.484-0.834h-0.02l-0.057,0.728H55.23c0.025-0.381,0.037-0.805,0.037-1.271V6.567h1.049v2.852h0.02
				c0.311-0.524,0.811-0.786,1.504-0.786c0.568,0,1.031,0.218,1.391,0.655S59.77,10.302,59.77,11.02z M58.703,11.058
				c0-0.459-0.104-0.834-0.311-1.125c-0.227-0.317-0.535-0.476-0.922-0.476c-0.26,0-0.492,0.084-0.699,0.252
				s-0.346,0.391-0.416,0.669c-0.027,0.11-0.039,0.22-0.039,0.33v0.824c0,0.324,0.107,0.602,0.324,0.834s0.486,0.349,0.811,0.349
				c0.395,0,0.701-0.148,0.922-0.446C58.592,11.973,58.703,11.569,58.703,11.058z"/>
			<path style="fill:#FFFFFF;" d="M62.486,7.324c0,0.188-0.062,0.339-0.184,0.456c-0.123,0.117-0.281,0.175-0.477,0.175
				c-0.174,0-0.322-0.06-0.441-0.179s-0.18-0.27-0.18-0.451s0.062-0.33,0.186-0.446s0.273-0.175,0.455-0.175
				s0.334,0.059,0.457,0.175C62.424,6.994,62.486,7.143,62.486,7.324z M62.369,13.444h-1.047V8.73h1.047V13.444z"/>
			<path style="fill:#FFFFFF;" d="M68.111,10.864c0,0.188-0.014,0.346-0.039,0.475H64.93c0.014,0.466,0.164,0.821,0.455,1.067
				c0.266,0.22,0.609,0.33,1.029,0.33c0.465,0,0.889-0.074,1.271-0.223l0.164,0.728c-0.447,0.194-0.973,0.291-1.582,0.291
				c-0.73,0-1.305-0.215-1.721-0.645c-0.418-0.43-0.625-1.007-0.625-1.731c0-0.711,0.193-1.303,0.582-1.775
				c0.406-0.504,0.955-0.756,1.648-0.756c0.678,0,1.193,0.252,1.541,0.756C67.973,9.781,68.111,10.276,68.111,10.864z
				 M67.111,10.593c0.008-0.311-0.061-0.579-0.203-0.805c-0.182-0.291-0.459-0.437-0.834-0.437c-0.342,0-0.621,0.142-0.834,0.427
				c-0.174,0.227-0.277,0.498-0.311,0.815H67.111z"/>
			<path style="fill:#FFFFFF;" d="M72.127,9.652c-0.104-0.02-0.213-0.029-0.33-0.029c-0.369,0-0.652,0.139-0.854,0.417
				c-0.174,0.246-0.262,0.556-0.262,0.931v2.474h-1.049l0.01-3.23c0-0.543-0.012-1.038-0.037-1.484h0.91l0.039,0.902h0.029
				c0.109-0.311,0.285-0.56,0.523-0.747c0.234-0.168,0.486-0.252,0.758-0.252c0.096,0,0.184,0.006,0.262,0.019V9.652z"/>
			<path style="fill:#FFFFFF;" d="M76.83,13.444h-3.84v-0.611l1.881-2.473c0.117-0.155,0.33-0.411,0.641-0.767V9.574h-2.338V8.73
				h3.607v0.65l-1.842,2.435c-0.207,0.265-0.42,0.521-0.641,0.766v0.02h2.531V13.444z"/>
			<path style="fill:#FFFFFF;" d="M87.365,8.73l-1.475,4.714h-0.959l-0.611-2.047c-0.156-0.511-0.281-1.019-0.379-1.523h-0.02
				c-0.09,0.518-0.217,1.025-0.379,1.523l-0.648,2.047h-0.971L80.537,8.73h1.076l0.533,2.241c0.129,0.53,0.236,1.035,0.32,1.513
				h0.02c0.078-0.394,0.207-0.896,0.389-1.503l0.668-2.25h0.854l0.641,2.202c0.156,0.537,0.281,1.054,0.379,1.552h0.029
				c0.07-0.485,0.178-1.002,0.32-1.552l0.572-2.202H87.365z"/>
		</g>
	</g>
</g>
<g style="opacity:0.7;">
	<path style="fill:#666666;" d="M135,36c0,2.2-1.8,4-4,4H4c-2.2,0-4-1.8-4-4V4c0-2.2,1.8-4,4-4h127c2.2,0,4,1.8,4,4V36z"/>
</g>
<g>
	<polygon style="fill:#2B6DF8;" points="133.814,32.813 102.188,1.187 117.977,1.21 133.814,17.047 	"/>
	<g>
		<path style="fill:#FFFFFF;" d="M114.289,8.767c-0.589-0.589-0.748-0.538-0.327-1.25c0.394-0.668,0.759-1.437,1.26-2.033
			c-0.614,0.494-1.354,0.866-2.03,1.266c-0.082,0.048-0.532,0.388-0.606,0.313c-0.072-0.071-0.665-0.6-0.634-0.651
			c0.687-1.158,1.373-2.316,2.061-3.475c0.615,0.615,0.606,0.538,0.152,1.27c-0.428,0.688-0.836,1.396-1.325,2.042
			c0.499-0.407,1.079-0.712,1.633-1.037c0.527-0.31,0.956-0.858,1.422-0.393c0.444,0.444,0.004,0.745-0.298,1.258
			c-0.359,0.611-0.704,1.229-1.135,1.794c0.64-0.494,1.357-0.897,2.043-1.323c0.73-0.455,0.653-0.465,1.268,0.149
			C116.61,7.386,115.45,8.077,114.289,8.767z"/>
		<path style="fill:#FFFFFF;" d="M117.598,12.075c-0.251-0.25-0.708-0.497-0.622-0.865c0.132-0.567,0.265-1.133,0.396-1.7
			c-0.586-0.271-1.058,0.559-1.419,0.921c-0.094-0.094-0.633-0.545-0.554-0.624c0.271-0.271,0.541-0.541,0.811-0.811
			c0.644-0.643,1.287-1.287,1.931-1.93c0.234,0.235,0.715,0.461,0.438,0.738c-0.373,0.374-0.746,0.747-1.119,1.121
			c0.501-0.085,0.999-0.145,1.504-0.202c0.806-0.091,0.819-0.015,1.403,0.569c-0.258,0.03-2.167,0.124-2.201,0.278
			C117.976,10.404,117.787,11.24,117.598,12.075z"/>
		<path style="fill:#FFFFFF;" d="M119.621,11.966c-0.355,0.355-0.711,0.711-1.066,1.066c-0.094-0.094-0.632-0.544-0.553-0.623
			c0.271-0.271,0.541-0.541,0.811-0.811c0.644-0.644,1.286-1.288,1.93-1.931c0.421,0.42,0.941,0.841,1.251,1.354
			c0.581,0.96-0.388,2.019-1.415,1.615c-0.134,0.675-0.271,1.349-0.394,2.026c-0.479-0.479-0.687-0.513-0.536-1.157
			C119.764,13.01,120.175,12.293,119.621,11.966z M120.1,11.487c0.188,0.203,0.411,0.46,0.694,0.51
			c0.566,0.103,0.663-0.561,0.397-0.898C120.727,10.512,120.536,11.051,120.1,11.487z"/>
		<path style="fill:#FFFFFF;" d="M124.465,16.158c-1.871,1.875-4.512-0.774-2.639-2.647
			C123.692,11.645,126.333,14.29,124.465,16.158C124.006,16.618,124.926,15.697,124.465,16.158z M122.439,14.132
			c-1.184,1.184,0.202,2.616,1.408,1.41C125.057,14.333,123.623,12.948,122.439,14.132z M124.452,12.933
			c0.865-0.328,1.133-0.114,1.718,0.473C125.527,13.554,124.908,13.387,124.452,12.933z"/>
		<path style="fill:#FFFFFF;" d="M124.739,19.217c-0.067-0.067-0.601-0.577-0.578-0.6c0.265-0.265,0.529-0.529,0.794-0.794
			c0.244-0.244,1.615-1.348,1.363-1.6c-0.205-0.206-0.754-0.517-0.508-0.763c0.335-0.335,0.293-0.431,0.616-0.108
			c0.614,0.614,1.229,1.229,1.843,1.843c-0.082,0.082-0.453,0.527-0.522,0.458c-0.241-0.241-0.481-0.481-0.722-0.722
			C126.264,17.693,125.501,18.455,124.739,19.217z"/>
		<path style="fill:#FFFFFF;" d="M129.446,19.271c-0.697-0.697-1.685,0.096-2.041,0.76c-0.438,0.814,0.377,1.366,1.021,1.678
			c-0.152,0.152-0.305,0.305-0.457,0.457s-0.827-0.471-0.942-0.586c-0.84-0.842-0.612-1.883,0.175-2.67
			c0.692-0.692,1.713-0.958,2.532-0.31c0.386,0.305,0.658,0.728,0.819,1.189c-0.047,0.108-0.549,0.236-0.668,0.288
			C129.782,19.792,129.665,19.489,129.446,19.271C129.225,19.049,129.547,19.371,129.446,19.271z"/>
		<path style="fill:#FFFFFF;" d="M130.037,24.515c-0.381-0.381-0.762-0.762-1.143-1.143c-0.395-0.396-0.555-0.359-0.168-0.746
			c0.829-0.829,1.658-1.658,2.487-2.487c0.533,0.533,1.066,1.066,1.6,1.6c-0.565,0.565-0.493,0.473-1.057-0.092
			c-0.552-0.551-0.504-0.369-1.046,0.173c0.28,0.28,0.562,0.562,0.842,0.842c0.189,0.189-0.225,0.421-0.384,0.58
			c-0.305-0.305-0.609-0.609-0.914-0.914c-0.056-0.056-0.647,0.594-0.743,0.689c0.337,0.337,0.675,0.675,1.012,1.012
			C130.361,24.19,130.199,24.353,130.037,24.515z"/>
	</g>
</g>
<g>
</g>
<g>
</g>
<g>
</g>
<g>
</g>
<g>
</g>
<g>
</g>
<g>
</g>
<g>
</g>
<g>
</g>
<g>
</g>
<g>
</g>
<g>
</g>
<g>
</g>
<g>
</g>
<g>
</g>
<g>
</g>
<g>
</g>
</svg>
