<?xml version="1.0" encoding="iso-8859-1"?>
<!-- Generator: Adobe Illustrator 16.0.4, SVG Export Plug-In . SVG Version: 6.00 Build 0)  -->
<!DOCTYPE svg PUBLIC "-//W3C//DTD SVG 1.1//EN" "http://www.w3.org/Graphics/SVG/1.1/DTD/svg11.dtd">
<svg version="1.1" id="Layer_1" xmlns="http://www.w3.org/2000/svg" xmlns:xlink="http://www.w3.org/1999/xlink" x="0px" y="0px"
	 width="135px" height="40px" viewBox="0 0 135 40" style="enable-background:new 0 0 135 40;" xml:space="preserve">
<g>
	<path d="M-55.002,40h-125c-2.75,0-5-2.25-5-5V5c0-2.75,2.25-5,5-5h125c2.75,0,5,2.25,5,5v30C-50.002,37.75-52.252,40-55.002,40z"/>
</g>
<g>
	<g>
		<path style="fill:#A6A6A6;" d="M-55.002,0.8c2.316,0,4.2,1.884,4.2,4.2v30c0,2.316-1.884,4.2-4.2,4.2h-125
			c-2.316,0-4.2-1.884-4.2-4.2V5c0-2.316,1.884-4.2,4.2-4.2H-55.002 M-55.002,0h-125c-2.75,0-5,2.25-5,5v30c0,2.75,2.25,5,5,5h125
			c2.75,0,5-2.25,5-5V5C-50.002,2.25-52.252,0-55.002,0L-55.002,0z"/>
	</g>
</g>
<g>
	<path style="fill:#FFFFFF;stroke:#FFFFFF;stroke-width:0.2;stroke-miterlimit:10;" d="M-137.583,10.243
		c0,0.838-0.248,1.505-0.745,2.003c-0.564,0.592-1.3,0.888-2.204,0.888c-0.866,0-1.603-0.3-2.208-0.9
		c-0.606-0.601-0.909-1.345-0.909-2.233c0-0.889,0.303-1.633,0.909-2.233c0.605-0.601,1.342-0.901,2.208-0.901
		c0.43,0,0.841,0.084,1.231,0.251c0.391,0.168,0.704,0.391,0.938,0.67l-0.527,0.528c-0.397-0.475-0.944-0.712-1.643-0.712
		c-0.632,0-1.178,0.222-1.639,0.666s-0.691,1.021-0.691,1.73s0.23,1.286,0.691,1.73s1.007,0.666,1.639,0.666
		c0.67,0,1.229-0.223,1.676-0.67c0.29-0.291,0.458-0.696,0.503-1.215h-2.179V9.791h2.907
		C-137.597,9.947-137.583,10.098-137.583,10.243z"/>
	<path style="fill:#FFFFFF;stroke:#FFFFFF;stroke-width:0.2;stroke-miterlimit:10;" d="M-132.974,7.737h-2.732V9.64h2.464v0.721
		h-2.464v1.902h2.732V13h-3.503V7h3.503V7.737z"/>
	<path style="fill:#FFFFFF;stroke:#FFFFFF;stroke-width:0.2;stroke-miterlimit:10;" d="M-129.723,13h-0.771V7.737h-1.676V7h4.123
		v0.737h-1.676V13z"/>
	<path style="fill:#FFFFFF;stroke:#FFFFFF;stroke-width:0.2;stroke-miterlimit:10;" d="M-125.064,13V7h0.771v6H-125.064z"/>
	<path style="fill:#FFFFFF;stroke:#FFFFFF;stroke-width:0.2;stroke-miterlimit:10;" d="M-120.874,13h-0.771V7.737h-1.676V7h4.123
		v0.737h-1.676V13z"/>
	<path style="fill:#FFFFFF;stroke:#FFFFFF;stroke-width:0.2;stroke-miterlimit:10;" d="M-111.393,12.225
		c-0.59,0.606-1.323,0.909-2.2,0.909s-1.61-0.303-2.199-0.909c-0.59-0.606-0.884-1.348-0.884-2.225s0.294-1.619,0.884-2.225
		c0.589-0.606,1.322-0.91,2.199-0.91c0.872,0,1.604,0.305,2.196,0.914c0.592,0.609,0.888,1.349,0.888,2.221
		C-110.509,10.877-110.804,11.619-111.393,12.225z M-115.223,11.722c0.444,0.45,0.987,0.674,1.63,0.674s1.187-0.225,1.63-0.674
		c0.444-0.45,0.667-1.024,0.667-1.722s-0.223-1.272-0.667-1.722c-0.443-0.45-0.987-0.674-1.63-0.674s-1.186,0.225-1.63,0.674
		c-0.443,0.45-0.666,1.024-0.666,1.722S-115.666,11.272-115.223,11.722z"/>
	<path style="fill:#FFFFFF;stroke:#FFFFFF;stroke-width:0.2;stroke-miterlimit:10;" d="M-109.427,13V7h0.938l2.916,4.667h0.033
		l-0.033-1.156V7h0.771v6h-0.805l-3.051-4.894h-0.033l0.033,1.156V13H-109.427z"/>
</g>
<path style="fill:#FFFFFF;" d="M-116.866,21.752c-2.352,0-4.269,1.788-4.269,4.253c0,2.448,1.917,4.253,4.269,4.253
	c2.353,0,4.27-1.805,4.27-4.253C-112.597,23.54-114.514,21.752-116.866,21.752z M-116.866,28.582c-1.289,0-2.4-1.062-2.4-2.577
	c0-1.53,1.112-2.577,2.4-2.577c1.289,0,2.4,1.047,2.4,2.577C-114.466,27.52-115.577,28.582-116.866,28.582z M-126.18,21.752
	c-2.352,0-4.269,1.788-4.269,4.253c0,2.448,1.917,4.253,4.269,4.253c2.353,0,4.27-1.805,4.27-4.253
	C-121.91,23.54-123.827,21.752-126.18,21.752z M-126.18,28.582c-1.289,0-2.4-1.062-2.4-2.577c0-1.53,1.112-2.577,2.4-2.577
	c1.289,0,2.4,1.047,2.4,2.577C-123.779,27.52-124.891,28.582-126.18,28.582z M-137.258,23.057v1.805h4.318
	c-0.129,1.015-0.467,1.756-0.983,2.271c-0.628,0.628-1.611,1.32-3.335,1.32c-2.658,0-4.736-2.143-4.736-4.801
	c0-2.658,2.078-4.801,4.736-4.801c1.434,0,2.481,0.564,3.254,1.289l1.273-1.273c-1.08-1.031-2.513-1.82-4.527-1.82
	c-3.641,0-6.702,2.964-6.702,6.605s3.061,6.605,6.702,6.605c1.965,0,3.448-0.645,4.607-1.853c1.192-1.192,1.563-2.868,1.563-4.222
	c0-0.418-0.032-0.805-0.097-1.127H-137.258z M-91.95,24.458c-0.354-0.95-1.434-2.706-3.641-2.706c-2.191,0-4.012,1.724-4.012,4.253
	c0,2.384,1.805,4.253,4.221,4.253c1.949,0,3.077-1.191,3.545-1.885l-1.45-0.967c-0.483,0.709-1.144,1.176-2.095,1.176
	c-0.95,0-1.627-0.435-2.062-1.289l5.687-2.352L-91.95,24.458z M-97.75,25.876c-0.048-1.644,1.273-2.481,2.224-2.481
	c0.741,0,1.369,0.371,1.579,0.902L-97.75,25.876z M-102.373,30h1.868V17.499h-1.868V30z M-105.435,22.702h-0.064
	c-0.419-0.499-1.225-0.95-2.239-0.95c-2.127,0-4.076,1.869-4.076,4.27c0,2.384,1.949,4.236,4.076,4.236
	c1.015,0,1.82-0.451,2.239-0.967h0.064v0.612c0,1.628-0.87,2.497-2.271,2.497c-1.144,0-1.853-0.821-2.143-1.514l-1.627,0.676
	c0.467,1.128,1.707,2.514,3.77,2.514c2.191,0,4.044-1.289,4.044-4.431V22.01h-1.772V22.702z M-107.577,28.582
	c-1.289,0-2.368-1.079-2.368-2.561c0-1.499,1.079-2.594,2.368-2.594c1.272,0,2.271,1.095,2.271,2.594
	C-105.306,27.503-106.305,28.582-107.577,28.582z M-83.196,17.499h-4.471V30h1.865v-4.736h2.605c2.068,0,4.102-1.497,4.102-3.883
	C-79.095,18.996-81.128,17.499-83.196,17.499z M-83.147,23.523h-2.654v-4.285h2.654c1.395,0,2.187,1.155,2.187,2.142
	C-80.961,22.35-81.753,23.523-83.147,23.523z M-71.616,21.729c-1.351,0-2.75,0.596-3.329,1.914l1.656,0.691
	c0.354-0.691,1.014-0.916,1.705-0.916c0.965,0,1.946,0.578,1.962,1.607v0.129c-0.338-0.193-1.062-0.482-1.946-0.482
	c-1.785,0-3.603,0.98-3.603,2.814c0,1.673,1.464,2.75,3.104,2.75c1.254,0,1.946-0.562,2.38-1.223h0.064v0.966h1.802v-4.793
	C-67.82,22.967-69.478,21.729-71.616,21.729z M-71.842,28.58c-0.61,0-1.463-0.306-1.463-1.062c0-0.965,1.062-1.335,1.979-1.335
	c0.819,0,1.206,0.177,1.704,0.418C-69.767,27.76-70.764,28.58-71.842,28.58z M-61.259,22.002l-2.139,5.42h-0.064l-2.22-5.42h-2.01
	l3.329,7.575l-1.898,4.214h1.946l5.131-11.789H-61.259z M-78.065,30h1.865V17.499h-1.865V30z"/>
<g>
	
		<linearGradient id="SVGID_1_" gradientUnits="userSpaceOnUse" x1="-163.2017" y1="33.29" x2="-179.9837" y2="16.508" gradientTransform="matrix(1 0 0 -1 0 42)">
		<stop  offset="0" style="stop-color:#00A0FF"/>
		<stop  offset="0.0066" style="stop-color:#00A1FF"/>
		<stop  offset="0.2601" style="stop-color:#00BEFF"/>
		<stop  offset="0.5122" style="stop-color:#00D2FF"/>
		<stop  offset="0.7604" style="stop-color:#00DFFF"/>
		<stop  offset="1" style="stop-color:#00E3FF"/>
	</linearGradient>
	<path style="fill:url(#SVGID_1_);" d="M-174.566,7.538c-0.291,0.308-0.463,0.786-0.463,1.405v22.116
		c0,0.62,0.172,1.098,0.463,1.405l0.074,0.072l12.389-12.389v-0.146v-0.146l-12.389-12.39L-174.566,7.538z"/>
	
		<linearGradient id="SVGID_2_" gradientUnits="userSpaceOnUse" x1="-151.1685" y1="21.999" x2="-175.3643" y2="21.999" gradientTransform="matrix(1 0 0 -1 0 42)">
		<stop  offset="0" style="stop-color:#FFE000"/>
		<stop  offset="0.4087" style="stop-color:#FFBD00"/>
		<stop  offset="0.7754" style="stop-color:#FFA500"/>
		<stop  offset="1" style="stop-color:#FF9C00"/>
	</linearGradient>
	<path style="fill:url(#SVGID_2_);" d="M-157.974,24.278l-4.129-4.131v-0.146v-0.146l4.13-4.13l0.093,0.053l4.893,2.78
		c1.397,0.794,1.397,2.093,0,2.888l-4.893,2.78L-157.974,24.278z"/>
	
		<linearGradient id="SVGID_3_" gradientUnits="userSpaceOnUse" x1="-160.1743" y1="19.7046" x2="-182.9328" y2="-3.0539" gradientTransform="matrix(1 0 0 -1 0 42)">
		<stop  offset="0" style="stop-color:#FF3A44"/>
		<stop  offset="1" style="stop-color:#C31162"/>
	</linearGradient>
	<path style="fill:url(#SVGID_3_);" d="M-157.88,24.225l-4.224-4.224l-12.463,12.463c0.46,0.487,1.221,0.548,2.078,0.062
		L-157.88,24.225"/>
	
		<linearGradient id="SVGID_4_" gradientUnits="userSpaceOnUse" x1="-177.7036" y1="41.8242" x2="-167.5413" y2="31.6619" gradientTransform="matrix(1 0 0 -1 0 42)">
		<stop  offset="0" style="stop-color:#32A071"/>
		<stop  offset="0.0685" style="stop-color:#2DA771"/>
		<stop  offset="0.4762" style="stop-color:#15CF74"/>
		<stop  offset="0.8009" style="stop-color:#06E775"/>
		<stop  offset="1" style="stop-color:#00F076"/>
	</linearGradient>
	<path style="fill:url(#SVGID_4_);" d="M-157.88,15.777l-14.608-8.3c-0.857-0.487-1.618-0.426-2.078,0.062l12.463,12.463
		L-157.88,15.777z"/>
	<g>
		<path style="opacity:0.2;enable-background:new    ;" d="M-157.973,24.132l-14.515,8.247c-0.812,0.461-1.538,0.431-2.004,0.012
			l0,0l-0.074,0.074l0,0l0.074,0.072l0-0.001c0.466,0.42,1.192,0.451,2.004-0.011l14.608-8.301L-157.973,24.132z"/>
		<path style="opacity:0.12;enable-background:new    ;" d="M-174.566,32.318c-0.291-0.309-0.463-0.785-0.463-1.404v0.146
			c0,0.619,0.172,1.097,0.463,1.405l0.074-0.074L-174.566,32.318z"/>
	</g>
	<path style="opacity:0.12;enable-background:new    ;" d="M-152.987,21.299l-4.986,2.833l0.093,0.093l4.893-2.779
		c0.699-0.397,1.048-0.921,1.048-1.444l0,0C-151.998,20.475-152.354,20.938-152.987,21.299z"/>
	<path style="opacity:0.25;fill:#FFFFFF;enable-background:new    ;" d="M-172.488,7.623l19.501,11.08
		c0.634,0.36,0.989,0.824,1.048,1.298l0,0c0-0.523-0.349-1.047-1.048-1.444l-19.501-11.08c-1.398-0.794-2.541-0.134-2.541,1.466
		v0.146C-175.029,7.489-173.886,6.829-172.488,7.623z"/>
</g>
<g>
	<path d="M130,40H5c-2.75,0-5-2.25-5-5V5c0-2.75,2.25-5,5-5h125c2.75,0,5,2.25,5,5v30C135,37.75,132.75,40,130,40z"/>
</g>
<g>
	<g>
		<path style="fill:#A6A6A6;" d="M130,0.8c2.316,0,4.2,1.884,4.2,4.2v30c0,2.316-1.884,4.2-4.2,4.2H5
			c-2.316,0-4.199-1.884-4.199-4.2V5c0-2.316,1.883-4.2,4.199-4.2H130 M130,0H5C2.25,0,0,2.25,0,5v30c0,2.75,2.25,5,5,5h125
			c2.75,0,5-2.25,5-5V5C135,2.25,132.75,0,130,0L130,0z"/>
	</g>
</g>
<path style="fill:#FFFFFF;" d="M68.136,21.752c-2.353,0-4.269,1.788-4.269,4.253c0,2.448,1.916,4.253,4.269,4.253
	s4.27-1.805,4.27-4.253C72.405,23.54,70.488,21.752,68.136,21.752z M68.136,28.582c-1.288,0-2.4-1.062-2.4-2.577
	c0-1.53,1.112-2.577,2.4-2.577c1.289,0,2.4,1.047,2.4,2.577C70.536,27.52,69.425,28.582,68.136,28.582z M58.822,21.752
	c-2.352,0-4.27,1.788-4.27,4.253c0,2.448,1.918,4.253,4.27,4.253c2.353,0,4.27-1.805,4.27-4.253
	C63.092,23.54,61.175,21.752,58.822,21.752z M58.822,28.582c-1.289,0-2.4-1.062-2.4-2.577c0-1.53,1.111-2.577,2.4-2.577
	s2.4,1.047,2.4,2.577C61.223,27.52,60.111,28.582,58.822,28.582z M47.744,23.057v1.805h4.317c-0.129,1.015-0.468,1.756-0.983,2.271
	c-0.628,0.628-1.611,1.32-3.334,1.32c-2.658,0-4.736-2.143-4.736-4.801s2.078-4.801,4.736-4.801c1.434,0,2.48,0.564,3.254,1.289
	l1.273-1.273c-1.08-1.03-2.514-1.82-4.527-1.82c-3.642,0-6.703,2.965-6.703,6.605s3.062,6.605,6.703,6.605
	c1.965,0,3.447-0.645,4.607-1.853c1.191-1.192,1.562-2.868,1.562-4.222c0-0.418-0.032-0.805-0.097-1.127H47.744z M93.052,24.458
	c-0.354-0.95-1.434-2.706-3.641-2.706c-2.191,0-4.012,1.724-4.012,4.253c0,2.384,1.805,4.253,4.221,4.253
	c1.949,0,3.077-1.191,3.545-1.885l-1.45-0.967c-0.483,0.709-1.144,1.176-2.095,1.176c-0.95,0-1.627-0.435-2.062-1.289l5.687-2.352
	L93.052,24.458z M87.252,25.876c-0.048-1.644,1.273-2.481,2.224-2.481c0.741,0,1.369,0.371,1.579,0.902L87.252,25.876z M82.629,30
	h1.868V17.498h-1.868V30z M79.567,22.702h-0.064c-0.419-0.499-1.225-0.95-2.239-0.95c-2.127,0-4.076,1.869-4.076,4.27
	c0,2.384,1.949,4.236,4.076,4.236c1.015,0,1.82-0.451,2.239-0.967h0.064v0.612c0,1.628-0.87,2.497-2.271,2.497
	c-1.144,0-1.853-0.821-2.143-1.514l-1.627,0.676c0.467,1.128,1.707,2.514,3.77,2.514c2.191,0,4.044-1.289,4.044-4.431V22.01h-1.772
	V22.702z M77.425,28.582c-1.289,0-2.368-1.079-2.368-2.561c0-1.499,1.079-2.594,2.368-2.594c1.272,0,2.271,1.095,2.271,2.594
	C79.696,27.503,78.697,28.582,77.425,28.582z M101.806,17.498h-4.471V30H99.2v-4.736h2.605c2.068,0,4.102-1.497,4.102-3.883
	C105.907,18.996,103.874,17.498,101.806,17.498z M101.854,23.523H99.2v-4.285h2.654c1.395,0,2.187,1.155,2.187,2.143
	C104.041,22.35,103.249,23.523,101.854,23.523z M113.386,21.729c-1.351,0-2.75,0.596-3.329,1.914l1.656,0.691
	c0.354-0.691,1.014-0.916,1.705-0.916c0.965,0,1.946,0.578,1.962,1.607v0.129c-0.338-0.193-1.062-0.482-1.946-0.482
	c-1.785,0-3.603,0.98-3.603,2.814c0,1.673,1.464,2.75,3.104,2.75c1.254,0,1.946-0.562,2.38-1.223h0.064v0.966h1.802v-4.793
	C117.182,22.967,115.524,21.729,113.386,21.729z M113.16,28.58c-0.61,0-1.463-0.306-1.463-1.062c0-0.965,1.062-1.335,1.979-1.335
	c0.819,0,1.206,0.177,1.704,0.418C115.235,27.76,114.238,28.58,113.16,28.58z M123.743,22.002l-2.139,5.42h-0.064l-2.22-5.42h-2.01
	l3.329,7.575l-1.898,4.214h1.946l5.131-11.789H123.743z M106.937,30h1.865V17.498h-1.865V30z"/>
<g>
	
		<linearGradient id="SVGID_5_" gradientUnits="userSpaceOnUse" x1="21.8008" y1="33.291" x2="5.0188" y2="16.509" gradientTransform="matrix(1 0 0 -1 0 42)">
		<stop  offset="0" style="stop-color:#00A0FF"/>
		<stop  offset="0.0066" style="stop-color:#00A1FF"/>
		<stop  offset="0.2601" style="stop-color:#00BEFF"/>
		<stop  offset="0.5122" style="stop-color:#00D2FF"/>
		<stop  offset="0.7604" style="stop-color:#00DFFF"/>
		<stop  offset="1" style="stop-color:#00E3FF"/>
	</linearGradient>
	<path style="fill:url(#SVGID_5_);" d="M10.436,7.538c-0.291,0.308-0.463,0.786-0.463,1.405v22.116c0,0.62,0.172,1.098,0.463,1.405
		l0.074,0.072l12.389-12.39v-0.146v-0.146L10.51,7.465L10.436,7.538z"/>
	
		<linearGradient id="SVGID_6_" gradientUnits="userSpaceOnUse" x1="33.833" y1="21.999" x2="9.6372" y2="21.999" gradientTransform="matrix(1 0 0 -1 0 42)">
		<stop  offset="0" style="stop-color:#FFE000"/>
		<stop  offset="0.4087" style="stop-color:#FFBD00"/>
		<stop  offset="0.7754" style="stop-color:#FFA500"/>
		<stop  offset="1" style="stop-color:#FF9C00"/>
	</linearGradient>
	<path style="fill:url(#SVGID_6_);" d="M27.027,24.278l-4.129-4.132v-0.146v-0.146l4.131-4.131l0.093,0.053l4.893,2.78
		c1.397,0.794,1.397,2.093,0,2.888l-4.893,2.78L27.027,24.278z"/>
	
		<linearGradient id="SVGID_7_" gradientUnits="userSpaceOnUse" x1="24.8281" y1="19.7051" x2="2.0696" y2="-3.0534" gradientTransform="matrix(1 0 0 -1 0 42)">
		<stop  offset="0" style="stop-color:#FF3A44"/>
		<stop  offset="1" style="stop-color:#C31162"/>
	</linearGradient>
	<path style="fill:url(#SVGID_7_);" d="M27.122,24.225l-4.224-4.224L10.436,32.464c0.461,0.487,1.221,0.548,2.078,0.062
		L27.122,24.225"/>
	
		<linearGradient id="SVGID_8_" gradientUnits="userSpaceOnUse" x1="7.2979" y1="41.8252" x2="17.4607" y2="31.6623" gradientTransform="matrix(1 0 0 -1 0 42)">
		<stop  offset="0" style="stop-color:#32A071"/>
		<stop  offset="0.0685" style="stop-color:#2DA771"/>
		<stop  offset="0.4762" style="stop-color:#15CF74"/>
		<stop  offset="0.8009" style="stop-color:#06E775"/>
		<stop  offset="1" style="stop-color:#00F076"/>
	</linearGradient>
	<path style="fill:url(#SVGID_8_);" d="M27.122,15.777L12.514,7.477c-0.857-0.487-1.617-0.426-2.078,0.062l12.463,12.463
		L27.122,15.777z"/>
	<g>
		<path style="opacity:0.2;enable-background:new    ;" d="M27.029,24.132l-14.516,8.247c-0.812,0.461-1.538,0.431-2.004,0.012l0,0
			l-0.074,0.074l0,0l0.074,0.072v-0.001c0.466,0.42,1.191,0.451,2.004-0.011l14.608-8.301L27.029,24.132z"/>
		<path style="opacity:0.12;enable-background:new    ;" d="M10.436,32.318c-0.291-0.309-0.463-0.785-0.463-1.404v0.146
			c0,0.619,0.172,1.097,0.463,1.405l0.074-0.074L10.436,32.318z"/>
	</g>
	<path style="opacity:0.12;enable-background:new    ;" d="M32.015,21.299l-4.985,2.833l0.093,0.093l4.893-2.779
		c0.698-0.397,1.048-0.921,1.048-1.443l0,0C33.004,20.475,32.648,20.938,32.015,21.299z"/>
	<path style="opacity:0.25;fill:#FFFFFF;enable-background:new    ;" d="M12.514,7.623l19.501,11.08
		c0.634,0.359,0.989,0.824,1.048,1.298l0,0c0.001-0.522-0.349-1.047-1.048-1.444L12.514,7.477c-1.398-0.794-2.541-0.134-2.541,1.466
		v0.146C9.973,7.489,11.115,6.829,12.514,7.623z"/>
</g>
<path style="fill:#FFFFFF;stroke:#FFFFFF;stroke-width:0.2;stroke-miterlimit:10;" d="M42.174,13h-0.771V7h2.045
	c0.508,0,0.949,0.169,1.32,0.507s0.557,0.764,0.557,1.278c0,0.514-0.186,0.939-0.557,1.277c-0.371,0.338-0.812,0.507-1.32,0.507
	h-1.273V13z M42.174,9.832h1.291c0.324,0,0.584-0.108,0.779-0.326c0.195-0.218,0.293-0.458,0.293-0.721s-0.098-0.503-0.293-0.721
	c-0.195-0.218-0.455-0.327-0.779-0.327h-1.291V9.832z"/>
<path style="fill:#FFFFFF;stroke:#FFFFFF;stroke-width:0.2;stroke-miterlimit:10;" d="M51.203,12.225
	c-0.59,0.606-1.322,0.909-2.199,0.909s-1.611-0.303-2.199-0.909c-0.59-0.605-0.885-1.348-0.885-2.225s0.295-1.619,0.885-2.225
	c0.588-0.606,1.322-0.91,2.199-0.91c0.871,0,1.604,0.305,2.195,0.914S52.088,9.128,52.088,10
	C52.088,10.877,51.793,11.619,51.203,12.225z M47.373,11.723c0.445,0.449,0.988,0.674,1.631,0.674s1.186-0.225,1.629-0.674
	c0.445-0.45,0.668-1.024,0.668-1.723s-0.223-1.272-0.668-1.722c-0.443-0.45-0.986-0.674-1.629-0.674s-1.186,0.225-1.631,0.674
	C46.93,8.728,46.707,9.302,46.707,10S46.93,11.272,47.373,11.723z"/>
<path style="fill:#FFFFFF;stroke:#FFFFFF;stroke-width:0.2;stroke-miterlimit:10;" d="M53.168,13V7h2.17
	c0.471,0,0.877,0.155,1.221,0.465c0.344,0.311,0.516,0.7,0.516,1.169c0,0.285-0.074,0.537-0.223,0.754
	c-0.148,0.218-0.346,0.383-0.592,0.495v0.033c0.297,0.101,0.539,0.274,0.73,0.52c0.189,0.246,0.285,0.531,0.285,0.855
	c0,0.491-0.182,0.898-0.541,1.223C56.373,12.838,55.947,13,55.455,13H53.168z M53.939,9.572h1.398c0.291,0,0.525-0.096,0.701-0.289
	c0.176-0.192,0.264-0.403,0.264-0.632s-0.086-0.439-0.256-0.628c-0.17-0.19-0.395-0.285-0.674-0.285h-1.434V9.572z M53.939,12.263
	h1.551c0.295,0,0.535-0.104,0.721-0.311c0.184-0.206,0.275-0.433,0.275-0.679s-0.094-0.47-0.285-0.674
	c-0.189-0.204-0.438-0.306-0.746-0.306h-1.516V12.263z"/>
<path style="fill:#FFFFFF;stroke:#FFFFFF;stroke-width:0.2;stroke-miterlimit:10;" d="M58.314,13V7h0.77v6H58.314z"/>
<path style="fill:#FFFFFF;stroke:#FFFFFF;stroke-width:0.2;stroke-miterlimit:10;" d="M63.961,7.737h-2.732V9.64h2.465v0.721h-2.465
	v1.902h2.732V13h-3.502V7h3.502V7.737z"/>
<path style="fill:#FFFFFF;stroke:#FFFFFF;stroke-width:0.2;stroke-miterlimit:10;" d="M65.168,13V7h2.045
	c0.508,0,0.949,0.169,1.32,0.507s0.557,0.764,0.557,1.278c0,0.419-0.137,0.789-0.41,1.11s-0.615,0.523-1.023,0.607l-0.016,0.025
	l1.684,2.439V13h-0.912l-1.617-2.43h-0.855V13H65.168z M65.939,9.849h1.24c0.307,0,0.57-0.101,0.791-0.302
	c0.221-0.201,0.332-0.455,0.332-0.762c0-0.263-0.098-0.503-0.293-0.721c-0.195-0.218-0.455-0.327-0.779-0.327h-1.291V9.849z"/>
<path style="fill:#FFFFFF;stroke:#FFFFFF;stroke-width:0.2;stroke-miterlimit:10;" d="M69.846,13v-0.805l3.191-4.458h-3.059V7h3.955
	v0.805l-3.191,4.458h3.227V13H69.846z"/>
<path style="fill:#FFFFFF;stroke:#FFFFFF;stroke-width:0.2;stroke-miterlimit:10;" d="M76.75,13v-0.805l3.193-4.458h-3.059V7h3.955
	v0.805l-3.193,4.458h3.227V13H76.75z"/>
<g>
</g>
<g>
</g>
<g>
</g>
<g>
</g>
<g>
</g>
<g>
</g>
<g>
</g>
<g>
</g>
<g>
</g>
<g>
</g>
<g>
</g>
<g>
</g>
<g>
</g>
<g>
</g>
<g>
</g>
</svg>
