<?xml version="1.0" encoding="iso-8859-1"?>
<!-- Generator: Adobe Illustrator 16.0.4, SVG Export Plug-In . SVG Version: 6.00 Build 0)  -->
<!DOCTYPE svg PUBLIC "-//W3C//DTD SVG 1.1//EN" "http://www.w3.org/Graphics/SVG/1.1/DTD/svg11.dtd">
<svg version="1.1" id="Layer_1" xmlns="http://www.w3.org/2000/svg" xmlns:xlink="http://www.w3.org/1999/xlink" x="0px" y="0px"
	 width="300px" height="20px" viewBox="0 0 300 20" style="enable-background:new 0 0 300 20;" xml:space="preserve">
<path style="fill-rule:evenodd;clip-rule:evenodd;fill:#FFFFFF;" d="M10,0.247c-5.521,0-10,4.479-10,10.001
	c0,4.418,2.865,8.166,6.839,9.488c0.499,0.093,0.682-0.216,0.682-0.481c0-0.238-0.008-0.866-0.013-1.702
	c-2.782,0.605-3.369-1.34-3.369-1.34c-0.455-1.154-1.11-1.463-1.11-1.463c-0.908-0.619,0.069-0.607,0.069-0.607
	c1.003,0.07,1.532,1.03,1.532,1.03c0.892,1.528,2.341,1.087,2.91,0.832c0.091-0.646,0.35-1.088,0.636-1.338
	C5.954,14.415,3.62,13.558,3.62,9.725c0-1.091,0.39-1.984,1.029-2.683c-0.104-0.253-0.446-1.27,0.098-2.647
	c0,0,0.839-0.269,2.75,1.026C8.295,5.199,9.15,5.087,10,5.083c0.85,0.003,1.705,0.115,2.503,0.337
	c1.911-1.294,2.749-1.026,2.749-1.026c0.545,1.377,0.202,2.394,0.099,2.647c0.639,0.699,1.027,1.592,1.027,2.683
	c0,3.842-2.337,4.688-4.565,4.934c0.359,0.311,0.679,0.92,0.679,1.854c0,1.336-0.012,2.413-0.012,2.742
	c0,0.267,0.18,0.578,0.687,0.481C17.139,18.411,20,14.665,20,10.248C20,4.725,15.523,0.247,10,0.247z"/>
<path style="fill:#FFFFFF;" d="M39.689,2.858c-0.001,0-0.002,0-0.003-0.001l0.002-0.003L34.968,0.14
	c-0.146-0.084-0.326-0.084-0.474-0.001L29.966,2.72l-4.509-2.654c-0.15-0.088-0.336-0.087-0.486,0.001L20.441,2.78
	c-0.044,0.01-0.091,0.012-0.131,0.035c-0.147,0.085-0.238,0.242-0.238,0.412v5.429c0,0.169,0.09,0.326,0.236,0.411l4.49,2.614
	l-0.02,5.169c0,0.174,0.094,0.334,0.245,0.419l4.639,2.568c0.031,0.034,0.055,0.073,0.095,0.096C29.832,19.978,29.916,20,30,20
	c0.079,0,0.159-0.02,0.23-0.06l4.743-2.627c0.152-0.085,0.247-0.245,0.246-0.419l-0.018-5.169l4.489-2.614
	c0.146-0.085,0.236-0.242,0.236-0.412V3.271C39.928,3.101,39.836,2.943,39.689,2.858z M25.218,1.03l4.504,2.65
	c0.074,0.044,0.157,0.066,0.241,0.066c0.081,0,0.162-0.021,0.235-0.062l4.531-2.583l3.771,2.169l-8.464,4.886l-8.512-4.915
	L25.218,1.03z M25.516,10.997l-4.491-2.615v-4.33l8.499,4.908v9.712l-3.791-2.099l0.02-5.163
	C25.753,11.24,25.662,11.083,25.516,10.997z M38.976,8.426l-4.491,2.615c-0.146,0.085-0.236,0.242-0.235,0.413l0.018,5.162
	l-3.791,2.1V9.002l8.5-4.907V8.426z"/>
<g>
	<path style="fill:#FFFFFF;" d="M52.549,10.359c0.102-0.001,0.184-0.084,0.184-0.187v-0.002c-0.002-0.104-0.088-0.186-0.189-0.184
		c-0.104,0-0.186,0.086-0.186,0.188l0,0c0.002,0.103,0.086,0.185,0.189,0.184H52.549z M47.4,13.944l0.877-0.788
		c0.074-0.068,0.176-0.103,0.275-0.094l1.492,0.113l1.387-0.294c0.1-0.021,0.201-0.001,0.285,0.057l1.021,0.697l1.039,0.104
		c0.107-0.264,0.193-0.535,0.258-0.812c-0.018-0.001-0.035-0.002-0.053-0.005l-2.85-0.391c-0.139-0.018-0.256-0.113-0.299-0.246
		l-0.508-1.465c-0.066-0.046-0.393-0.021-0.545,0.057l-0.514,1.44c-0.043,0.118-0.143,0.208-0.266,0.235l-2.795,0.645
		c-0.018,0.004-0.035,0.006-0.055,0.008c0.102,0.334,0.236,0.663,0.402,0.979L47.4,13.944z M47.678,10.127
		c-0.102,0-0.184,0.083-0.182,0.183v0.008c0.002,0.102,0.086,0.183,0.188,0.182c0.002,0,0.004-0.001,0.004-0.001
		c0.104-0.003,0.184-0.089,0.182-0.19C47.865,10.204,47.779,10.124,47.678,10.127z M50.348,16.133
		c-0.055,0.108-0.158,0.183-0.279,0.2l-0.932,0.133c0.299,0.088,0.607,0.133,0.918,0.134c0.422-0.003,0.84-0.087,1.23-0.249
		L50.5,15.826L50.348,16.133z"/>
	<path style="fill:#FFFFFF;" d="M54.01,14.504l-1.438-0.144c-0.062-0.005-0.121-0.026-0.172-0.062l-0.969-0.661l-1.285,0.272
		c-0.033,0.008-0.068,0.01-0.104,0.007l-1.389-0.106l-0.824,0.741c-0.041,0.037-0.092,0.064-0.145,0.08l-1.494,0.422
		c-0.064,0.019-0.133,0.02-0.197,0.002l0.869,0.988l2.91-0.416l0.254-0.507c0.047-0.095,0.133-0.164,0.234-0.192
		c0.104-0.029,0.213-0.012,0.301,0.051l1.098,0.733l2.443-0.564l0.52-0.838l-0.441,0.169C54.127,14.501,54.068,14.509,54.01,14.504z
		 M55.211,7.516h-0.004c-0.078,0-0.154-0.025-0.217-0.071c-0.967-0.303-1.961-0.514-2.967-0.631
		c-0.203-0.024-0.348-0.207-0.324-0.41l0,0c0.018-0.197,0.193-0.344,0.391-0.326c0.006,0.001,0.014,0.002,0.02,0.003
		c0.873,0.102,1.736,0.271,2.584,0.507C54.107,4.808,52.23,3.53,50.066,3.53c-2.16,0-4.039,1.277-4.627,3.055
		c0.77-0.213,1.555-0.372,2.346-0.475c0.203-0.018,0.383,0.134,0.4,0.338c0.016,0.189-0.115,0.361-0.305,0.395
		c-0.941,0.123-1.871,0.328-2.777,0.612c-0.037,0.021-0.076,0.032-0.117,0.037c-0.309,0.101-0.615,0.209-0.916,0.328
		c-0.035,0.166-0.057,0.417-0.02,0.784c0.025,0.253,0.072,0.476,0.143,0.665c3.809-0.961,7.928-0.963,11.744-0.001
		c0.068-0.188,0.117-0.411,0.143-0.664c0.031-0.312,0.023-0.58-0.02-0.784C55.781,7.71,55.498,7.609,55.211,7.516z M51.217,7.131
		v0.923c0,0.204-0.166,0.369-0.369,0.369h-1.512c-0.203,0-0.369-0.165-0.369-0.369V7.131c0-0.175,0.121-0.325,0.293-0.362V6.212
		H48.57c-0.203-0.001-0.369-0.166-0.369-0.37V4.62c0-0.203,0.166-0.369,0.369-0.369h3.043c0.203,0,0.369,0.166,0.369,0.369v1.222
		c0,0.204-0.166,0.37-0.369,0.37h-0.691v0.557C51.094,6.805,51.217,6.956,51.217,7.131z"/>
	<path style="fill:#FFFFFF;" d="M51.117,5.472h0.127V4.99h-2.303v0.481h0.123c0.008-0.198,0.172-0.355,0.369-0.355h0.195
		c0.203,0,0.369,0.166,0.369,0.37v1.645c0,0.178-0.125,0.327-0.293,0.361v0.192h0.773V7.492c-0.172-0.035-0.295-0.187-0.295-0.361
		V5.486c0-0.204,0.166-0.37,0.369-0.37h0.195C50.947,5.116,51.111,5.273,51.117,5.472z"/>
	<path style="fill:#FFFFFF;" d="M50,0c-5.523,0-10,4.478-10,10.001C40,15.522,44.477,20,50,20c5.521,0,10-4.478,10-9.999
		C60,4.478,55.521,0,50,0z M56.814,8.678c-0.049,0.481-0.168,0.89-0.355,1.21c-0.082,0.145-0.254,0.215-0.414,0.171l-0.104-0.027
		l-0.543,1.911c-0.021,0.089-0.074,0.168-0.15,0.22l-0.395,0.275c0.006,0.036,0.006,0.073,0.002,0.109
		c-0.045,0.327-0.115,0.648-0.209,0.964l0.734-0.283c0.189-0.074,0.404,0.02,0.479,0.209c0.041,0.108,0.029,0.23-0.031,0.33
		l-1.178,1.901c-0.053,0.084-0.135,0.144-0.232,0.165l-1.457,0.337c-0.824,0.73-1.842,1.168-2.906,1.168
		c-0.824,0-1.584-0.258-2.246-0.684l-1.037,0.147c-0.125,0.018-0.248-0.027-0.33-0.121l-2.066-2.348
		c-0.137-0.152-0.123-0.385,0.029-0.521c0.105-0.096,0.26-0.121,0.391-0.063l0.918,0.39c-0.191-0.428-0.332-0.878-0.416-1.34
		c-0.008-0.042-0.008-0.084,0-0.125l-0.43-0.324c-0.078-0.059-0.129-0.146-0.143-0.244l-0.357-2.117
		c-0.094,0.025-0.189,0.049-0.283,0.074c-0.16,0.043-0.332-0.028-0.414-0.173c-0.188-0.322-0.307-0.73-0.354-1.212
		c-0.051-0.513-0.018-0.938,0.104-1.261c0.035-0.099,0.109-0.177,0.207-0.216c0.322-0.131,0.65-0.252,0.98-0.361
		c0.49-2.324,2.793-4.047,5.459-4.047c2.674,0,4.971,1.723,5.461,4.049C55.855,6.95,56.182,7.07,56.5,7.199
		c0.098,0.039,0.172,0.116,0.209,0.214C56.83,7.738,56.865,8.163,56.814,8.678z"/>
	<path style="fill:#FFFFFF;" d="M45.088,9.818l0.348,2.034l0.775,0.586l2.43-0.56l0.488-1.374c0.027-0.07,0.072-0.13,0.133-0.174
		c0.041-0.03,0.418-0.293,0.887-0.293c0.553,0,0.791,0.354,0.818,0.396l0.488,1.396l2.484,0.341l0.771-0.534l0.514-1.779
		C51.889,9.111,48.43,9.097,45.088,9.818z M47.586,11.343h-0.104c-0.043,0-0.08,0.002-0.119,0c-0.355,0-0.582-0.015-0.783,0.092
		c0.006-0.012,0.096-0.206,0.412-0.288c-0.041-0.106-0.062-0.221-0.062-0.336c-0.021-0.571,0.332-1.042,0.697-1.046
		c0.365-0.003,0.619,0.461,0.627,1.034C48.258,11.375,47.953,11.339,47.586,11.343z M52.576,9.623
		c0.367-0.011,0.701,0.442,0.744,1.014c0.012,0.159-0.006,0.276-0.043,0.36c0.338-0.041,0.416,0.191,0.418,0.203
		c-0.246-0.119-0.516,0.033-1.004,0.041c-0.369,0.013-0.672,0.018-0.693-0.556C51.977,10.11,52.213,9.637,52.576,9.623z"/>
</g>
<g>
	<circle style="fill:#CCCCCC;" cx="90" cy="5.018" r="4.516"/>
	<path style="fill:#CCCCCC;" d="M92.103,10.779h-4.205c-2.653,0-4.805,2.151-4.805,4.806V19.5h13.815v-3.915
		C96.908,12.931,94.757,10.779,92.103,10.779z"/>
</g>
<g>
	<path style="fill:#CCCCCC;" d="M130.495,13.129c-0.145,0.115-0.321,0.172-0.495,0.172c-0.175,0-0.352-0.057-0.496-0.172
		l-8.617-6.894v7.597c0,1.75,1.419,3.168,3.17,3.168h11.887c1.75,0,3.17-1.418,3.17-3.168V6.235L130.495,13.129z"/>
	<path style="fill:#CCCCCC;" d="M130,11.494l8.67-6.934C138.117,3.627,137.105,3,135.943,3h-11.887c-1.162,0-2.175,0.627-2.727,1.56
		L130,11.494z"/>
</g>
<path style="fill:#CCCCCC;" d="M178.857,8.718C178.857,4.456,174.892,1,170,1c-4.891,0-8.857,3.456-8.857,7.718
	s3.967,7.719,8.857,7.719c0.89,0,1.748-0.117,2.559-0.33c0.742,1.702,2.436,2.894,4.411,2.894c0.063,0,0.124-0.007,0.188-0.01
	c-0.984-1.136-1.625-2.576-1.764-4.16C177.497,13.419,178.857,11.209,178.857,8.718z"/>
<g>
	<circle style="fill:#2A6CF7;" cx="110" cy="5.018" r="4.516"/>
	<path style="fill:#2A6CF7;" d="M112.102,10.779h-4.205c-2.652,0-4.805,2.151-4.805,4.806V19.5h13.816v-3.915
		C116.908,12.931,114.756,10.779,112.102,10.779z"/>
</g>
<g>
	<path style="fill:#2A6CF7;" d="M150.494,13.129c-0.145,0.115-0.32,0.172-0.494,0.172c-0.176,0-0.352-0.057-0.496-0.172
		l-8.617-6.894v7.597c0,1.75,1.418,3.168,3.17,3.168h11.887c1.75,0,3.17-1.418,3.17-3.168V6.235L150.494,13.129z"/>
	<path style="fill:#2A6CF7;" d="M150,11.494l8.67-6.934C158.117,3.627,157.105,3,155.943,3h-11.887c-1.162,0-2.176,0.627-2.727,1.56
		L150,11.494z"/>
</g>
<path style="fill:#2A6CF7;" d="M198.857,8.718C198.857,4.456,194.891,1,190,1s-8.857,3.456-8.857,7.718s3.967,7.719,8.857,7.719
	c0.889,0,1.748-0.117,2.559-0.33c0.742,1.702,2.436,2.894,4.41,2.894c0.064,0,0.125-0.007,0.188-0.01
	c-0.984-1.136-1.625-2.576-1.764-4.16C197.496,13.419,198.857,11.209,198.857,8.718z"/>
<path style="fill:#666666;" d="M218.896,0h-17.793C200.494,0,200,0.494,200,1.104v17.79c0,0.611,0.494,1.105,1.104,1.105h9.579
	v-7.746h-2.606V9.237h2.606V7.011c0-2.584,1.577-3.99,3.882-3.99c1.104,0,2.053,0.082,2.329,0.119v2.699l-1.599,0.001
	c-1.253,0-1.495,0.596-1.495,1.47v1.928h2.989l-0.39,3.017h-2.6V20h5.097c0.609,0,1.104-0.494,1.104-1.105V1.104
	C220,0.494,219.506,0,218.896,0z"/>
<path style="fill:#666666;" d="M238.519,0h-17.043C220.661,0,220,0.646,220,1.44v17.116c0,0.797,0.661,1.443,1.476,1.443h17.043
	c0.815,0,1.481-0.646,1.481-1.443V1.44C240,0.646,239.334,0,238.519,0z M225.933,17.041h-2.97V7.499h2.97V17.041z M224.449,6.192
	c-0.953,0-1.722-0.77-1.722-1.72c0-0.948,0.769-1.72,1.722-1.72c0.949,0,1.719,0.771,1.719,1.72
	C226.168,5.423,225.398,6.192,224.449,6.192z M237.041,17.041h-2.963V12.4c0-1.107-0.022-2.53-1.542-2.53
	c-1.544,0-1.779,1.204-1.779,2.45v4.721h-2.963V7.499h2.844v1.303h0.04c0.396-0.75,1.364-1.541,2.807-1.541
	c3.002,0,3.557,1.977,3.557,4.546V17.041z"/>
<path style="fill:#FFFFFF;" d="M256.93,1.218L242.4,10.427c-0.929,0.588-0.898,1.5,0.068,2.023l2.296,1.246
	c0.967,0.523,2.409,0.332,3.206-0.426l3.285-3.125c0.797-0.759,0.994-0.602,0.439,0.349l-1.658,2.839
	c-0.555,0.95-1.075,1.841-1.156,1.979c-0.019,0.031,0.011,0.085,0.07,0.15c-0.071,0.033-0.121,0.057-0.131,0.062
	c-0.048,0.022-0.086,0.94-0.086,2.04v0.584c0,1.1,0.438,1.214,0.973,0.253l1.019-1.827l2.456,1.244
	c0.98,0.498,1.957,0.021,2.17-1.059l2.882-14.648C258.445,1.031,257.859,0.629,256.93,1.218z"/>
<g>
	<path style="fill:none;stroke:#FFFFFF;stroke-width:2;stroke-miterlimit:10;" d="M278,5l-7.982,8.78
		c-1.109,1.221-2.973,1.265-4.139,0.099L263,11"/>
</g>
<line style="fill:none;stroke:#FFFFFF;stroke-width:2;stroke-miterlimit:10;" x1="286" y1="6" x2="294" y2="14"/>
<line style="fill:none;stroke:#FFFFFF;stroke-width:2;stroke-miterlimit:10;" x1="294" y1="6" x2="286" y2="14"/>
<g transform="scale(1.78)">
	<path style="fill:#FFFFFF;" d="M39.302,5.769c-0.943,0-1.829-0.391-2.596-1.072c0.564,1.263,1.517,2.094,2.596,2.094
		c1.081,0,2.033-0.83,2.597-2.094C41.131,5.378,40.246,5.769,39.302,5.769z"/>
	<ellipse style="fill:#FFFFFF;" cx="38.214" cy="3.816" rx="0.791" ry="0.786"/>
	<ellipse style="fill:#FFFFFF;" cx="40.399" cy="3.816" rx="0.791" ry="0.786"/>
	<path style="fill:#FFFFFF;" d="M44.288,2.434c-0.132-0.445-0.443-0.827-0.842-1.062c-0.357-0.21-0.747-0.249-1.15-0.249
		c-0.41,0-0.82,0-1.229,0c-1.31,0-2.618,0-3.927,0c-0.381,0-0.77-0.021-1.149,0.004c-0.966,0.066-1.72,0.886-1.72,1.849
		c0,1.18,0,2.358,0,3.538c0,0.764,0.29,1.467,1.006,1.831c0.61,0.311,1.394,0.202,2.058,0.202c0.112,0,0.165,0.04,0.266,0.093
		c0.229,0.124,0.457,0.247,0.685,0.37c0.648,0.35,1.296,0.701,1.944,1.051c0.321,0.174,0.642,0.347,0.964,0.521
		c0-0.569,0-1.139,0-1.709c0-0.098,0-0.196,0-0.294c0-0.06,0.069-0.032,0.12-0.032c0.341,0,0.682,0,1.022,0
		c0.897,0,1.729-0.453,1.971-1.374c0.125-0.479,0.059-1.043,0.059-1.533c0-0.632,0-1.263,0-1.896
		C44.365,3.32,44.411,2.847,44.288,2.434z M43.345,6.714c0,0.359-0.245,0.679-0.586,0.783c-0.197,0.061-0.416,0.04-0.622,0.04
		c-0.351,0-0.703,0-1.056,0c-0.232,0-0.464,0-0.695,0c-0.193,0-0.213-0.043-0.213,0.149c0,0.398,0,0.796,0,1.194
		c-0.483-0.26-0.966-0.521-1.448-0.782c-0.246-0.133-0.493-0.266-0.738-0.399c-0.044-0.024-0.087-0.047-0.132-0.071
		c-0.154-0.083-0.219-0.091-0.396-0.091c-0.251,0-0.503,0-0.754,0c-0.28,0-0.627,0.048-0.893-0.059
		c-0.624-0.249-0.521-0.938-0.521-1.476c0-0.725,0-1.451,0-2.176c0-0.486-0.118-1.165,0.311-1.508
		c0.335-0.267,0.886-0.18,1.288-0.18c0.709,0,1.417,0,2.125,0c0.997,0,1.995,0,2.992,0c0.298,0,0.639-0.045,0.91,0.106
		c0.303,0.166,0.43,0.471,0.43,0.802c0,0.597,0,1.194,0,1.791C43.345,5.462,43.345,6.088,43.345,6.714z"/>
</g>
<g>
</g>
<g>
</g>
<g>
</g>
<g>
</g>
<g>
</g>
<g>
</g>
<g>
</g>
<g>
</g>
<g>
</g>
<g>
</g>
<g>
</g>
<g>
</g>
<g>
</g>
<g>
</g>
<g>
</g>
</svg>
