<?xml version="1.0" encoding="iso-8859-1"?>
<!-- Generator: Adobe Illustrator 16.0.4, SVG Export Plug-In . SVG Version: 6.00 Build 0)  -->
<!DOCTYPE svg PUBLIC "-//W3C//DTD SVG 1.1//EN" "http://www.w3.org/Graphics/SVG/1.1/DTD/svg11.dtd">
<svg version="1.1" id="Layer_1" xmlns="http://www.w3.org/2000/svg" xmlns:xlink="http://www.w3.org/1999/xlink" x="0px" y="0px"
	 width="1070px" height="400px" viewBox="0 0 1070 400" style="enable-background:new 0 0 1070 400;" xml:space="preserve">
<symbol  id="New_Symbol_1" viewBox="-106.23 -57.71 212.46 115.421">
	<g>
		<g>
			<g>
				<path style="fill:#2B6DF8;" d="M40.008,3.974h-0.253l0.972-1.642c4.476-11.579,27.063-46.735,31.12-52.604
					c3.762,5.838,27.262,40.934,31.121,52.604l0.971,1.642h-0.252c1.635,4.007,2.543,8.386,2.543,12.979
					c0,18.988-15.394,34.383-34.383,34.383c-18.988,0-34.383-15.395-34.383-34.383C37.464,12.359,38.372,7.98,40.008,3.974z"/>
			</g>
		</g>
		<g>
			<path style="fill:none;stroke:#FFFFFF;stroke-width:1.0132;stroke-miterlimit:10;" d="M90.067,12.272l-6.814-4.07l9.412,5.627
				c1.238,0.724,1.655,2.312,0.933,3.55c-0.723,1.237-2.312,1.655-3.549,0.932l-8.688-5.205c-0.002,0.004,11.062,6.641,11.062,6.641
				c1.237,0.723,1.655,2.312,0.933,3.55c-0.723,1.237-2.312,1.654-3.55,0.932c0,0-11.615-6.886-11.642-6.864l10.174,6.094
				c1.237,0.723,1.654,2.312,0.932,3.55s-2.312,1.655-3.549,0.933l-14.91-8.959c-1.585-0.713-1.664-0.555-1.427,0.238l2.022,5.498
				c0.615,1.294,0.064,2.842-1.229,3.457c-1.295,0.615-2.843,0.064-3.458-1.229c0,0-6.125-13.463-6.134-13.48
				c-2.705-5.693-0.283-12.501,5.41-15.206c3.312-1.574,7.001-1.409,10.04,0.122l16.154,9.188c1.238,0.723,1.655,2.312,0.933,3.55
				C92.492,12.195,91.207,12.65,90.067,12.272z"/>
			<g>
				<defs>
					<path id="SVGID_1_" d="M57.453,3.784c-1.275,3.583-1.081,7.446,0.545,10.883c0.248,0.544,6.144,13.502,6.144,13.502
						c0.898,1.889,2.83,3.11,4.923,3.11c0.813,0,1.599-0.178,2.337-0.528c1.313-0.625,2.307-1.724,2.794-3.095
						c0.376-1.056,0.418-2.175,0.132-3.234l9.954,5.981c0.495,0.289,1.032,0.494,1.587,0.616v8.092H48.699v-41.37h12.898
						C59.729-0.659,58.299,1.404,57.453,3.784z"/>
				</defs>
				<clipPath id="SVGID_2_">
					<use xlink:href="#SVGID_1_"  style="overflow:visible;"/>
				</clipPath>
				<path style="clip-path:url(#SVGID_2_);fill:none;stroke:#FFFFFF;stroke-width:1.0132;stroke-miterlimit:10;" d="M79.079,23.769
					l-4.535-6.514l6.264,9.002c0.83,1.168,0.557,2.788-0.611,3.618s-2.788,0.557-3.618-0.611l-5.777-8.319
					c-0.002,0.002,7.351,10.604,7.351,10.604c0.83,1.168,0.557,2.788-0.611,3.619c-1.168,0.83-2.788,0.557-3.618-0.611
					c0,0-7.753-11.056-7.785-11.048L72.9,33.25c0.83,1.168,0.557,2.788-0.611,3.619c-1.167,0.83-2.788,0.557-3.618-0.611
					l-9.902-14.301c-1.151-1.302-1.288-1.19-1.397-0.37l-0.42,5.844c0.028,1.433-1.11,2.617-2.544,2.645
					c-1.433,0.028-2.617-1.11-2.645-2.544c0,0-0.043-14.79-0.043-14.811C51.597,6.42,56.606,1.211,62.908,1.089
					c3.666-0.071,6.96,1.597,9.1,4.243L82.95,20.354c0.831,1.168,0.557,2.788-0.611,3.618
					C81.322,24.696,79.963,24.581,79.079,23.769z"/>
			</g>
			<g>
				<path style="fill:none;stroke:#FFFFFF;stroke-width:1.0132;stroke-miterlimit:10;" d="M66.066,41.667
					c-0.775,0.44-1.672,0.693-2.626,0.693c-2.934,0-5.311-2.378-5.311-5.311"/>
				<path style="fill:none;stroke:#FFFFFF;stroke-width:1.0132;stroke-miterlimit:10;" d="M67.217,44.289
					c-1.13,0.591-2.414,0.924-3.776,0.924c-4.509,0-8.163-3.654-8.163-8.163"/>
			</g>
			<g>
				<path style="fill:none;stroke:#FFFFFF;stroke-width:1.0132;stroke-miterlimit:10;" d="M82.264-5.766
					c0.774-0.441,1.671-0.693,2.626-0.693c2.933,0,5.311,2.377,5.311,5.31"/>
				<path style="fill:none;stroke:#FFFFFF;stroke-width:1.0132;stroke-miterlimit:10;" d="M81.113-8.388
					c1.129-0.591,2.414-0.925,3.776-0.925c4.509,0,8.163,3.655,8.163,8.163"/>
			</g>
		</g>
	</g>
	<path style="fill:#9FBBE0;" d="M37.275-28.99c-5.209,5.627-29.11-3.292-34.544-5.958c-28.498-13.98-72.227-38.513-99.562-8.508
		c-25.187,27.647,5.678,63.179,28.96,78.624c23.917,15.865,64.232,36.897,87.281,8.666c16.233-19.884-6.884-37.606,0.991-57.611
		C23.444-21.506,31.852-23.13,37.275-28.99z"/>
</symbol>
<g>
	<g>
		<path style="fill:#22B573;" d="M15.398,125.21c0,0,0.125-0.998,0.344-2.745c0.109-0.873,0.242-1.934,0.394-3.15
			c0.075-0.605,0.154-1.251,0.238-1.931c0.042-0.614,0.087-1.26,0.133-1.934c0.099-1.365,0.206-2.845,0.319-4.409
			c0.004-1.618,0.009-3.324,0.014-5.089c-0.003-0.444,0.009-0.896-0.005-1.346c-0.03-0.446-0.061-0.896-0.091-1.348
			c-0.061-0.91-0.122-1.832-0.184-2.761c-0.031-0.468-0.062-0.938-0.093-1.408l-0.185-1.394c-0.127-0.937-0.256-1.877-0.384-2.817
			c-0.103-0.955-0.307-1.876-0.502-2.801c-0.193-0.932-0.386-1.86-0.576-2.781c-0.215-0.914-0.493-1.798-0.734-2.691
			c-0.261-0.884-0.464-1.791-0.79-2.623c-0.595-1.692-1.162-3.357-1.858-4.859c-0.619-1.553-1.375-2.922-2.029-4.236
			c-0.729-1.252-1.372-2.448-2.055-3.418C6.71,70.46,6.08,69.637,5.562,68.949c-0.537-0.663-0.967-1.194-1.279-1.521
			c-0.31-0.346-0.471-0.503-0.471-0.503l0.593-0.805c0,0,0.241,0.139,0.638,0.407c0.415,0.262,0.977,0.682,1.702,1.226
			C7.442,68.315,8.305,69,9.22,69.862c0.959,0.828,1.916,1.871,3.009,2.991c1.011,1.174,2.174,2.427,3.226,3.875
			c1.134,1.405,2.168,2.987,3.257,4.638c0.575,0.812,1.028,1.697,1.546,2.574c0.497,0.885,1.039,1.772,1.518,2.695
			c0.456,0.936,0.914,1.878,1.375,2.824c0.465,0.95,0.94,1.908,1.311,2.895c0.397,0.985,0.795,1.971,1.19,2.952l0.586,1.48
			c0.164,0.499,0.327,0.997,0.489,1.493c0.324,0.997,0.646,1.987,0.964,2.965c0.159,0.492,0.317,0.981,0.474,1.467
			c0.141,0.488,0.252,0.975,0.378,1.458c0.486,1.946,0.956,3.828,1.401,5.613c0.332,1.859,0.645,3.617,0.935,5.24
			c0.142,0.82,0.278,1.606,0.407,2.354c0.085,0.685,0.167,1.334,0.243,1.943c0.15,1.217,0.28,2.277,0.388,3.151
			c0.215,1.747,0.338,2.746,0.338,2.746L15.398,125.21z"/>
	</g>
	<g>
		<path style="fill:#22B573;" d="M25.291,124.413c0,0,0.519-4.089,1.295-10.222c0.194-1.533,0.404-3.194,0.627-4.951
			c0.127-1.69,0.262-3.473,0.401-5.316c0.142-1.86,0.288-3.783,0.436-5.737c0.203-1.96,0.146-3.973,0.213-5.986
			c0.04-2.023,0.08-4.046,0.12-6.036c0.005-1.991-0.113-3.936-0.162-5.837c-0.085-1.895-0.073-3.756-0.268-5.477
			c-0.151-1.739-0.294-3.384-0.427-4.902c-0.137-1.523-0.38-2.889-0.536-4.125c-0.086-0.616-0.167-1.193-0.241-1.727
			c-0.099-0.525-0.19-1.009-0.272-1.445c-0.171-0.869-0.286-1.575-0.399-2.027c-0.107-0.46-0.165-0.705-0.165-0.705l0.927-0.375
			c0,0,0.12,0.234,0.344,0.674c0.234,0.443,0.508,1.091,0.895,1.922c0.189,0.416,0.399,0.877,0.628,1.379
			c0.203,0.51,0.423,1.06,0.658,1.648c0.454,1.181,1.04,2.508,1.547,3.984c0.505,1.484,1.052,3.092,1.63,4.791
			c0.625,1.703,1.063,3.531,1.618,5.419c0.518,1.892,1.122,3.849,1.611,5.854c0.454,2.016,0.915,4.062,1.376,6.109
			c0.434,2.061,0.992,4.103,1.286,6.173c0.345,2.069,0.686,4.105,1.014,6.076c0.327,1.987,0.643,3.908,0.943,5.729
			c0.203,1.76,0.396,3.423,0.573,4.958c0.709,6.142,1.182,10.236,1.182,10.236L25.291,124.413z"/>
	</g>
	<g>
		<path style="fill:#22B573;" d="M31.893,123.67c0,0,0.704-3.88,1.758-9.701c0.528-2.91,1.143-6.306,1.803-9.943
			c0.33-1.819,0.67-3.699,1.017-5.608c0.181-0.958,0.329-1.912,0.541-2.89c0.221-0.978,0.442-1.96,0.663-2.942
			c0.885-3.902,1.769-7.806,2.599-11.464c0.427-1.819,0.785-3.577,1.223-5.232c0.458-1.648,0.891-3.208,1.29-4.647
			c0.82-2.87,1.415-5.248,1.974-6.91c0.54-1.651,0.849-2.596,0.849-2.596l0.975,0.225c0,0-0.062,0.977-0.172,2.687
			c-0.124,1.693-0.109,4.178-0.186,7.107c-0.028,1.464-0.058,3.05-0.09,4.729c-0.012,1.676,0.081,3.457,0.119,5.285
			c0.105,3.643,0.216,7.527,0.328,11.412c0.028,0.965,0.056,1.93,0.084,2.891c0.036,0.963,0.132,1.951,0.195,2.916
			c0.141,1.937,0.279,3.842,0.414,5.687c0.268,3.688,0.519,7.131,0.733,10.082c0.429,5.901,0.715,9.836,0.715,9.836L31.893,123.67z"
			/>
	</g>
	<g>
		<path style="fill:#22B573;" d="M40.527,123.68c0,0,0.171-0.893,0.471-2.457c0.15-0.781,0.333-1.73,0.541-2.819
			c0.218-1.1,0.414-2.276,0.763-3.739c0.323-1.416,0.673-2.951,1.044-4.575c0.338-1.628,0.86-3.269,1.326-4.987
			c0.241-0.854,0.485-1.722,0.733-2.601c0.26-0.876,0.576-1.759,0.866-2.646c0.596-1.774,1.164-3.57,1.897-5.337
			c0.347-0.882,0.693-1.764,1.039-2.642c0.339-0.876,0.769-1.731,1.144-2.583c0.392-0.85,0.761-1.692,1.16-2.514
			c0.426-0.812,0.846-1.613,1.26-2.402c0.78-1.581,1.759-3.031,2.567-4.421c0.936-1.348,1.738-2.637,2.646-3.74
			c0.843-1.132,1.718-2.103,2.478-2.954c0.806-0.826,1.5-1.535,2.135-2.069c0.605-0.553,1.139-0.935,1.496-1.199
			c0.359-0.255,0.586-0.393,0.586-0.393l0.6,0.801c0,0-0.128,0.139-0.389,0.459c-0.248,0.322-0.625,0.788-1.032,1.444
			c-0.432,0.629-0.883,1.458-1.392,2.389c-0.472,0.968-1.005,2.037-1.477,3.271c-0.529,1.189-0.93,2.58-1.419,3.98
			c-0.375,1.472-0.876,2.946-1.176,4.57c-0.169,0.797-0.342,1.607-0.517,2.428c-0.149,0.827-0.266,1.678-0.401,2.521
			c-0.12,0.852-0.288,1.685-0.37,2.555c-0.087,0.864-0.174,1.731-0.261,2.599c-0.211,1.715-0.264,3.473-0.351,5.18
			c-0.036,0.855-0.098,1.693-0.11,2.534c0,0.842,0,1.674,0,2.492c0.016,1.63-0.044,3.208,0.064,4.671
			c0.071,1.46,0.138,2.84,0.2,4.113c0.038,1.225,0.175,2.527,0.26,3.62c0.093,1.104,0.173,2.067,0.24,2.86
			c0.133,1.587,0.209,2.494,0.209,2.494L40.527,123.68z"/>
	</g>
</g>
<g>
	<g>
		<path style="fill:#2B6DF8;" d="M195.745,92.306h-0.253l0.972,1.642c4.476,11.579,27.063,46.735,31.12,52.604
			c3.762-5.838,27.262-40.934,31.121-52.604l0.971-1.642h-0.252c1.635-4.007,2.543-8.386,2.543-12.979
			c0-18.988-15.394-34.383-34.383-34.383c-18.988,0-34.383,15.395-34.383,34.383C193.201,83.92,194.109,88.299,195.745,92.306z"/>
	</g>
</g>
<g>
	
		<path style="fill-rule:evenodd;clip-rule:evenodd;fill:none;stroke:#FFFFFF;stroke-width:1.0132;stroke-linejoin:round;stroke-miterlimit:10;" d="
		M227.3,86.228c1.5,0,2.715,1.215,2.715,2.715c0,1.499-1.215,2.715-2.715,2.715c-1.499,0-2.715-1.216-2.715-2.715
		C224.585,87.442,225.801,86.228,227.3,86.228z"/>
	
		<path style="fill-rule:evenodd;clip-rule:evenodd;fill:none;stroke:#FFFFFF;stroke-width:1.0132;stroke-linejoin:round;stroke-miterlimit:10;" d="
		M227.3,65.001c1.5,0,2.715,1.216,2.715,2.715v14.315c0,1.5-1.215,2.715-2.715,2.715c-1.499,0-2.715-1.216-2.715-2.715V67.716
		C224.585,66.217,225.801,65.001,227.3,65.001z"/>
</g>
<g>
	
		<path style="fill-rule:evenodd;clip-rule:evenodd;fill:none;stroke:#FFFFFF;stroke-width:1.0132;stroke-linejoin:round;stroke-miterlimit:10;" d="
		M227.3,58.337c11.041,0,19.992,8.951,19.992,19.992s-8.951,19.992-19.992,19.992s-19.992-8.951-19.992-19.992
		S216.259,58.337,227.3,58.337z"/>
</g>
<g>
	
		<path style="fill-rule:evenodd;clip-rule:evenodd;fill:none;stroke:#FFFFFF;stroke-width:1.0132;stroke-linejoin:round;stroke-miterlimit:10;" d="
		M207.308,96.08c-9.735-9.735-9.735-25.519,0-35.254"/>
</g>
<g>
	
		<path style="fill-rule:evenodd;clip-rule:evenodd;fill:none;stroke:#FFFFFF;stroke-width:1.0132;stroke-linejoin:round;stroke-miterlimit:10;" d="
		M247.292,96.103c9.779-9.749,9.779-25.553,0-35.301"/>
</g>
<g>
	<g>
		<path style="fill:#2B6DF8;" d="M41.4,50.783h-0.253l0.972,1.642c4.475,11.579,27.063,46.735,31.12,52.604
			C77,99.19,100.5,64.094,104.359,52.424l0.971-1.642h-0.252c1.635-4.007,2.543-8.386,2.543-12.979
			c0-18.988-15.393-34.383-34.382-34.383c-18.988,0-34.382,15.395-34.382,34.383C38.856,42.397,39.765,46.776,41.4,50.783z"/>
	</g>
</g>
<rect x="55.411" y="23.113" transform="matrix(0.7071 -0.7071 0.7071 0.7071 -1.6261 52.1316)" style="fill:none;stroke:#FFFFFF;stroke-width:1.0132;stroke-linejoin:round;stroke-miterlimit:10;" width="13.413" height="9.831"/>
<rect x="66.358" y="107.408" transform="matrix(0.7072 -0.707 0.707 0.7072 -57.8132 80.3287)" style="fill:none;stroke:#FFFFFF;stroke-width:1.0132;stroke-linejoin:round;stroke-miterlimit:10;" width="3.43" height="5.106"/>
<rect x="68.56" y="102.081" transform="matrix(0.7071 -0.7072 0.7072 0.7071 -54.8539 81.5777)" style="fill:none;stroke:#FFFFFF;stroke-width:1.0132;stroke-linejoin:round;stroke-miterlimit:10;" width="4.954" height="9.831"/>
<rect x="67.829" y="29.244" transform="matrix(0.7072 -0.707 0.707 0.7072 -5.3038 60.9987)" style="fill:none;stroke:#FFFFFF;stroke-width:1.0132;stroke-linejoin:round;stroke-miterlimit:10;" width="6.325" height="15.318"/>
<path style="fill:none;stroke:#FFFFFF;stroke-width:1.0132;stroke-linejoin:round;stroke-miterlimit:10;" d="M91.11,48.157
	l-11.172-9.368l-7.06,7.06l9.369,11.172c0.208,0.297,0.443,0.58,0.708,0.846c2.485,2.485,6.515,2.485,9,0s2.485-6.516,0-9
	C91.69,48.601,91.406,48.366,91.11,48.157z"/>
<path style="fill:none;stroke:#FFFFFF;stroke-width:1.0132;stroke-linejoin:round;stroke-miterlimit:10;" d="M54.636,30.031
	c-1.833,3.018-3.396,7.491-1.94,12.287c2.317-4.796,7.653-6.574,7.653-6.574L54.636,30.031z"/>
<path style="fill:#B3CFCD;" d="M31.941,126.154c-1.001,6.494-0.378,14.523,4.126,19.715c2.063,2.381,3.237,2.352,6.08,2.246
	c3.498-0.129,6.985,0.531,10.362,1.42c2.224,0.586,4.358,1.203,6.569,1.918c2,0.645,3.701,1.598,5.77,2.033
	c0.746,0.156,0.695,0.664,1.836,0.615c0.279-0.014,2.486-1,2.563-0.75c0.416,1.332,1.036,2.627,1.011,4.133
	c1.377-0.861,2.435-0.469,3.354-1.684c0.757-1.002,0.334-2.705,1.313-3.691c1.251-1.258,6.87-3.766,8.781-4.199
	c3.372-0.758,6.045,0.205,9.496-1.135c5.396-2.094,9.719-4.883,10.995-10.865c1.251-5.875-0.442-12.261-3.158-17.482
	c-2.94-5.651-10.889-15.639-18.585-13.739c-3.002,0.742-3.733,4.346-6.081,6.154c-3.4,2.618-7.279,3.648-11.452,3.117
	c0.119,2.134-1.497,4.161-1.823,6.243c-0.445-1.218,0.062-3.617-0.602-4.966c-0.483-0.98-2.028-1.804-2.985-2.399
	c-5.353-3.325-11.377-8.086-17.623-4.282C35.986,112.15,32.949,119.625,31.941,126.154z"/>
<path style="fill:#D8EBE9;" d="M48.177,108.645c0.56-0.062,1.106-0.076,1.612-0.031c1.371,0.121,1.954,1.946,2.458,3.077
	c0.659,1.48,1.035,3.081,1.257,4.683c0.569,4.104,0.153,8.346-0.798,12.363c-2.481,10.477-8.581,18-13.626,16.805
	c-5.047-1.193-7.128-10.654-4.649-21.131c0.885-3.737,2.162-8.568,5.224-11.141c0.515-0.433,1.084-0.813,1.601-1.254
	c0.769-0.657,1.57-1.54,2.47-2.015C44.961,109.35,46.624,108.815,48.177,108.645z"/>
<g>
	<g>
		<path style="fill:#4D4D4D;" d="M169.336,81.484c0,1.65-1.35,3-3,3h-25.333c-1.65,0-3-1.35-3-3V4.779c0-1.65,1.35-3,3-3h25.333
			c1.65,0,3,1.35,3,3V81.484z"/>
	</g>
	<circle style="fill:#1A1A1A;" cx="153.669" cy="16.973" r="10.34"/>
	<circle style="fill:#333333;" cx="153.669" cy="67.522" r="10.34"/>
	<circle style="fill:#FBB03B;" cx="153.669" cy="43.16" r="10.34"/>
	<rect x="148.093" y="84.484" style="fill:#B3CFCD;" width="10.34" height="57.294"/>
	
		<line style="fill:none;stroke:#FBB03B;stroke-width:3;stroke-linecap:round;stroke-linejoin:round;stroke-miterlimit:10;" x1="176.107" y1="43.132" x2="184.111" y2="43.132"/>
	
		<line style="fill:none;stroke:#FBB03B;stroke-width:3;stroke-linecap:round;stroke-linejoin:round;stroke-miterlimit:10;" x1="123.228" y1="43.132" x2="132.207" y2="43.132"/>
	
		<line style="fill:none;stroke:#FBB03B;stroke-width:3;stroke-linecap:round;stroke-linejoin:round;stroke-miterlimit:10;" x1="175.045" y1="36.31" x2="182.67" y2="33.876"/>
	
		<line style="fill:none;stroke:#FBB03B;stroke-width:3;stroke-linecap:round;stroke-linejoin:round;stroke-miterlimit:10;" x1="124.669" y1="52.388" x2="133.223" y2="49.657"/>
	
		<line style="fill:none;stroke:#FBB03B;stroke-width:3;stroke-linecap:round;stroke-linejoin:round;stroke-miterlimit:10;" x1="175.215" y1="49.398" x2="182.9" y2="51.634"/>
	
		<line style="fill:none;stroke:#FBB03B;stroke-width:3;stroke-linecap:round;stroke-linejoin:round;stroke-miterlimit:10;" x1="124.438" y1="34.63" x2="133.062" y2="37.138"/>
</g>
<path style="fill:#666666;" d="M44.981,138.498c-0.716,4.607-6.423,3.371-8.637,0.863c-1.913-2.168-0.599-4.455,2.069-5.029
	C40.64,133.854,45.447,135.502,44.981,138.498z"/>
<path style="fill:#9FBBE0;" d="M74.599,127.98c0.655,4.146-1.637,10.564-4.273,13.656c1.183-0.602,2.226-2.023,3.109-3.031
	c2.556-2.914,5.04-5.377,7.224-8.613c1.976-2.928,3.285-6.227,5.528-8.913c0.804-0.962,1.815-1.838,1.964-3.062
	c-3.939-0.299-7.211-0.67-11.005-1.4c-1.917-0.369-3.803-1.081-5.647-1.504c2.872,2.17,9.16,5.002,8.462,9.698
	c0.116-0.782-5.499-5.199-6.257-5.827c-1.648-1.365-4.99-4.21-7.238-2.787c0.926,1.749,3.525,3.034,4.806,4.696
	C72.873,122.97,74.185,125.363,74.599,127.98z"/>
<g>
	<g>
		<path style="fill:#9FBBE0;" d="M353.764,41.023c5.084,2.624,10.166,5.244,15.252,7.866c3.502,1.805,7.015,3.592,10.506,5.417
			c1.986,1.039,4.817,3.672,7.196,2.93c-0.118-4.084-6.001-5.53-9.003-7.038c-4.434-2.224-8.889-4.406-13.332-6.613
			c-4.986-2.477-10.015-5.574-15.223-7.539c-2.938-1.107-6.342-2.013-7.584-5.286c-1.215-3.206,0.763-6.681,2.268-9.424
			c0.74-1.349,2.854-3.833,1.617-5.215c-0.805-0.896-4.621-1.716-5.811-1.82c0.064,2.191,4.828,2.457,3.772,4.917
			c-1.958,1.266-4.04-0.93-6.04-1.225c-1.418,3.396,3.354,3.077,3.339,6.07c-2.503,0.388-4.097,0.368-6.733,0.095
			c-1.17,3.533,3.863,2.356,4.33,4.588c0.393,1.88-6.575,0.949-7.764,0.746c0.734,2.562,2.786,3.025,5.055,3.573
			c-0.178,1.385-0.32,2.331-1.178,3.342c-1.429,1.685-1.674,0.88-3.318,0.17c-1.32-0.569-3.192-1.435-2.877,0.255
			c0.293,1.561,2.452,2.399,3.745,2.765c-1.536,3.98-3.896,1.271-6.937,1.224c0.623,1.995,1.423,2.875,3.385,3.682
			c-0.058,2.146-3.425,0.221-4.706,0.189c0.757,1.242,2.911,3.909,4.665,3.589c1.637-0.3,4.819-4.635,5.574-6.113
			c0.875-1.717,1.059-4.332,2.658-5.673c2.502-2.093,5.521-0.154,7.904,0.93C347.539,38.792,350.811,39.5,353.764,41.023z"/>
		<path style="fill:#E6CFC6;" d="M345.249,59.367c-0.095-1.785,2.443-3.978,5.2-7.078c3.045-3.424,5.882-8.224,4.883-12.987
			c-0.782-3.727-4.034-6.38-4.42-10.353c-0.439-4.53,2.777-9.646,7.052-11.156c11.536-4.068,18.124,5.826,21.761,15.642
			c-1.447,0.848-5.401,1.753-6.306,2.702c-1.388,1.453-1.554,3.869-2.597,5.565c-1.117,1.818-2.682,1.652-2.68,4.312
			c0.002,2.744,2.816,4.884,4.523,6.682c3.592,3.787,9.766,9.963,0.645,10.951c-8.02,0.868-15.085,1.344-22.844-0.859
			C346.754,61.732,345.317,60.656,345.249,59.367z"/>
		<path style="fill:#9FBBE0;" d="M344.435,130.854c3.378,20.262,6.988,40.316,6.015,60.943c-0.119,2.5-0.932,9.086,3.49,7.311
			c2.305-0.926,3.477-5.67,4.163-7.871c2.704-8.666,3.133-18.498,3.735-27.568c0.597-9.01,2.495-18.465,2.424-27.455
			c0.713,12.598,0.996,25.096,1.721,41.748c0.208,4.803,1.025,10.604,3.676,14.67c0.977,1.498,3.698,4.678,5.627,3.07
			c1.604-1.336,0.507-8.566,0.048-10.305c-1.405-5.34-2.982-7.668-2.688-10.17c1.223-10.43,2.666-24.742,4.012-35.152
			c1.457-11.279,3.855-25.438,2.558-36.752c-0.86-7.5-11.858-4.722-16.095-3.696c-5.996,1.449-12.793,2.256-18.158,5.751
			c-3.596,2.342-3.797,3.727-3.209,8.081C342.535,119.27,343.469,125.064,344.435,130.854z"/>
		<path style="fill:#799ECF;" d="M337.064,94.744c1.613,9.852,4.308,17.563,8.15,26.877c-12.4-2.045-18.801-21.192-20.26-32.015
			c-1.68-12.457,5.012-25.241,15.086-32.275c1.848-1.29,11.338-5.97,11.429-7.722c-0.312,5.984,8.95,5.088,12.994,4.476
			c4.979-0.753,9.132-5.479,13.813-2.075c4.021,2.925,6.66,9.877,11.542,11.458c3.243,1.05,4.099-1.17,6.723-2.488
			c0.647-0.324,4.792-2.258,5.333-0.917c3.335,8.264-5.43,22.045-12.894,25.913c-3.538,1.834-4.085-2.272-6.742-2.083
			c-2.786,0.197-1.377,4.428-1.754,6.701c-1.032,6.231-1.321,13.723-6.538,18.123c-5.363,4.522-17.431,7.42-23.885,3.979
			c-6.652-3.545-7.869-13.12-9.702-19.665c-0.32-1.143-3.608-6.271-3.622-6.049C336.557,89.798,336.67,92.34,337.064,94.744z"/>
		<path style="fill:#9FBBE0;" d="M382.99,55.611c5.084,2.624,10.168,5.244,15.252,7.866c5.793,2.985,11.586,5.974,17.379,8.962
			c-1.04,2.516-1.818,4.604-2.154,4.603c3.571,0.016,6.946-10.005,7.641-13.132c-1.542,0.449-3.063,3.101-4.352,5.904
			c-7.639-4.024-15.414-7.803-23.146-11.642c-4.986-2.477-10.014-5.575-15.221-7.539c-4.165-1.572-5.979-4.006-10.942-4.609
			C369.508,52.112,378.026,53.052,382.99,55.611z"/>
		<path style="fill:#E6CFC6;" d="M405.84,60.15c1.463-6.791-12.296-7.971-14.08-2.836c-0.486,1.402,1.173,6.527,3.426,5.227
			c1.508-0.874,3.706-1.441,5.385-1.179C402.965,61.738,404.857,64.716,405.84,60.15z"/>
		<path style="fill:#AB9D87;" d="M358.525,30.801c-1.797,4.183,0.871,9.372,4.1,11.829c1.045,0.793,9.371,6.112,9.516,3.452
			c0.121-2.21-0.588-5.368,1.055-6.944C372.602,38.353,357,34.351,358.525,30.801z"/>
	</g>
	<g>
		<path style="fill:#FBDCAB;" d="M453.012,16.545c-0.615,1.279-0.281,3.152-1.135,4.31c-0.796,1.079-2.365,1.03-3.148-0.005
			c-0.985-1.307-1.796-2.731-2.876-3.971c-1.068-1.226-2.084-2.328-2.593-3.904c-0.225-0.696-0.967-2.656-0.431-3.334
			c0.905-1.143,2.354,1.026,3.23,1.177c1.183,0.203,1.405-1.085,1.961-1.944c0.657-1.017,1.052-3.055,2.216-3.633
			c0.987-0.488,2.318-0.039,2.978,0.718C455.748,8.873,454.475,13.504,453.012,16.545z"/>
		<path style="fill:#4D4D4D;" d="M426.818,47.134c-4.432-1.351-9.488-4.956-11.186-9.415c-1.081-2.837-0.641-7.462-3.131-9.419
			c-4.555-3.578-14.577-1.637-17.819,3.036c-1.3,1.872-1.402,4.36-2.225,6.445c-1.241,3.147-1.958,6.854-3.458,9.843
			c-1.396,2.78-4.227,5.209-6.839,6.533c-2.984,1.512-3.692,2.756-1.384,5.403c3.624,4.157,8.574,7.173,14.059,7.783
			c5.621,0.624,11.992-3.672,16.618-6.688c3.46-2.256,6.886-4.69,10.092-7.326C423.113,52.039,426.812,49.187,426.818,47.134z"/>
		<path style="fill:#FBDCAB;" d="M406.711,54.121c-0.914-4.821-3.939-6.076-5.98-10.237c-2.451-4.997-0.205-9.579,4.268-12.475
			c7.964-5.152,15.005,3.228,17.979,4.738c-0.323,0.733-2.206,2.87-2.348,3.346c4.043,8.574-5.838,14.285-6.107,12.434
			c0.719,4.923,18.264,21.688,6.534,21.949c-0.009,0-0.017,0-0.025,0c-4.997,0.094-16.985-4.162-19.15-8.382
			C407.457,64.627,407.609,58.87,406.711,54.121z"/>
		<path style="fill:#2B6DF8;" d="M452.936,21.144c0.299-3.522-4.5,0-4.5,1c0,8.957-4.333,17.333-9.843,24.159
			c-4.56,5.649-7.175,11.894-13.601,16.132c-2.902,1.914-3.17,2.323-4.816,5.313c-1.311,2.38-2.385,2.369-4.902,2.304
			c-4.231-0.11-10.843-0.565-11.635-5.916c-9.675,1.047-15.412,11.607-17.703,20.01c-4.708,17.273,11.287,31.911,12.815,48.262
			c0.138,1.471,8.532-3.408,9.044-3.691c4.305-2.385,6.346-2.336,10.643-0.432c3.374,1.496,4.52,4.336,7.261,0.041
			c2.858-4.48,1.956-10.605,2.097-15.646c0.139-4.931-0.355-9.108-1.596-13.853c-2.979-11.4,5.116-17.066,10.613-25.78
			c2.787-4.42,4.336-9.688,6.199-14.547C447.634,46.453,451.84,34.082,452.936,21.144z M396.623,116.443
			c-2.724-1.801-5.688-26.799-0.688-27.049c2.201-0.11,4.693,11.812,5.5,13.75C403.108,107.155,399.896,113.121,396.623,116.443z"/>
		<path style="fill:#4D4D4D;" d="M402.837,52.44c-2.231-1.433-4.779-2.102-6.458-4.276c-6.77-8.768-3.047-20.592,7.857-23.72
			c3.42-0.981,7.919-1.413,10.608,1.417c0.782,0.823,1.679,2.412,1.294,3.603c-0.542,1.676-0.959,1.052-2.358,1.216
			c-0.472,0.056-8.078,0.612-7.585,1.581c3.271,6.421-0.02,14.384-2.914,20.18"/>
		<path style="fill:#FFA6E1;" d="M395.984,122.645c0.475,12.617,1.987,25.207,2.804,37.926c0.878,13.678,3.747,29.41,1.647,43.074
			c-0.176,1.15-0.572,6.619,0.5,7.666c1.608,1.57,4.521-5.727,5-7.166c1.5-4.5,5-50.998,5-51c-0.713,9.477,0,19.277,0,28.777
			c0,7.182,0.328,14.588-0.019,21.699c1.692,1.828,3.206,7.924,5.852,8.357c3.915,0.641-3.227-8.088,0.104-19.008
			c1.307-4.283,11.764-54.99,12.518-63.387c0.654-7.293,1.603-14.48,0.955-21.811c-0.276-3.125,0.16-6.334-0.711-9.366
			c-0.869-3.023-2.617-5.724-3.689-8.672c-2.216-6.092-2.666-14.484-1.771-20.897c0.266-1.907,1.805-3.71,1.475-5.662
			c-0.177-1.042-3.408,0.289-3.811,0.688c-0.954,0.944-0.859,9.657-0.916,10.904c-0.181,4.018,0.951,10.559,0.831,10.698
			c-1.235,1.442-13.989,3.344-16.779,3.391c-0.28-4.604-2.739-20.212-7.532-22.108c-0.463-0.184-2.045,0.075-1.81,0.938
			c0.286,1.051,1.399,2.565,1.835,3.271c3.924,6.344,3.801,20.704,2.42,25.88c-1.029,3.858-3.185,7.336-3.781,11.319
			C395.398,112.865,395.807,117.91,395.984,122.645z"/>
	</g>
	<g>
		<path style="fill:#799ECF;" d="M332.045,195.469c-0.492,0.895-1.648,0.832-3.429-0.705c-2.772-2.393-5.939-7.654-6.089-11.125
			c-0.437-10.084-1.061-6.953-1.34-17.004c-0.752,6.387-0.816,10.287-2.207,18.58c-0.469,2.793-1.643,13.027-6.189,12.629
			c-0.898-4.109,1.22-9.219,1.512-13.391c0.365-5.236-0.186-10.07-0.892-15.266c-1.562-11.482-4.037-46.037-6.005-51.52
			c4.416,0.744,8.705,0.514,13.119-0.176c3.883-0.609,18.369-4.799,17.223-0.107c-1.599,6.549-8.807,55.293-9.919,65.307
			c0.239,3.658,2.207,5.602,4.22,9.512C332.736,193.541,332.402,194.818,332.045,195.469z"/>
		<path style="fill:#AB9D87;" d="M328.538,47.574c-2.95,5.087-10.559,8.492-15.425,9.132c-8.102,1.063-17.025-3.33-19.164-11.621
			c-1.701-6.592,6.389-14.118,12.473-15.275c9.363-1.779,20.223,0.942,23.041,11.248C330.113,43.435,329.667,45.627,328.538,47.574z
			"/>
		<path style="fill:#E6CFC6;" d="M312.191,62.826c0.519,0.821,0.824,1.571,0.329,2.744c-0.51,1.202-2.829,1.233-2.911,2.687
			c-0.092,1.598,3.648,3.451,4.895,3.867c2.189,0.731,4.801,0.593,6.85-0.212c1.152-0.451,5.033-1.222,5.473-2.489
			c0.746-2.157-2.16-1.749-3.383-2.975c-2.189-2.196-2.007-7.414-1.207-10.152c1.836-6.293,2.566-13.156-2.513-18.548
			c-6.53-6.932-14.144-0.32-13.774,7.471c0.312,6.62,2.184,11.116,5.549,16.547C311.738,62.151,311.982,62.495,312.191,62.826z"/>
		<path style="fill:#6A8AB5;" d="M302.724,108.389c-1.306-2.847-3.394-5.701-3.687-8.854c-0.283-3.028-0.246-30.259,9.978-31.979
			c1.963-0.33,3.181,0.996,4.953,1.533c5.931,1.793,12.143-4.837,17.832-1.083c11.005,7.261,17.626,20.675,14.481,34.072
			c-1.104,4.708-4.447,8.771-6.724,12.958c-3.515,6.465-10.501,5.42-17.188,5.578c-5.349,0.129-14.964,0.529-17.531-5.541
			C304.115,113.365,302.938,108.857,302.724,108.389z"/>
		<path style="fill:#AB9D87;" d="M307.285,32.508c-2.616,1.38-4.664,7.684-3.787,10.423c1.431,4.472,7.496-0.978,10.881-1.354
			c2.968-0.331,6.209,0.262,8.953,0.194C324.503,33.673,313.712,29.117,307.285,32.508z"/>
		<path style="fill:#6A8AB5;" d="M302.244,93.5c4.169,2.928,6.599,7.959,11.709,9.316c1.388,0.368,3.682-0.149,4.735,0.937
			c1.356,1.397,0.82,4.414-0.218,5.659c-2.852,3.424-9.066,4.03-12.725,1.458c-2.967-2.087-4.959-7.312-5.635-10.734"/>
		<path style="fill:#6A8AB5;" d="M347.465,95.645c0.338,6.298-1.465,11.793-7.505,15.519c-4.401,2.717-12.13,1.859-11.896-4.761
			c0.152-4.28,5.291-2.644,8.025-4.236c1.928-1.123,4.947-3.676,6.18-5.579c0.409-0.632,2.693-8.16,2.56-8.287
			c1.12,1.068,2.022,2.375,2.271,3.952C347.279,93.405,347.406,94.537,347.465,95.645z"/>
		<path style="fill:#E6CFC6;" d="M316.408,111.461c-1.664-0.367,0.533-4.442,0.945-5.097c1.663-2.644,2.783-2.584,5.736-2.268
			C323.726,107.842,320.554,112.373,316.408,111.461z"/>
		<path style="fill:#E6CFC6;" d="M327.67,109.729c-0.049,0.035-0.098,0.06-0.146,0.073c-1.271,0.366-5.078-4.371-5.709-5.453
			c1.877-1.615,4.945-0.259,7.097,0.312C329.385,104.786,328.594,109.058,327.67,109.729z"/>
	</g>
</g>
<g>
	<path style="fill:#FCEE21;" d="M179.727,333.483l-0.201-29.002c0,0-80.052-0.381-108.483-0.274
		c-0.119-3.107-0.449-6.19-0.443-9.297c0.017-9.326-0.573-18.633-0.573-27.957c0-6.274,0.003-12.396-0.298-18.675
		c-11.562-0.842-30.684-4.266-37.882,7.766c-4.14,6.919-27.686,32.018-30.924,39.457c-0.059,10.98,1.91,37.796,1.91,37.796
		s34.016,2.181,45.928,1.519c4.231-0.235,8.712,0.232,12.713-1.311c0.673-0.259,1.56-0.561,2.444-0.848
		c0.021,0.524,0.035,0.826,0.035,0.826H179.727z M60.296,284.419c-1.027,2.811-3.198,2.224-6.156,2.25
		c-9.744,0.088-19.452,0.168-29.14-0.358c-1.064-3.615,16.214-26.395,17.669-28.286c2.211-2.873,17.371-3.381,19.033-0.463
		C63.28,260.336,61.043,282.369,60.296,284.419z"/>
	<circle style="fill:#4D4D4D;" cx="52.864" cy="333.483" r="19.334"/>
	<circle style="fill:#4D4D4D;" cx="136.197" cy="333.483" r="19.334"/>
	<circle style="fill:#666666;" cx="52.864" cy="333.483" r="8.334"/>
	<circle style="fill:#666666;" cx="136.864" cy="333.483" r="8.334"/>
	<path style="fill:#799ECF;" d="M178.364,280.231c0,0-93.116-23.362-99.5-23.25c-2.641,5.674,0.599,9.916,0.599,9.916l63.705,19.003
		l-68.554-0.169v15h101.75v-14.289L178.364,280.231z"/>
	<path style="fill:#6A8AB5;" d="M108.237,274.161c0.44-9.02,0.426-15.449,0.433-23.723l-33.688-0.028
		c-0.004,5.478,0.252,22.27,0.308,23.923C75.437,278.657,108.048,278.048,108.237,274.161z"/>
	<path style="fill:#E6CFC6;" d="M43.782,267.413c0.953-1.218,2.425-3.44,3.906-3.974c2.889-1.04,5.771,1.345,6.316,4.029
		c0.382,1.88-0.984,3.133-1.898,4.603c-0.88,1.416-0.927,3.774-2.655,4.05c-1.227,0.195-3.297,0.237-3.84-1.122
		c-0.555-1.388-0.777-2.74-1.511-4.059c-0.305-0.55-1.461-1.593-1.454-2.063C42.652,268.478,43.53,267.735,43.782,267.413z"/>
	<path style="fill:#6A8AB5;" d="M53.737,289.354c0.332-0.364,0.625-0.76,0.873-1.188c4.159-7.172-5.922-20.192-11.982-12.379
		c-1.193,1.539-0.457,3.304-1.251,4.706c-1.083,1.913-12.935,1.796-10.012,5.499c0.935,1.185,3.572,0.901,4.999,1.245
		C42.842,288.8,47.454,296.228,53.737,289.354z"/>
	<path style="fill:#6A8AB5;" d="M51.906,262.169c-2.048-0.451-4.452,0.635-6.071,1.967c-0.34,0.278-2.553-1.281-3.097-0.022
		c-0.431,1,0.988,1.142,1.676,1.544c2.887,1.691,6.386,1.843,9.375,3.31c1.158,0.568,1.295-3.906,0.863-4.663
		C53.94,263.056,52.971,262.404,51.906,262.169z"/>
</g>
<path style="fill:none;stroke:#2B6DF8;stroke-width:2;stroke-miterlimit:10;stroke-dasharray:6,3;" d="M689.282,277.007
	c-0.019-0.352,9-29,1.701-50.084c-5.53-15.976,6.259-33.146,14.75-47.666c26.175-44.76,9.315-99.689-28.935-129.853
	C605.282-6.993,492.282,14.007,463.282,6.007"/>
<g>
	<rect x="724.889" y="41.539" style="fill:#AB9D87;" width="4.574" height="16.468"/>
	<path style="fill:#22B573;" d="M738.154,43.368c0,3.79-5.12,6.862-11.436,6.862c-6.316,0-11.437-3.072-11.437-6.862
		c0-3.789,11.437-28.361,11.437-28.361S738.154,39.579,738.154,43.368z"/>
</g>
<g>
	<rect x="672.708" y="149.007" style="fill:#AB9D87;" width="4.574" height="16.468"/>
	<path style="fill:#22B573;" d="M685.974,150.836c0,3.79-5.12,6.862-11.436,6.862c-6.316,0-11.437-3.072-11.437-6.862
		c0-3.789,11.437-28.361,11.437-28.361S685.974,147.047,685.974,150.836z"/>
</g>
<g>
	<rect x="756.452" y="110.315" style="fill:#AB9D87;" width="4.574" height="16.468"/>
	<path style="fill:#22B573;" d="M769.718,112.145c0,3.79-5.12,6.862-11.436,6.862c-6.316,0-11.437-3.072-11.437-6.862
		c0-3.789,11.437-28.361,11.437-28.361S769.718,108.355,769.718,112.145z"/>
</g>
<g>
	<g>
		<path style="fill:none;stroke:#2B6DF8;stroke-width:2;stroke-miterlimit:10;" d="M182.946,247.5c0,0.992,0.023,1.992,0.07,2.998"
			/>
		<path style="fill:none;stroke:#2B6DF8;stroke-width:2;stroke-miterlimit:10;stroke-dasharray:6.3298,3.1649;" d="M183.238,253.654
			c2.188,23.258,16.687,48.375,44.165,53.24"/>
		<path style="fill:none;stroke:#2B6DF8;stroke-width:2;stroke-miterlimit:10;" d="M228.967,307.147
			c0.978,0.143,1.971,0.261,2.979,0.353"/>
	</g>
</g>
<g>
	<g>
		<path style="fill:none;stroke:#2B6DF8;stroke-width:2;stroke-miterlimit:10;" d="M332.946,247.5
			c-0.988,0.168-1.973,0.349-2.953,0.541"/>
		<path style="fill:none;stroke:#2B6DF8;stroke-width:2;stroke-miterlimit:10;stroke-dasharray:6.253,3.1265;" d="M326.933,248.686
			c-41.798,9.37-76.375,40.443-86.779,50.583"/>
		<path style="fill:none;stroke:#2B6DF8;stroke-width:2;stroke-miterlimit:10;" d="M239.043,300.36
			c-1.374,1.366-2.097,2.14-2.097,2.14"/>
	</g>
</g>
<path style="fill:#4D4D4D;" d="M418.365,362.013c-2.165,1.796-5.156,2.218-8.893,1.205c-7.545-2.044-15.633-2.728-23.359-3.939
	c-8.471-1.327-20.263-3.87-25.496-6.315c-6.805-3.179-3.975-12.688-2.973-19.076c1.518-9.684,3.034-19.366,4.552-29.049
	c3.321-21.199,6.644-42.397,9.966-63.597c1.426-9.096,2.479-15.521,13.032-15.965c8.914-0.375,17.424,2.717,26.111,4.078
	c7.878,1.234,23.907,2.791,26.653,7.825c3.553,6.514-0.307,17.732-1.366,24.484c-3.392,21.646-6.784,43.293-10.176,64.939
	c-1.432,9.135-2.904,18.265-4.29,27.408C421.561,357.737,420.289,360.417,418.365,362.013z"/>
<polygon style="fill:#22B573;" points="378.465,235.349 435.671,244.96 418.737,349.76 360.159,339.691 "/>
<g>
	<path style="fill:none;stroke:#E6E6E6;stroke-width:3;stroke-miterlimit:10;" d="M363.384,236.556c0,0-2.243,1.505-4.986,3.345
		s-3.497,5.28-1.677,7.646s1.367,5.636-1.008,7.268s-2.829,4.902-1.009,7.268s1.366,5.636-1.009,7.268
		c-2.375,1.633-3.283,5.081-2.02,7.663s0.502,5.868-1.693,7.302c-2.196,1.435-2.52,4.234-0.718,6.223
		c1.802,1.989,1.316,4.643-1.077,5.897c-2.395,1.255-3.195,3.77-1.781,5.588c1.415,1.818,0.622,4.487-1.763,5.931
		c-2.385,1.444-3.016,4.26-1.403,6.258c1.613,1.997,2.933,3.632,2.933,3.632"/>
</g>
<g>
	<path style="fill:none;stroke:#E6E6E6;stroke-width:3;stroke-miterlimit:10;" d="M435.847,337.632c0,0,2.202-1.565,4.894-3.479
		c2.69-1.912,3.352-5.372,1.468-7.688c-1.884-2.314-1.519-5.597,0.811-7.292s2.694-4.978,0.81-7.292
		c-1.884-2.315-1.519-5.598,0.811-7.293c2.33-1.695,3.146-5.167,1.812-7.715s-0.661-5.854,1.495-7.346
		c2.156-1.493,2.402-4.301,0.547-6.24c-1.854-1.938-1.441-4.604,0.918-5.923c2.358-1.319,3.092-3.854,1.628-5.635
		s-0.743-4.47,1.601-5.978c2.345-1.507,2.899-4.339,1.232-6.292c-1.666-1.953-3.029-3.552-3.029-3.552"/>
</g>
<polyline style="fill:none;stroke:#FFFFFF;stroke-width:7;stroke-linecap:round;stroke-linejoin:round;stroke-miterlimit:10;" points="
	383.27,288.664 394.254,299.647 412.788,281.112 "/>
<path style="fill:none;stroke:#2B6DF8;stroke-width:2;stroke-miterlimit:10;stroke-dasharray:6,3;" d="M793.824,1
	c-13.847,31.337-23.384,66.232-21.384,100.732c2.313,39.924,29.719,83.359,71.884,93.736c10.637,2.618,19.783,3.541,30.725,3.53
	c18.26-0.018,37.337,3.282,51.827,14.98c14.003,11.305,20.834,29.506,35.628,41.268c16.548,13.154,35.073,12.752,55.32,12.752"/>
<g>
	<rect x="823.824" y="145.002" style="fill:#AB9D87;" width="4.574" height="16.468"/>
	<path style="fill:#22B573;" d="M837.09,146.831c0,3.79-5.12,6.862-11.436,6.862c-6.316,0-11.437-3.072-11.437-6.862
		c0-3.789,11.437-28.361,11.437-28.361S837.09,143.042,837.09,146.831z"/>
</g>
<g>
	<rect x="855.824" y="164.002" style="fill:#AB9D87;" width="4.574" height="16.468"/>
	<path style="fill:#22B573;" d="M869.09,165.831c0,3.79-5.12,6.862-11.436,6.862c-6.316,0-11.437-3.072-11.437-6.862
		c0-3.789,11.437-28.361,11.437-28.361S869.09,162.042,869.09,165.831z"/>
</g>
<path style="fill:none;stroke:#2B6DF8;stroke-width:2;stroke-miterlimit:10;stroke-dasharray:6,3;" d="M617,280.999
	c-29,65-125,26-154,73"/>
<use xlink:href="#New_Symbol_1"  width="212.46" height="115.421" id="XMLID_1_" x="-106.23" y="-57.71" transform="matrix(1 0 0 -1 727.4902 340)" style="overflow:visible;"/>
<g>
	<path style="fill:#FFFFFF;" d="M658.109,344.131c0.465,0.898,1.219,2.197,1.492,3.198c0.391,2.581-2.742,3.271-4.691,3.563
		c-1.816-0.148-2.342-0.557-3.551-1.57c-2.464-2.084-2.726-7.172-0.815-9.619c0.733-0.939,2.007-0.985,3.012-1.312
		c1.812-0.186,2.465,1.696,0.953,2.691c-0.454,0.158-0.912,0.238-1.397,0.381l-0.334,0.135c-0.443,0.823-0.568,0.899-0.629,2.034
		c-0.069,1.499,0.684,4.401,2.655,4.358c0.698,0.004,1.233-0.211,1.833-0.452c-0.111-0.213-0.263-0.462-0.469-0.845
		c-0.241-0.472-0.473-0.92-0.661-1.389C655.18,343.525,656.99,342.695,658.109,344.131z"/>
	<path style="fill:#FFFFFF;" d="M661.397,334.828l0.021-0.01c0.628-0.045,1.229-0.156,1.829-0.141
		c0.744-0.014,1.35,0.594,1.996,0.98c2.197,1.287,2.843,4.439,3.135,6.775c0.172,1.326-0.311,3.922-1.773,4.588
		c-5.449,2.447-8.539-6.594-7.338-10.615c0.105-0.379,0.572-0.824,0.795-1.042C660.516,334.949,660.97,334.793,661.397,334.828z
		 M661.976,337.619c-0.772,1.807,1.217,7.338,3.153,6.818c1.057-1.613-0.201-6.482-2.321-6.869
		C662.531,337.523,662.26,337.555,661.976,337.619z"/>
	<path style="fill:#FFFFFF;" d="M670.805,331.049l0.022-0.01c0.627-0.045,1.228-0.157,1.829-0.141
		c0.743-0.014,1.35,0.594,1.996,0.98c2.196,1.287,2.842,4.438,3.134,6.775c0.172,1.325-0.31,3.922-1.772,4.587
		c-5.45,2.448-8.539-6.593-7.339-10.614c0.106-0.379,0.572-0.824,0.795-1.042C669.924,331.17,670.377,331.014,670.805,331.049z
		 M671.383,333.839c-0.771,1.808,1.218,7.338,3.152,6.819c1.058-1.613-0.2-6.482-2.32-6.87
		C671.938,333.744,671.668,333.775,671.383,333.839z"/>
	<path style="fill:#FFFFFF;" d="M678.218,327.449c1.605-1.213,4.628-1.213,5.864,0.125c0.494,0.524,1.012,1.041,1.314,1.667
		c1.229,2.349,2.73,7.118-0.057,8.987c-0.677,0.633-1.309,1.249-2.104,1.26c-0.591,0.521-1.651,0.457-2.24-0.625
		c-0.934-2.26-2.027-4.404-3.041-6.605c-0.446-0.984-1.558-2.654-1.159-3.848C677.173,327.74,677.725,327.441,678.218,327.449z
		 M683.093,336.496c0.325-0.285,0.706-0.619,0.787-0.807c0.554-1.514-0.192-3.695-0.96-4.963c-0.688-1.195-1.062-1.355-2.344-1.203
		c-0.098,0.016-0.298,0.096-0.477,0.167c-0.013,0.03-0.035,0.04-0.057,0.048l0.535,1.336
		C681.409,332.885,682.275,334.654,683.093,336.496z"/>
	<path style="fill:#FFFFFF;" d="M696.871,321.608c1.041,2.269,1.537,3.311,2.564,5.61c0.482,1.072,1.521,2.824,1.328,4.143
		c-0.106,0.766-0.621,1.282-1.258,1.693c-1.814,1.142-3.782,0.615-4.791-1.254c-0.328-1.779,1.482-2.611,2.602-1.174
		c0.01,0.021,0.027,0.066,0.067,0.102c0.018,0.045,0.04,0.037,0.08,0.072c0.089-0.037,0.2-0.081,0.303-0.148
		c-0.272-0.743-0.675-1.613-0.956-2.25c-1.027-2.301-1.523-3.342-2.541-5.619C693.941,321.004,695.752,320.172,696.871,321.608z"/>
	<path style="fill:#FFFFFF;" d="M702.83,318.182l0.022-0.008c0.627-0.047,1.229-0.158,1.829-0.143
		c0.744-0.014,1.35,0.595,1.996,0.982c2.196,1.287,2.842,4.438,3.135,6.773c0.171,1.326-0.311,3.922-1.773,4.588
		c-5.449,2.447-8.539-6.592-7.339-10.615c0.106-0.377,0.573-0.824,0.796-1.041C701.949,318.304,702.402,318.146,702.83,318.182z
		 M703.409,320.973c-0.772,1.807,1.217,7.338,3.152,6.818c1.058-1.613-0.201-6.48-2.32-6.869
		C703.965,320.877,703.693,320.909,703.409,320.973z"/>
	<path style="fill:#FFFFFF;" d="M709.594,317.79c-0.338-0.33-0.499-0.86-0.402-1.519c0.013-0.031,0.049-0.07,0.054-0.124
		c0.167-0.739,0.772-1.163,1.444-1.097c0.517-0.26,1.379-0.684,1.543-0.725c1.451-0.376,3.099-0.004,3.787,1.451
		c0.303,0.627,0.455,1.393,0.395,2.139c2.399-0.006,3.71,1.197,3.936,3.689c0.072,0.695-0.126,1.551-0.513,2.195
		c-0.511,0.852-1.315,1.484-2.174,1.984c-0.791,0.473-2.646,1.58-3.693,0.967c-0.472-0.018-0.953-0.314-1.31-0.945
		C711.609,323.127,710.613,320.455,709.594,317.79z M712.93,318.568c0.089-0.037,0.324-0.157,0.396-0.236
		c0.071-0.211,0.159-0.375,0.218-0.553c0.021-0.139,0.008-0.366-0.095-0.686c-0.325-0.102-0.659,0.031-1.006,0.197
		C712.612,317.715,712.781,318.137,712.93,318.568z M712.938,318.59l0.01,0.023l0.045-0.019
		C712.97,318.604,712.961,318.582,712.938,318.59z M714.977,323.92c0.756-0.305,1.588-0.611,2.1-1.205
		c0.19-0.232,0.436-0.588,0.416-0.891c-0.064-1.447-1.154-1.139-2.293-0.887c-0.339,0.057-0.837,0.232-1.215,0.385
		C714.332,322.189,714.65,323.043,714.977,323.92z"/>
	<path style="fill:#FFFFFF;" d="M722.859,322.07c-0.438-1.09,0.425-2.16,1.859-1.806c1.136,0.577,1.199,1.894,1.526,3.028
		c0.034,1.822-1.866,2.301-2.759,0.722c-0.144-0.485-0.233-0.966-0.39-1.42C723.057,322.43,722.789,322.021,722.859,322.07z"/>
	<path style="fill:#FFFFFF;" d="M684.59,357.033c0.464,0.898,1.219,2.197,1.492,3.199c0.391,2.58-2.742,3.271-4.691,3.562
		c-1.816-0.148-2.342-0.557-3.551-1.57c-2.465-2.084-2.726-7.172-0.815-9.619c0.733-0.939,2.007-0.986,3.012-1.312
		c1.812-0.186,2.464,1.697,0.952,2.691c-0.454,0.156-0.912,0.238-1.396,0.381l-0.334,0.135c-0.444,0.824-0.568,0.9-0.63,2.035
		c-0.068,1.5,0.685,4.4,2.655,4.357c0.699,0.004,1.233-0.211,1.834-0.451c-0.111-0.213-0.264-0.463-0.469-0.846
		c-0.241-0.471-0.474-0.92-0.661-1.389C681.66,356.428,683.47,355.598,684.59,357.033z"/>
	<path style="fill:#FFFFFF;" d="M686.84,360.133c-0.354-1.846-0.45-3.693-0.568-5.532c-0.105-1.739-0.127-1.603-0.166-3.239
		c-0.026-0.584-0.121-1.527,0.078-2.125c0.479-1.381,2.164-1.748,3.332-1.156c1.76,0.842,3.327,3.906,4.135,5.598
		c0.344,0.662,1.014,2.459,1.104,2.682c0.795,1.98-0.957,3.021-1.995,2.172c-0.442-0.521-0.741-1.201-1-1.848
		c-0.383,0.207-0.814,0.355-1.276,0.488c-0.717,0.21-0.375,0.098-1.037,0.312c-0.045,0.018-0.059,0.049-0.103,0.066
		c0.046,0.629,0.136,1.238,0.257,1.861C689.633,361.232,687.733,361.712,686.84,360.133z M689.133,354.588
		c0.144-0.031,0.264-0.053,0.396-0.107c0.254-0.076,0.792-0.344,0.935-0.375c0.044-0.018,0.111-0.045,0.169-0.095
		c-0.281-0.507-0.598-0.974-0.901-1.472c-0.276-0.432-0.518-0.774-0.799-1.151c0.015,1.001,0.128,1.989,0.179,2.95
		C689.125,354.436,689.129,354.513,689.133,354.588z"/>
	<path style="fill:#FFFFFF;" d="M693.573,347.766c-0.339-0.328-0.5-0.857-0.403-1.518c0.014-0.029,0.049-0.07,0.054-0.124
		c0.168-0.739,0.772-1.163,1.445-1.097c0.517-0.26,1.378-0.684,1.543-0.723c1.451-0.377,3.099-0.006,3.786,1.449
		c0.305,0.627,0.456,1.393,0.395,2.141c2.4-0.008,3.711,1.195,3.937,3.688c0.072,0.694-0.126,1.55-0.513,2.195
		c-0.511,0.851-1.315,1.483-2.174,1.985c-0.791,0.472-2.646,1.578-3.693,0.967c-0.472-0.019-0.953-0.314-1.31-0.947
		C695.589,353.105,694.593,350.432,693.573,347.766z M696.908,348.545c0.09-0.035,0.325-0.156,0.396-0.236
		c0.07-0.209,0.159-0.375,0.217-0.553c0.021-0.139,0.008-0.365-0.095-0.686c-0.325-0.102-0.658,0.033-1.006,0.197
		C696.591,347.69,696.761,348.113,696.908,348.545z M696.917,348.566l0.009,0.023l0.045-0.018
		C696.949,348.581,696.939,348.558,696.917,348.566z M698.955,353.896c0.756-0.305,1.589-0.611,2.1-1.205
		c0.191-0.231,0.436-0.588,0.417-0.891c-0.064-1.447-1.154-1.139-2.294-0.887c-0.338,0.059-0.836,0.232-1.214,0.385
		C698.312,352.166,698.629,353.02,698.955,353.896z"/>
	<path style="fill:#FFFFFF;" d="M705.467,342.137c1.366,3.016,2.716,6.115,4.474,8.949c0.604,1.694-1.038,2.818-2.388,1.578
		c-1.834-2.957-3.269-6.205-4.688-9.354C702.537,341.531,704.348,340.699,705.467,342.137z"/>
	<path style="fill:#FFFFFF;" d="M712.062,338.04c1.158,3.72,1.534,5.3,2.701,9.04c0.601,2.008-1.722,2.914-2.646,1.064
		c-1.177-3.764-1.553-5.344-2.711-9.063C709.176,337.288,711.021,336.547,712.062,338.04z M715.604,352.582l-0.32,0.104
		c-2.024,0.426-2.744-1.946-0.81-2.725l0.32-0.102C716.61,349.75,717.174,351.668,715.604,352.582z"/>
</g>
<use xlink:href="#New_Symbol_1"  width="212.46" height="115.421" id="XMLID_2_" x="-106.23" y="-57.71" transform="matrix(1 0 0 -1 942.4902 340)" style="overflow:visible;"/>
<g>
	<path style="fill:#FFFFFF;" d="M873.881,323.9c1.606-1.213,4.629-1.213,5.864,0.125c0.494,0.524,1.012,1.041,1.314,1.667
		c1.229,2.349,2.73,7.118-0.057,8.987c-0.677,0.634-1.308,1.249-2.104,1.26c-0.591,0.521-1.65,0.457-2.239-0.625
		c-0.935-2.26-2.028-4.404-3.042-6.605c-0.446-0.983-1.558-2.654-1.158-3.848C872.836,324.191,873.388,323.893,873.881,323.9z
		 M878.756,332.947c0.325-0.285,0.706-0.619,0.787-0.807c0.554-1.514-0.192-3.695-0.96-4.962c-0.688-1.196-1.062-1.356-2.344-1.203
		c-0.098,0.015-0.298,0.095-0.476,0.166c-0.014,0.03-0.036,0.04-0.058,0.048l0.535,1.336
		C877.072,329.336,877.938,331.105,878.756,332.947z"/>
	<path style="fill:#FFFFFF;" d="M885.729,319.762l0.021-0.008c0.628-0.047,1.229-0.158,1.829-0.143
		c0.744-0.014,1.35,0.595,1.996,0.981c2.196,1.288,2.842,4.438,3.135,6.774c0.171,1.326-0.311,3.922-1.773,4.588
		c-5.449,2.447-8.539-6.593-7.339-10.615c0.106-0.377,0.573-0.824,0.796-1.041C884.847,319.884,885.3,319.727,885.729,319.762z
		 M886.307,322.553c-0.772,1.807,1.217,7.338,3.152,6.818c1.058-1.613-0.201-6.48-2.32-6.869
		C886.862,322.457,886.591,322.489,886.307,322.553z"/>
	<path style="fill:#FFFFFF;" d="M892.492,319.37c-0.339-0.33-0.5-0.86-0.403-1.519c0.014-0.031,0.049-0.07,0.054-0.124
		c0.167-0.739,0.772-1.163,1.444-1.098c0.517-0.259,1.379-0.683,1.544-0.724c1.45-0.376,3.098-0.004,3.786,1.451
		c0.304,0.627,0.455,1.393,0.395,2.139c2.399-0.006,3.71,1.197,3.936,3.689c0.073,0.695-0.126,1.551-0.513,2.195
		c-0.511,0.852-1.315,1.484-2.174,1.984c-0.791,0.473-2.646,1.58-3.693,0.967c-0.472-0.018-0.952-0.314-1.31-0.945
		C894.507,324.707,893.511,322.035,892.492,319.37z M895.827,320.148c0.089-0.037,0.324-0.158,0.396-0.236
		c0.071-0.211,0.159-0.375,0.218-0.553c0.021-0.139,0.008-0.366-0.095-0.686c-0.325-0.102-0.659,0.031-1.006,0.196
		C895.51,319.294,895.679,319.716,895.827,320.148z M895.836,320.17l0.009,0.023l0.045-0.02
		C895.867,320.184,895.858,320.161,895.836,320.17z M897.874,325.5c0.756-0.305,1.588-0.612,2.1-1.205
		c0.19-0.232,0.436-0.588,0.416-0.891c-0.064-1.447-1.154-1.139-2.293-0.887c-0.338,0.057-0.837,0.232-1.215,0.385
		C897.23,323.77,897.548,324.623,897.874,325.5z"/>
	<path style="fill:#FFFFFF;" d="M901.609,314.932c-0.53-0.484-0.567-1.348,0.041-1.955c0.191-0.23,0.432-0.406,0.716-0.467
		c1.971-0.818,4.239-2.504,6.453-1.561c3.314,1.434,2.682,4.684,0.682,6.779c1.158,0.696,2.699,1.189,3.772,1.094
		c1.772,0.424,1.793,2.405,0.044,2.875c-1.896,0.168-4.71-0.922-6.373-2.296l-0.111,0.045c0.522,1.106,1.032,2.246,1.51,3.372
		c0.688,1.971-1.59,2.988-2.603,1.174C904.431,320.928,902.931,317.965,901.609,314.932z M905.605,316.84l0.733-0.295
		c0.294-0.17,0.627-0.303,0.881-0.51c1.089-0.824,1.759-2.438-0.19-2.402c-0.819,0.019-1.673,0.465-2.474,0.916
		C904.89,315.318,905.247,316.08,905.605,316.84z"/>
	<path style="fill:#FFFFFF;" d="M915.183,319.915c-0.354-1.847-0.45-3.694-0.569-5.532c-0.104-1.74-0.127-1.602-0.165-3.24
		c-0.027-0.582-0.122-1.527,0.077-2.124c0.479-1.38,2.165-1.749,3.333-1.157c1.759,0.844,3.326,3.908,4.135,5.599
		c0.343,0.661,1.014,2.459,1.104,2.683c0.795,1.979-0.957,3.02-1.995,2.17c-0.442-0.52-0.741-1.201-1.001-1.846
		c-0.382,0.205-0.813,0.354-1.275,0.486c-0.718,0.211-0.375,0.099-1.038,0.314c-0.044,0.018-0.058,0.049-0.102,0.066
		c0.045,0.627,0.135,1.236,0.256,1.859C917.976,321.015,916.075,321.494,915.183,319.915z M917.476,314.369
		c0.143-0.031,0.263-0.053,0.396-0.106c0.254-0.077,0.792-0.345,0.934-0.376c0.045-0.018,0.111-0.044,0.17-0.094
		c-0.281-0.507-0.599-0.975-0.901-1.473c-0.276-0.43-0.519-0.773-0.799-1.15c0.015,1,0.128,1.988,0.179,2.95
		C917.467,314.219,917.472,314.295,917.476,314.369z"/>
	<path style="fill:#FFFFFF;" d="M872.733,350.072c-0.529-0.484-0.566-1.348,0.042-1.954c0.19-0.231,0.431-0.405,0.716-0.468
		c1.971-0.818,4.238-2.504,6.452-1.559c3.314,1.432,2.683,4.682,0.683,6.779c1.158,0.695,2.699,1.188,3.771,1.093
		c1.772,0.425,1.793,2.405,0.045,2.876c-1.896,0.166-4.711-0.924-6.373-2.298l-0.111,0.045c0.521,1.108,1.031,2.247,1.51,3.373
		c0.688,1.97-1.59,2.989-2.604,1.173C875.556,356.068,874.056,353.107,872.733,350.072z M876.729,351.98l0.734-0.294
		c0.293-0.171,0.627-0.304,0.881-0.511c1.089-0.824,1.759-2.436-0.191-2.402c-0.819,0.019-1.672,0.466-2.474,0.916
		C876.015,350.459,876.372,351.221,876.729,351.98z"/>
	<path style="fill:#FFFFFF;" d="M886.654,342.93l0.022-0.008c0.627-0.047,1.229-0.158,1.829-0.141
		c0.743-0.016,1.35,0.594,1.996,0.98c2.196,1.287,2.842,4.438,3.135,6.773c0.171,1.326-0.311,3.922-1.774,4.588
		c-5.449,2.447-8.538-6.592-7.338-10.613c0.106-0.379,0.573-0.824,0.795-1.043C885.773,343.051,886.227,342.896,886.654,342.93z
		 M887.233,345.721c-0.772,1.809,1.217,7.338,3.152,6.82c1.058-1.613-0.201-6.482-2.32-6.871
		C887.789,345.627,887.518,345.658,887.233,345.721z"/>
	<path style="fill:#FFFFFF;" d="M893.418,342.537c-0.339-0.328-0.5-0.857-0.403-1.518c0.014-0.029,0.049-0.07,0.054-0.125
		c0.169-0.738,0.772-1.162,1.445-1.096c0.517-0.26,1.378-0.684,1.544-0.723c1.45-0.377,3.098-0.006,3.785,1.449
		c0.305,0.627,0.456,1.393,0.396,2.141c2.399-0.009,3.71,1.195,3.936,3.688c0.072,0.694-0.126,1.551-0.513,2.196
		c-0.511,0.851-1.315,1.483-2.174,1.985c-0.791,0.472-2.646,1.578-3.693,0.967c-0.472-0.02-0.953-0.315-1.31-0.947
		C895.434,347.877,894.438,345.203,893.418,342.537z M896.754,343.316c0.089-0.035,0.324-0.156,0.396-0.236
		c0.07-0.209,0.159-0.375,0.217-0.553c0.022-0.139,0.008-0.365-0.094-0.686c-0.326-0.102-0.659,0.033-1.007,0.197
		C896.436,342.462,896.605,342.885,896.754,343.316z M896.763,343.338l0.009,0.023l0.045-0.018
		C896.794,343.353,896.784,343.329,896.763,343.338z M898.8,348.668c0.757-0.305,1.589-0.611,2.1-1.205
		c0.191-0.231,0.436-0.588,0.417-0.891c-0.064-1.447-1.154-1.139-2.294-0.887c-0.338,0.059-0.836,0.232-1.214,0.385
		C898.157,346.938,898.474,347.791,898.8,348.668z"/>
	<path style="fill:#FFFFFF;" d="M906.07,335.13l0.021-0.009c0.628-0.045,1.229-0.158,1.829-0.141c0.744-0.016,1.35,0.594,1.996,0.98
		c2.197,1.287,2.843,4.439,3.135,6.775c0.172,1.326-0.31,3.922-1.773,4.588c-5.449,2.445-8.539-6.594-7.338-10.615
		c0.105-0.379,0.572-0.824,0.795-1.043C905.188,335.252,905.643,335.096,906.07,335.13z M906.648,337.92
		c-0.771,1.809,1.217,7.338,3.153,6.82c1.057-1.613-0.201-6.482-2.32-6.869C907.204,337.826,906.934,337.857,906.648,337.92z"/>
	<path style="fill:#FFFFFF;" d="M911.94,333.029c2.99-1.304,4.648-2.514,7.616-3.809c1.812-0.185,2.464,1.697,0.951,2.692
		c-0.961,0.437-1.912,0.897-2.855,1.38c0.854,2.963,2.448,5.707,3.646,8.559c0.688,1.971-1.589,2.988-2.603,1.174
		c-1.201-2.797-2.724-5.492-3.626-8.385c-1.091,0.566-1.051,0.604-2.176,1.08C910.882,336.246,910.042,333.896,911.94,333.029z"/>
	<path style="fill:#FFFFFF;" d="M925.005,339.51c-0.354-1.847-0.45-3.694-0.569-5.533c-0.104-1.739-0.127-1.602-0.165-3.24
		c-0.027-0.582-0.122-1.525,0.078-2.123c0.478-1.381,2.164-1.748,3.332-1.156c1.759,0.842,3.326,3.906,4.135,5.598
		c0.343,0.662,1.014,2.459,1.104,2.682c0.795,1.979-0.957,3.02-1.996,2.17c-0.441-0.52-0.74-1.199-1-1.846
		c-0.382,0.206-0.813,0.354-1.275,0.488c-0.717,0.209-0.375,0.098-1.038,0.312c-0.044,0.018-0.058,0.049-0.102,0.066
		c0.045,0.629,0.135,1.238,0.256,1.861C927.798,340.609,925.897,341.088,925.005,339.51z M927.298,333.963
		c0.143-0.031,0.263-0.051,0.396-0.105c0.254-0.076,0.792-0.346,0.934-0.375c0.045-0.018,0.111-0.045,0.17-0.096
		c-0.281-0.506-0.599-0.973-0.902-1.471c-0.275-0.432-0.517-0.775-0.799-1.152c0.016,1.002,0.128,1.99,0.179,2.951
		C927.289,333.812,927.294,333.889,927.298,333.963z"/>
	<path style="fill:#FFFFFF;" d="M934.995,335.443c-0.438-1.09,0.424-2.158,1.858-1.805c1.136,0.578,1.2,1.895,1.527,3.029
		c0.033,1.821-1.866,2.3-2.759,0.721c-0.144-0.484-0.233-0.967-0.39-1.42C935.191,335.805,934.925,335.396,934.995,335.443z"/>
	<path style="fill:#FFFFFF;" d="M903.064,367.861c0.465,0.899,1.219,2.197,1.491,3.199c0.392,2.582-2.742,3.271-4.691,3.562
		c-1.815-0.148-2.342-0.557-3.55-1.568c-2.465-2.086-2.726-7.172-0.815-9.619c0.733-0.94,2.006-0.986,3.012-1.314
		c1.812-0.184,2.465,1.697,0.952,2.691c-0.454,0.158-0.912,0.238-1.397,0.383l-0.333,0.133c-0.444,0.824-0.569,0.9-0.63,2.035
		c-0.068,1.5,0.684,4.4,2.655,4.358c0.699,0.004,1.233-0.21,1.833-0.452c-0.11-0.213-0.263-0.463-0.468-0.846
		c-0.241-0.471-0.474-0.92-0.661-1.387C900.135,367.258,901.944,366.427,903.064,367.861z"/>
	<path style="fill:#FFFFFF;" d="M905.315,370.961c-0.355-1.846-0.451-3.693-0.569-5.531c-0.105-1.74-0.128-1.604-0.165-3.24
		c-0.027-0.583-0.123-1.527,0.077-2.123c0.478-1.381,2.165-1.749,3.332-1.158c1.759,0.844,3.327,3.908,4.135,5.598
		c0.344,0.664,1.015,2.461,1.104,2.684c0.795,1.979-0.957,3.018-1.995,2.17c-0.441-0.52-0.741-1.201-1-1.846
		c-0.383,0.205-0.814,0.354-1.276,0.488c-0.717,0.209-0.375,0.096-1.038,0.312c-0.044,0.018-0.058,0.049-0.102,0.066
		c0.046,0.628,0.136,1.237,0.257,1.861C908.107,372.061,906.208,372.541,905.315,370.961z M907.607,365.416
		c0.144-0.031,0.263-0.055,0.396-0.107c0.254-0.075,0.792-0.344,0.935-0.375c0.044-0.019,0.111-0.045,0.169-0.094
		c-0.281-0.506-0.599-0.975-0.901-1.473c-0.276-0.43-0.518-0.773-0.799-1.15c0.015,1.001,0.128,1.988,0.178,2.951
		C907.599,365.266,907.604,365.341,907.607,365.416z"/>
	<path style="fill:#FFFFFF;" d="M912.048,358.596c-0.338-0.329-0.5-0.859-0.403-1.518c0.014-0.031,0.05-0.072,0.054-0.125
		c0.168-0.738,0.772-1.164,1.445-1.098c0.516-0.258,1.378-0.684,1.543-0.723c1.451-0.377,3.099-0.004,3.787,1.449
		c0.303,0.629,0.455,1.393,0.394,2.141c2.399-0.008,3.71,1.197,3.937,3.689c0.072,0.693-0.127,1.549-0.513,2.194
		c-0.511,0.852-1.315,1.485-2.174,1.985c-0.791,0.473-2.646,1.58-3.693,0.967c-0.472-0.018-0.953-0.314-1.31-0.947
		C914.063,363.934,913.067,361.26,912.048,358.596z M915.383,359.375c0.089-0.037,0.325-0.158,0.396-0.238
		c0.072-0.209,0.16-0.375,0.218-0.553c0.022-0.137,0.009-0.365-0.095-0.684c-0.325-0.104-0.658,0.031-1.006,0.196
		C915.065,358.52,915.235,358.941,915.383,359.375z M915.392,359.396l0.01,0.021l0.045-0.018
		C915.423,359.409,915.414,359.387,915.392,359.396z M917.431,364.725c0.756-0.303,1.588-0.611,2.099-1.203
		c0.19-0.233,0.436-0.59,0.417-0.893c-0.064-1.445-1.154-1.137-2.294-0.887c-0.338,0.059-0.837,0.232-1.214,0.385
		C916.786,362.994,917.104,363.85,917.431,364.725z"/>
	<path style="fill:#FFFFFF;" d="M923.941,352.965c1.366,3.016,2.716,6.117,4.474,8.949c0.604,1.695-1.038,2.82-2.389,1.58
		c-1.833-2.958-3.268-6.205-4.688-9.355C921.012,352.359,922.822,351.527,923.941,352.965z"/>
	<path style="fill:#FFFFFF;" d="M930.536,348.868c1.158,3.721,1.533,5.3,2.701,9.042c0.6,2.006-1.722,2.914-2.646,1.062
		c-1.177-3.764-1.553-5.343-2.711-9.062C927.65,348.116,929.496,347.375,930.536,348.868z M934.078,363.41l-0.319,0.104
		c-2.025,0.426-2.746-1.946-0.811-2.725l0.32-0.102C935.085,360.578,935.648,362.496,934.078,363.41z"/>
</g>
<path style="fill:none;stroke:#2B6DF8;stroke-width:2;stroke-miterlimit:10;stroke-dasharray:6,3;" d="M1021.679,2.295
	c65,37,59,115,1,146"/>
<g>
</g>
<g>
</g>
<g>
</g>
<g>
</g>
<g>
</g>
<g>
</g>
<g>
</g>
<g>
</g>
<g>
</g>
<g>
</g>
<g>
</g>
<g>
</g>
<g>
</g>
<g>
</g>
<g>
</g>
<g>
</g>
<g>
</g>
<g>
</g>
<g>
</g>
<g>
</g>
<g>
</g>
</svg>
