<?xml version="1.0" encoding="iso-8859-1"?>
<!-- Generator: Adobe Illustrator 16.0.4, SVG Export Plug-In . SVG Version: 6.00 Build 0)  -->
<!DOCTYPE svg PUBLIC "-//W3C//DTD SVG 1.1//EN" "http://www.w3.org/Graphics/SVG/1.1/DTD/svg11.dtd">
<svg version="1.1" id="Layer_1" xmlns="http://www.w3.org/2000/svg" xmlns:xlink="http://www.w3.org/1999/xlink" x="0px" y="0px"
	 width="1200px" height="840px" viewBox="0 0 1200 840" style="enable-background:new 0 0 1200 840;" xml:space="preserve">
<symbol  id="New_Symbol_6" viewBox="-11.436 -21.5 22.872 43">
	<polygon style="fill:#9FBBE0;" points="2.744,-21.5 -1.83,-21.5 -1.83,-5.032 2.744,-5.032 	"/>
	<path style="fill:#C3D3E8;" d="M11.436-6.861c0-3.79-5.12-6.862-11.436-6.862c-6.316,0-11.437,3.072-11.437,6.862
		C-11.437-3.072,0,21.5,0,21.5S11.436-3.072,11.436-6.861z"/>
</symbol>
<use xlink:href="#New_Symbol_6"  width="22.872" height="43" x="-11.436" y="-21.5" transform="matrix(1 0 0 -1 1077.5 149.6587)" style="overflow:visible;opacity:0.5;"/>
<use xlink:href="#New_Symbol_6"  width="22.872" height="43" x="-11.436" y="-21.5" transform="matrix(1 0 0 -1 1118.5 118.6587)" style="overflow:visible;opacity:0.5;"/>
<use xlink:href="#New_Symbol_6"  width="22.872" height="43" x="-11.436" y="-21.5" transform="matrix(1 0 0 -1 1115.5 185.6587)" style="overflow:visible;opacity:0.5;"/>
<use xlink:href="#New_Symbol_6"  width="22.872" height="43" x="-11.436" y="-21.5" transform="matrix(1 0 0 -1 1040.1709 591.2705)" style="overflow:visible;opacity:0.5;"/>
<use xlink:href="#New_Symbol_6"  width="22.872" height="43" x="-11.436" y="-21.5" transform="matrix(1 0 0 -1 1081.1709 560.2705)" style="overflow:visible;opacity:0.5;"/>
<use xlink:href="#New_Symbol_6"  width="22.872" height="43" x="-11.436" y="-21.5" transform="matrix(1 0 0 -1 1135.1709 599.2705)" style="overflow:visible;opacity:0.5;"/>
<use xlink:href="#New_Symbol_6"  width="22.872" height="43" x="-11.436" y="-21.5" transform="matrix(1 0 0 -1 1084.1709 624.2705)" style="overflow:visible;opacity:0.5;"/>
<use xlink:href="#New_Symbol_6"  width="22.872" height="43" x="-11.436" y="-21.5" transform="matrix(1 0 0 -1 131.501 34.27)" style="overflow:visible;opacity:0.5;"/>
<use xlink:href="#New_Symbol_6"  width="22.872" height="43" x="-11.436" y="-21.5" transform="matrix(1 0 0 -1 93.501 24.27)" style="overflow:visible;opacity:0.5;"/>
<use xlink:href="#New_Symbol_6"  width="22.872" height="43" x="-11.436" y="-21.5" transform="matrix(1 0 0 -1 56.501 65.27)" style="overflow:visible;opacity:0.5;"/>
<use xlink:href="#New_Symbol_6"  width="22.872" height="43" x="-11.436" y="-21.5" transform="matrix(1 0 0 -1 154.5 406.6587)" style="overflow:visible;opacity:0.5;"/>
<use xlink:href="#New_Symbol_6"  width="22.872" height="43" x="-11.436" y="-21.5" transform="matrix(1 0 0 -1 122.5 449.6587)" style="overflow:visible;opacity:0.5;"/>
<use xlink:href="#New_Symbol_6"  width="22.872" height="43" x="-11.436" y="-21.5" transform="matrix(1 0 0 -1 100.5 400.6587)" style="overflow:visible;opacity:0.5;"/>
<use xlink:href="#New_Symbol_6"  width="22.872" height="43" x="-11.436" y="-21.5" transform="matrix(1 0 0 -1 153.5 736.6587)" style="overflow:visible;opacity:0.5;"/>
<use xlink:href="#New_Symbol_6"  width="22.872" height="43" x="-11.436" y="-21.5" transform="matrix(1 0 0 -1 163.5 798.6587)" style="overflow:visible;opacity:0.5;"/>
<use xlink:href="#New_Symbol_6"  width="22.872" height="43" x="-11.436" y="-21.5" transform="matrix(1 0 0 -1 207.5 753.6587)" style="overflow:visible;opacity:0.5;"/>
<use xlink:href="#New_Symbol_6"  width="22.872" height="43" x="-11.436" y="-21.5" transform="matrix(1 0 0 -1 99.5 730.6587)" style="overflow:visible;opacity:0.5;"/>
<g>
</g>
<g>
</g>
<g>
</g>
<g>
</g>
<g>
</g>
<g>
</g>
<g>
</g>
<g>
</g>
<g>
</g>
<g>
</g>
<g>
</g>
<g>
</g>
<g>
</g>
<g>
</g>
<g>
</g>
<g>
</g>
<g>
</g>
<g>
</g>
</svg>
