<?xml version="1.0" encoding="iso-8859-1"?>
<!-- Generator: Adobe Illustrator 16.0.4, SVG Export Plug-In . SVG Version: 6.00 Build 0)  -->
<!DOCTYPE svg PUBLIC "-//W3C//DTD SVG 1.1//EN" "http://www.w3.org/Graphics/SVG/1.1/DTD/svg11.dtd">
<svg version="1.1" id="Layer_1" xmlns="http://www.w3.org/2000/svg" xmlns:xlink="http://www.w3.org/1999/xlink" x="0px" y="0px"
	 width="680px" height="135px" viewBox="0 0 680 135" style="enable-background:new 0 0 680 135;" xml:space="preserve">
<g>
	<path style="fill:#FFFFFF;" d="M128.897,36.012c-17.837,0-32.443,14.605-32.443,32.443c0,17.967,14.606,32.443,32.443,32.443
		c17.838,0,32.443-14.477,32.573-32.313C161.341,50.617,146.735,36.012,128.897,36.012z M128.897,85
		c-9.177,0-16.545-7.367-16.545-16.545c0-9.178,7.369-16.546,16.545-16.546c9.178,0,16.544,7.368,16.544,16.546
		C145.441,77.633,138.075,85,128.897,85z"/>
	<path style="fill:#FFFFFF;" d="M298.051,52.04c-4.654-7.756-12.15-13.185-20.939-14.865c-1.939-0.387-3.749-0.519-5.688-0.519
		c-17.966,0-32.313,14.736-32.313,32.445c0,17.967,14.348,32.443,32.313,32.443c7.368,0,17.321-2.328,24.43-9.178
		c3.103-2.973,3.231-8.013,0.13-10.987c-2.973-3.103-7.885-3.103-10.986-0.128c-3.361,3.23-9.437,4.91-13.573,4.91
		c-8.014,0-14.604-5.686-16.415-13.054h39.811c3.104,0,5.301-2.198,6.334-4.653c0.518-1.293,1.035-2.585,1.035-3.749
		C302.445,60.44,300.119,55.658,298.051,52.04z M257.205,60.053c3.102-4.781,8.273-7.755,14.218-7.755
		c5.817,0,10.6,2.843,13.186,7.755H257.205z"/>
	<path style="fill:#FFFFFF;" d="M341.331,51.522c4.523,0,8.79,1.68,12.021,4.783c3.102,2.972,8.013,2.843,10.985-0.26
		c2.975-2.972,2.846-8.012-0.258-10.855c-6.203-6.077-14.346-9.307-23.007-9.178c-8.66,0.257-16.674,3.747-22.62,9.952
		c-6.204,6.206-9.307,14.477-9.177,23.008c0.258,8.661,3.747,16.675,9.951,22.749c6.076,5.816,13.961,9.049,22.491,9.049h0.518
		c8.015-0.13,15.641-3.232,21.456-8.66c3.104-2.975,3.362-7.887,0.388-10.988c-2.844-3.102-7.882-3.36-10.856-0.386
		c-3.102,2.843-7.108,4.523-11.375,4.523c-4.396,0.129-8.66-1.552-11.893-4.782c-3.231-2.973-5.17-7.368-5.17-11.764
		c-0.129-4.523,1.681-8.789,4.654-12.021C332.671,53.461,336.807,51.522,341.331,51.522z"/>
	<path style="fill:#FFFFFF;" d="M403.743,50.617c4.264,0,7.753-3.49,7.753-7.754c0-4.267-3.489-7.755-7.753-7.755h-4.267V10.419
		c0-4.267-3.491-7.757-7.757-7.757c-4.267,0-7.753,3.49-7.753,7.757v24.688h-5.561c-4.266,0-7.755,3.488-7.755,7.755
		c0,4.264,3.489,7.754,7.755,7.754h5.561V83.19c0,4.008,1.808,8.66,4.395,11.632c2.971,3.361,7.107,5.171,11.374,5.817
		c1.162,0.13,2.195,0.13,3.359,0.13c4.267,0,7.755-3.36,7.755-7.756c0-4.266-3.488-7.755-7.755-7.755
		c-0.904,0-2.068,0.129-2.714-0.517c-0.904-0.777-0.646-2.326-0.904-3.362V50.617H403.743z"/>
	<path style="fill:#FFFFFF;" d="M429.321,8.737c-4.524,0-8.145,3.49-8.145,8.015v0.647c0,4.264,3.62,7.883,8.145,7.883
		c4.267,0,7.885-3.619,7.885-7.883v-0.647C437.206,12.228,433.588,8.737,429.321,8.737z"/>
	<path style="fill:#FFFFFF;" d="M671.095,36.788c-4.004,0-7.495,3.488-7.495,7.755v23.396c0,8.919-6.595,16.284-14.735,16.284
		c-8.011,0-14.606-7.365-14.606-16.284V44.801c0-4.137-3.361-7.756-7.498-7.756c-4.133,0-7.495,3.619-7.495,7.756v23.138
		c0,17.577,13.314,31.798,29.6,31.798c5.433,0,10.47-1.553,14.735-4.008v5.3c0,9.435-7.494,17.19-16.672,17.19
		c-4.783,0-9.437-2.197-12.67-5.945c-2.716-3.361-7.498-3.75-10.598-0.906c-3.104,2.844-3.491,7.758-0.775,10.988
		c6.074,7.238,14.731,11.374,24.043,11.374c17.447,0,31.795-14.735,31.795-32.701V44.543
		C678.723,40.275,675.36,36.788,671.095,36.788z"/>
	<linearGradient id="SVGID_1_" gradientUnits="userSpaceOnUse" x1="34.1616" y1="114.0723" x2="45.1743" y2="105.7043">
		<stop  offset="0" style="stop-color:#98B8FC"/>
		<stop  offset="0.0885" style="stop-color:#A3C0FC"/>
		<stop  offset="0.5055" style="stop-color:#D5E2FE"/>
		<stop  offset="0.8225" style="stop-color:#F3F7FF"/>
		<stop  offset="1" style="stop-color:#FFFFFF"/>
	</linearGradient>
	<path style="fill:url(#SVGID_1_);" d="M51.502,101.156c1.417,0,2.825-0.07,4.224-0.193l-8.607-0.014
		C48.564,101.078,50.024,101.156,51.502,101.156z"/>
	<path style="fill:none;" d="M17.056,100.898l30.063,0.051c-11.84-1.062-22.481-6.367-30.397-14.385L17.056,100.898z"/>
	<linearGradient id="SVGID_2_" gradientUnits="userSpaceOnUse" x1="587.2705" y1="84.0107" x2="590.7576" y2="74.8059">
		<stop  offset="0" style="stop-color:#98B8FC"/>
		<stop  offset="0.0885" style="stop-color:#A3C0FC"/>
		<stop  offset="0.5055" style="stop-color:#D5E2FE"/>
		<stop  offset="0.8225" style="stop-color:#F3F7FF"/>
		<stop  offset="1" style="stop-color:#FFFFFF"/>
	</linearGradient>
	<path style="fill:url(#SVGID_2_);" d="M612.166,93.273c0-4.266-3.491-7.758-7.882-7.758c-1.167,0-2.07-1.033-2.07-2.196
		c0-0.388-0.129-0.776-0.129-1.163c0-0.388,0.129-0.776,0.129-1.164V10.805c0-4.264-3.491-7.755-7.887-7.755
		c-4.262,0-7.753,3.491-7.753,7.755v66.568c0,1.286-0.01,2.553,0.009,3.802l21.352,10.659l1.21,7.66
		C610.987,98.059,612.166,95.82,612.166,93.273z"/>
	<path style="fill:none;" d="M546.786,52.298c-5.947,0-11.117,2.974-14.22,7.755h27.4C557.384,55.141,552.602,52.298,546.786,52.298
		z"/>
	<linearGradient id="SVGID_3_" gradientUnits="userSpaceOnUse" x1="418.9668" y1="95.4229" x2="421.8526" y2="87.7418">
		<stop  offset="0" style="stop-color:#98B8FC"/>
		<stop  offset="0.0885" style="stop-color:#A3C0FC"/>
		<stop  offset="0.5055" style="stop-color:#D5E2FE"/>
		<stop  offset="0.8225" style="stop-color:#F3F7FF"/>
		<stop  offset="1" style="stop-color:#FFFFFF"/>
	</linearGradient>
	<path style="fill:url(#SVGID_3_);" d="M437.206,93.143V43.25c0-4.395-3.618-7.885-7.885-7.885c-4.524,0-8.145,3.49-8.145,7.885
		v49.893l12.573,6.592C435.818,98.283,437.206,95.863,437.206,93.143z"/>
	<linearGradient id="SVGID_4_" gradientUnits="userSpaceOnUse" x1="491.7344" y1="90.7695" x2="488.8723" y2="81.182">
		<stop  offset="0" style="stop-color:#98B8FC"/>
		<stop  offset="0.0885" style="stop-color:#A3C0FC"/>
		<stop  offset="0.5055" style="stop-color:#D5E2FE"/>
		<stop  offset="0.8225" style="stop-color:#F3F7FF"/>
		<stop  offset="1" style="stop-color:#FFFFFF"/>
	</linearGradient>
	<path style="fill:url(#SVGID_4_);" d="M505.83,38.855c-3.747-1.939-8.271-0.387-10.211,3.36L478.172,76.21l-17.451-34.899
		c-1.938-3.879-6.462-5.299-10.211-3.49c-3.879,1.938-5.3,6.462-3.491,10.341l23.704,47.282l14-8.61l4.145,2.016l20.325-39.784
		C511.132,45.317,509.58,40.794,505.83,38.855z"/>
	<path style="fill:#FFFFFF;" d="M552.473,37.175c-1.939-0.387-3.75-0.519-5.687-0.519c-17.969,0-32.316,14.736-32.316,32.445
		c0,17.967,14.348,32.443,32.316,32.443c7.365,0,17.317-2.328,24.43-9.178c3.099-2.973,3.229-8.013,0.127-10.987
		c-2.973-3.103-7.885-3.103-10.988-0.128c-3.357,3.23-9.435,4.91-13.568,4.91c-8.016,0-14.608-5.686-16.419-13.054h39.811
		c3.104,0,5.3-2.198,6.337-4.653c0.517-1.293,1.033-2.585,1.033-3.749c0.259-4.266-2.07-9.049-4.137-12.667
		C568.758,44.283,561.261,38.855,552.473,37.175z M532.566,60.053c3.103-4.781,8.272-7.755,14.22-7.755
		c5.815,0,10.598,2.843,13.181,7.755H532.566z"/>
	<linearGradient id="SVGID_5_" gradientUnits="userSpaceOnUse" x1="203.1514" y1="90.1572" x2="197.4844" y2="79.8237">
		<stop  offset="0" style="stop-color:#98B8FC"/>
		<stop  offset="0.0885" style="stop-color:#A3C0FC"/>
		<stop  offset="0.5055" style="stop-color:#D5E2FE"/>
		<stop  offset="0.8225" style="stop-color:#F3F7FF"/>
		<stop  offset="1" style="stop-color:#FFFFFF"/>
	</linearGradient>
	<path style="fill:url(#SVGID_5_);" d="M190.143,85.516c-1.164,0-2.068-1.033-2.068-2.196c0-0.388-0.129-0.776-0.129-1.163
		c0-0.388,0.129-0.776,0.129-1.164V10.805c0-4.264-3.489-7.755-7.885-7.755c-4.265,0-7.755,3.491-7.755,7.755v66.568
		c0,6.075-0.259,11.762,3.619,16.805c1.053,1.335,2.295,2.519,3.672,3.514l17.292-8.215
		C195.674,87.119,193.118,85.516,190.143,85.516z"/>
	<linearGradient id="SVGID_6_" gradientUnits="userSpaceOnUse" x1="207.2261" y1="89.1416" x2="211.3711" y2="78.1091">
		<stop  offset="0" style="stop-color:#98B8FC"/>
		<stop  offset="0.0885" style="stop-color:#A3C0FC"/>
		<stop  offset="0.5055" style="stop-color:#D5E2FE"/>
		<stop  offset="0.8225" style="stop-color:#F3F7FF"/>
		<stop  offset="1" style="stop-color:#FFFFFF"/>
	</linearGradient>
	<path style="fill:url(#SVGID_6_);" d="M233.95,93.273c0-4.266-3.49-7.758-7.886-7.758c-1.163,0-2.067-1.033-2.067-2.196
		c0-0.388-0.129-0.776-0.129-1.163c0-0.388,0.129-0.776,0.129-1.164V10.805c0-4.264-3.49-7.755-7.884-7.755
		c-4.267,0-7.757,3.491-7.757,7.755v66.568c0,3.485-0.081,6.842,0.579,10.023l22.244,11.897
		C232.879,97.854,233.95,95.703,233.95,93.273z"/>
	<linearGradient id="SVGID_7_" gradientUnits="userSpaceOnUse" x1="10.6611" y1="83.1406" x2="21.6723" y2="74.7738">
		<stop  offset="0" style="stop-color:#98B8FC"/>
		<stop  offset="0.0885" style="stop-color:#A3C0FC"/>
		<stop  offset="0.5055" style="stop-color:#D5E2FE"/>
		<stop  offset="0.8225" style="stop-color:#F3F7FF"/>
		<stop  offset="1" style="stop-color:#FFFFFF"/>
	</linearGradient>
	<path style="fill:url(#SVGID_7_);" d="M85.368,76.984c-2.974-3.1-7.884-3.359-10.988-0.387c-6.203,5.818-14.347,8.918-22.878,8.918
		c-18.483,0-33.478-14.993-33.478-33.476c0-18.484,14.995-33.478,33.478-33.478c8.273,0,16.287,2.973,22.49,8.531
		c3.103,2.843,8.015,2.584,10.858-0.517c2.974-3.233,2.714-8.145-0.517-10.988C75.287,7.445,63.653,3.05,51.502,3.05
		c-27.015,0-48.989,21.975-48.989,48.99c0,4.058,0.505,8.001,1.439,11.779l12.437,8.515l0.333,14.23
		c7.916,8.018,18.557,13.323,30.397,14.385l8.607,0.014c10.863-0.953,21.124-5.549,29.254-12.991
		C88.083,85,88.212,80.088,85.368,76.984z"/>
</g>
<g>
</g>
<g>
</g>
<g>
</g>
<g>
</g>
<g>
</g>
<g>
</g>
<g>
</g>
<g>
</g>
<g>
</g>
<g>
</g>
<g>
</g>
<g>
</g>
<g>
</g>
<g>
</g>
<g>
</g>
</svg>
