<?xml version="1.0" encoding="iso-8859-1"?>
<!-- Generator: Adobe Illustrator 16.0.4, SVG Export Plug-In . SVG Version: 6.00 Build 0)  -->
<!DOCTYPE svg PUBLIC "-//W3C//DTD SVG 1.1//EN" "http://www.w3.org/Graphics/SVG/1.1/DTD/svg11.dtd">
<svg version="1.1" id="Layer_1" xmlns="http://www.w3.org/2000/svg" xmlns:xlink="http://www.w3.org/1999/xlink" x="0px" y="0px"
	 width="180px" height="120px" viewBox="0 0 180 120" style="enable-background:new 0 0 180 120;" xml:space="preserve">
<g>
	<g>
		<g>
			<path style="fill:#FFFFFF;" d="M20.428,104.669c-1.621,1.52-3.749,2.33-5.979,2.33c-4.83,0-8.748-3.918-8.748-8.747
				c0-4.831,3.918-8.749,8.748-8.749c2.162,0,4.256,0.777,5.877,2.229c0.811,0.743,2.095,0.675,2.838-0.135
				c0.776-0.845,0.709-2.128-0.136-2.871c-2.364-2.128-5.404-3.276-8.579-3.276c-7.06,0-12.802,5.742-12.802,12.802
				c0,7.059,5.742,12.835,12.802,12.835c3.243,0,6.351-1.25,8.748-3.445c0.811-0.777,0.845-2.061,0.102-2.871
				C22.521,103.96,21.238,103.892,20.428,104.669z M34.674,94.064c-4.661,0-8.478,3.816-8.478,8.478
				c0,4.695,3.816,8.479,8.478,8.479s8.478-3.783,8.512-8.444C43.151,97.88,39.335,94.064,34.674,94.064z M34.674,106.865
				c-2.398,0-4.323-1.925-4.323-4.323s1.925-4.323,4.323-4.323s4.323,1.925,4.323,4.323S37.072,106.865,34.674,106.865z M50.678,107
				c-0.304,0-0.54-0.27-0.54-0.574c0-0.101-0.034-0.202-0.034-0.304c0-0.101,0.034-0.202,0.034-0.304V87.476
				c0-1.113-0.912-2.025-2.061-2.025c-1.114,0-2.026,0.912-2.026,2.025v17.396c0,1.587-0.067,3.073,0.946,4.391
				c0.878,1.114,2.263,1.824,3.681,1.824c1.148,0,2.061-0.912,2.061-2.061C52.738,107.913,51.826,107,50.678,107z M60.065,107
				c-0.305,0-0.54-0.27-0.54-0.574c0-0.101-0.034-0.202-0.034-0.304c0-0.101,0.034-0.202,0.034-0.304V87.476
				c0-1.113-0.912-2.025-2.061-2.025c-1.115,0-2.027,0.912-2.027,2.025v17.396c0,1.587-0.067,3.073,0.946,4.391
				c0.878,1.114,2.263,1.824,3.682,1.824c1.148,0,2.061-0.912,2.061-2.061C62.126,107.913,61.214,107,60.065,107z M73.404,94.368
				c-0.507-0.102-0.979-0.136-1.486-0.136c-4.694,0-8.443,3.852-8.443,8.479c0,4.695,3.749,8.479,8.443,8.479
				c1.926,0,4.526-0.609,6.384-2.398c0.811-0.777,0.845-2.094,0.034-2.871c-0.777-0.812-2.061-0.812-2.871-0.034
				c-0.878,0.845-2.466,1.284-3.547,1.284c-2.094,0-3.816-1.486-4.289-3.412h10.402c0.812,0,1.386-0.573,1.656-1.216
				c0.135-0.338,0.27-0.675,0.27-0.979c0.067-1.114-0.54-2.364-1.081-3.31C77.66,96.225,75.701,94.806,73.404,94.368z
				 M68.203,100.346c0.81-1.249,2.161-2.026,3.715-2.026c1.521,0,2.771,0.743,3.445,2.026H68.203z M90.186,98.117
				c1.183,0,2.298,0.439,3.142,1.25c0.811,0.776,2.095,0.742,2.872-0.068c0.775-0.776,0.743-2.094-0.067-2.836
				c-1.622-1.589-3.75-2.433-6.014-2.398c-2.263,0.067-4.356,0.979-5.91,2.601c-1.622,1.621-2.433,3.783-2.398,6.012
				c0.067,2.264,0.979,4.358,2.601,5.945c1.588,1.52,3.648,2.364,5.877,2.364h0.135c2.095-0.033,4.088-0.845,5.607-2.263
				c0.811-0.777,0.878-2.062,0.103-2.872c-0.744-0.811-2.062-0.878-2.838-0.101c-0.811,0.743-1.858,1.183-2.973,1.183
				c-1.148,0.033-2.263-0.406-3.107-1.25c-0.845-0.777-1.351-1.926-1.351-3.074c-0.034-1.182,0.438-2.297,1.216-3.141
				C87.923,98.624,89.004,98.117,90.186,98.117z M106.495,97.88c1.114,0,2.027-0.912,2.027-2.026c0-1.115-0.913-2.026-2.027-2.026
				h-1.115v-6.451c0-1.115-0.911-2.027-2.025-2.027c-1.115,0-2.027,0.912-2.027,2.027v6.451h-1.452
				c-1.115,0-2.026,0.911-2.026,2.026c0,1.114,0.911,2.026,2.026,2.026h1.452v8.512c0,1.047,0.473,2.263,1.148,3.04
				c0.777,0.878,1.858,1.351,2.973,1.521c0.305,0.033,0.574,0.033,0.878,0.033c1.115,0,2.026-0.878,2.026-2.027
				c0-1.114-0.911-2.025-2.026-2.025c-0.236,0-0.54,0.033-0.71-0.135c-0.236-0.204-0.168-0.609-0.236-0.879V97.88H106.495z
				 M113.179,86.936c-1.182,0-2.127,0.913-2.127,2.095V89.2c0,1.114,0.945,2.06,2.127,2.06c1.115,0,2.062-0.945,2.062-2.06v-0.169
				C115.24,87.849,114.294,86.936,113.179,86.936z M113.179,93.895c-1.182,0-2.127,0.911-2.127,2.06v13.038
				c0,1.148,0.945,2.095,2.127,2.095c1.115,0,2.062-0.946,2.062-2.095V95.955C115.24,94.806,114.294,93.895,113.179,93.895z
				 M133.173,94.806c-0.979-0.506-2.161-0.101-2.668,0.879l-4.561,8.884l-4.559-9.12c-0.508-1.014-1.69-1.385-2.669-0.912
				c-1.014,0.506-1.386,1.688-0.912,2.702l6.351,12.666c0.337,0.675,1.014,1.115,1.756,1.115h0.033c0.744,0,1.419-0.44,1.758-1.115
				l6.35-12.43C134.559,96.496,134.152,95.314,133.173,94.806z M145.361,94.368c-0.507-0.102-0.98-0.136-1.487-0.136
				c-4.694,0-8.443,3.852-8.443,8.479c0,4.695,3.749,8.479,8.443,8.479c1.926,0,4.526-0.609,6.385-2.398
				c0.811-0.777,0.844-2.094,0.033-2.871c-0.776-0.812-2.061-0.812-2.871-0.034c-0.878,0.845-2.465,1.284-3.547,1.284
				c-2.093,0-3.816-1.486-4.289-3.412h10.403c0.811,0,1.385-0.573,1.655-1.216c0.135-0.338,0.271-0.675,0.271-0.979
				c0.067-1.114-0.541-2.364-1.081-3.31C149.616,96.225,147.657,94.806,145.361,94.368z M140.159,100.346
				c0.811-1.249,2.162-2.026,3.715-2.026c1.521,0,2.771,0.743,3.445,2.026H140.159z M158.9,107c-0.305,0-0.541-0.27-0.541-0.574
				c0-0.101-0.034-0.202-0.034-0.304c0-0.101,0.034-0.202,0.034-0.304V87.476c0-1.113-0.912-2.025-2.061-2.025
				c-1.114,0-2.026,0.912-2.026,2.025v17.396c0,1.587-0.067,3.073,0.946,4.391c0.877,1.114,2.262,1.824,3.682,1.824
				c1.147,0,2.06-0.912,2.06-2.061C160.96,107.913,160.048,107,158.9,107z M176.359,94.266c-1.047,0-1.959,0.911-1.959,2.026v6.114
				c0,2.33-1.724,4.255-3.851,4.255c-2.094,0-3.816-1.925-3.816-4.255v-6.046c0-1.081-0.879-2.027-1.96-2.027
				c-1.08,0-1.958,0.946-1.958,2.027v6.046c0,4.593,3.479,8.31,7.734,8.31c1.42,0,2.736-0.406,3.851-1.048v1.385
				c0,2.466-1.958,4.492-4.356,4.492c-1.25,0-2.466-0.574-3.311-1.554c-0.71-0.878-1.96-0.979-2.77-0.236
				c-0.812,0.743-0.913,2.027-0.203,2.871c1.588,1.892,3.85,2.973,6.283,2.973c4.559,0,8.309-3.851,8.309-8.546V96.292
				C178.353,95.177,177.474,94.266,176.359,94.266z"/>
		</g>
	</g>
	<g>
		
			<line style="fill:none;stroke:#FFFFFF;stroke-width:0.8937;stroke-miterlimit:10;" x1="90.183" y1="63.133" x2="90.183" y2="80.117"/>
		
			<circle style="fill-rule:evenodd;clip-rule:evenodd;fill:none;stroke:#FFFFFF;stroke-width:0.8937;stroke-miterlimit:10;" cx="90.183" cy="41.435" r="13.208"/>
		<g>
			<path style="fill:none;stroke:#FFFFFF;stroke-width:0.8937;stroke-miterlimit:10;" d="M109.841,33.892h0.155l-0.599-1.014
				C106.634,25.729,92.688,4.023,90.183,0.4c-2.323,3.605-16.831,25.273-19.214,32.479l-0.601,1.014h0.156
				c-1.01,2.474-1.569,5.178-1.569,8.014c0,11.725,9.503,21.228,21.228,21.228c11.724,0,21.229-9.503,21.229-21.228
				C111.411,39.07,110.851,36.366,109.841,33.892z"/>
		</g>
	</g>
</g>
<g>
</g>
<g>
</g>
<g>
</g>
<g>
</g>
<g>
</g>
<g>
</g>
<g>
</g>
<g>
</g>
<g>
</g>
<g>
</g>
<g>
</g>
<g>
</g>
<g>
</g>
<g>
</g>
<g>
</g>
<g>
</g>
</svg>
