<?xml version="1.0" encoding="iso-8859-1"?>
<!-- Generator: Adobe Illustrator 16.0.4, SVG Export Plug-In . SVG Version: 6.00 Build 0)  -->
<!DOCTYPE svg PUBLIC "-//W3C//DTD SVG 1.1//EN" "http://www.w3.org/Graphics/SVG/1.1/DTD/svg11.dtd">
<svg version="1.1" id="Layer_1" xmlns="http://www.w3.org/2000/svg" xmlns:xlink="http://www.w3.org/1999/xlink" x="0px" y="0px"
	 width="142px" height="30px" viewBox="0 0 142 30" style="enable-background:new 0 0 142 30;" xml:space="preserve">
<g>
	<g>
		<g>
			<path style="fill:#FFFFFF;" d="M40.119,18.48c-0.979,0.918-2.265,1.408-3.612,1.408c-2.918,0-5.285-2.367-5.285-5.285
				s2.367-5.286,5.285-5.286c1.307,0,2.571,0.47,3.551,1.347c0.49,0.449,1.266,0.408,1.714-0.081
				c0.469-0.51,0.428-1.286-0.082-1.735c-1.428-1.285-3.265-1.979-5.183-1.979c-4.265,0-7.734,3.469-7.734,7.734
				c0,4.266,3.469,7.754,7.734,7.754c1.959,0,3.837-0.754,5.285-2.08c0.49-0.471,0.51-1.246,0.062-1.736
				C41.383,18.053,40.608,18.012,40.119,18.48z M48.725,12.074c-2.816,0-5.122,2.305-5.122,5.121c0,2.836,2.306,5.121,5.122,5.121
				s5.122-2.285,5.143-5.102C53.847,14.379,51.541,12.074,48.725,12.074z M48.725,19.807c-1.449,0-2.612-1.162-2.612-2.611
				s1.163-2.611,2.612-2.611s2.612,1.162,2.612,2.611S50.174,19.807,48.725,19.807z M58.394,19.889
				c-0.183,0-0.326-0.164-0.326-0.348c0-0.061-0.021-0.121-0.021-0.184c0-0.061,0.021-0.121,0.021-0.184V8.093
				c0-0.673-0.551-1.224-1.245-1.224c-0.673,0-1.224,0.551-1.224,1.224v10.51c0,0.959-0.041,1.855,0.571,2.652
				c0.531,0.674,1.367,1.102,2.224,1.102c0.694,0,1.245-0.551,1.245-1.244C59.639,20.439,59.087,19.889,58.394,19.889z
				 M64.065,19.889c-0.184,0-0.326-0.164-0.326-0.348c0-0.061-0.021-0.121-0.021-0.184c0-0.061,0.021-0.121,0.021-0.184V8.093
				c0-0.673-0.551-1.224-1.245-1.224c-0.674,0-1.225,0.551-1.225,1.224v10.51c0,0.959-0.041,1.855,0.572,2.652
				c0.53,0.674,1.367,1.102,2.224,1.102c0.694,0,1.245-0.551,1.245-1.244C65.31,20.439,64.759,19.889,64.065,19.889z M72.124,12.256
				c-0.306-0.061-0.592-0.082-0.898-0.082c-2.836,0-5.101,2.328-5.101,5.123c0,2.836,2.265,5.123,5.101,5.123
				c1.163,0,2.734-0.369,3.856-1.449c0.49-0.471,0.511-1.266,0.021-1.734c-0.47-0.49-1.245-0.49-1.735-0.021
				c-0.53,0.51-1.49,0.775-2.143,0.775c-1.265,0-2.306-0.896-2.591-2.061h6.285c0.49,0,0.837-0.346,1-0.734
				c0.082-0.205,0.163-0.408,0.163-0.592c0.041-0.674-0.326-1.428-0.653-2C74.695,13.379,73.512,12.521,72.124,12.256z
				 M68.981,15.869c0.489-0.756,1.306-1.225,2.245-1.225c0.918,0,1.674,0.449,2.082,1.225H68.981z M82.262,14.521
				c0.714,0,1.388,0.266,1.898,0.756c0.49,0.469,1.266,0.447,1.735-0.041c0.468-0.469,0.449-1.266-0.041-1.715
				c-0.98-0.959-2.266-1.469-3.633-1.447c-1.367,0.039-2.632,0.59-3.571,1.57c-0.98,0.979-1.47,2.285-1.449,3.633
				c0.041,1.367,0.591,2.633,1.571,3.592c0.959,0.918,2.204,1.428,3.551,1.428h0.081c1.266-0.02,2.47-0.51,3.388-1.367
				c0.49-0.471,0.531-1.246,0.062-1.734c-0.449-0.49-1.245-0.531-1.714-0.062c-0.49,0.449-1.123,0.715-1.796,0.715
				c-0.694,0.021-1.367-0.244-1.877-0.754c-0.51-0.471-0.816-1.164-0.816-1.857c-0.021-0.715,0.265-1.389,0.734-1.898
				C80.895,14.828,81.548,14.521,82.262,14.521z M92.115,14.379c0.674,0,1.225-0.551,1.225-1.225s-0.551-1.225-1.225-1.225h-0.673
				V8.033c0-0.674-0.551-1.225-1.224-1.225c-0.674,0-1.225,0.551-1.225,1.225v3.897h-0.877c-0.674,0-1.225,0.551-1.225,1.225
				s0.551,1.225,1.225,1.225h0.877v5.143c0,0.633,0.286,1.367,0.694,1.836c0.47,0.531,1.123,0.816,1.796,0.92
				c0.184,0.02,0.348,0.02,0.531,0.02c0.674,0,1.225-0.531,1.225-1.225c0-0.674-0.551-1.225-1.225-1.225
				c-0.143,0-0.327,0.021-0.429-0.08c-0.143-0.125-0.102-0.369-0.143-0.531v-4.857H92.115z M96.152,7.767
				c-0.713,0-1.285,0.552-1.285,1.266v0.102c0,0.673,0.572,1.244,1.285,1.244c0.674,0,1.246-0.571,1.246-1.244V9.032
				C97.398,8.318,96.826,7.767,96.152,7.767z M96.152,11.971c-0.713,0-1.285,0.551-1.285,1.244v7.877
				c0,0.695,0.572,1.266,1.285,1.266c0.674,0,1.246-0.57,1.246-1.266v-7.877C97.398,12.521,96.826,11.971,96.152,11.971z
				 M108.232,12.521c-0.592-0.305-1.305-0.061-1.611,0.531l-2.756,5.367l-2.754-5.51c-0.307-0.613-1.021-0.836-1.613-0.551
				c-0.611,0.305-0.836,1.02-0.551,1.633l3.838,7.65c0.203,0.408,0.611,0.674,1.061,0.674h0.02c0.449,0,0.857-0.266,1.062-0.674
				l3.836-7.508C109.07,13.543,108.824,12.828,108.232,12.521z M115.596,12.256c-0.307-0.061-0.592-0.082-0.898-0.082
				c-2.836,0-5.102,2.328-5.102,5.123c0,2.836,2.266,5.123,5.102,5.123c1.164,0,2.734-0.369,3.857-1.449
				c0.49-0.471,0.51-1.266,0.02-1.734c-0.469-0.49-1.244-0.49-1.734-0.021c-0.529,0.51-1.488,0.775-2.143,0.775
				c-1.264,0-2.305-0.896-2.592-2.061h6.285c0.49,0,0.838-0.346,1-0.734c0.082-0.205,0.164-0.408,0.164-0.592
				c0.041-0.674-0.326-1.428-0.652-2C118.166,13.379,116.982,12.521,115.596,12.256z M112.453,15.869
				c0.49-0.756,1.307-1.225,2.244-1.225c0.918,0,1.674,0.449,2.082,1.225H112.453z M123.775,19.889
				c-0.184,0-0.326-0.164-0.326-0.348c0-0.061-0.021-0.121-0.021-0.184c0-0.061,0.021-0.121,0.021-0.184V8.093
				c0-0.673-0.551-1.224-1.246-1.224c-0.672,0-1.223,0.551-1.223,1.224v10.51c0,0.959-0.041,1.855,0.57,2.652
				c0.531,0.674,1.367,1.102,2.225,1.102c0.693,0,1.244-0.551,1.244-1.244C125.02,20.439,124.469,19.889,123.775,19.889z
				 M134.324,12.195c-0.633,0-1.184,0.551-1.184,1.225v3.693c0,1.408-1.043,2.57-2.326,2.57c-1.266,0-2.307-1.162-2.307-2.57v-3.652
				c0-0.652-0.531-1.225-1.184-1.225s-1.184,0.572-1.184,1.225v3.652c0,2.775,2.102,5.02,4.674,5.02
				c0.857,0,1.652-0.244,2.326-0.633v0.838c0,1.488-1.184,2.713-2.633,2.713c-0.756,0-1.49-0.346-2-0.938
				c-0.43-0.531-1.184-0.592-1.674-0.143c-0.49,0.447-0.551,1.225-0.121,1.734c0.959,1.143,2.324,1.795,3.795,1.795
				c2.754,0,5.02-2.326,5.02-5.162V13.42C135.527,12.746,134.996,12.195,134.324,12.195z"/>
		</g>
	</g>
	<g>
		
			<line style="fill:none;stroke:#FFFFFF;stroke-width:0.8937;stroke-miterlimit:10;" x1="12.884" y1="21.451" x2="12.884" y2="26.58"/>
		
			<circle style="fill-rule:evenodd;clip-rule:evenodd;fill:none;stroke:#FFFFFF;stroke-width:0.8937;stroke-miterlimit:10;" cx="12.884" cy="14.895" r="3.99"/>
		<g>
			<path style="fill:none;stroke:#FFFFFF;stroke-width:0.8937;stroke-miterlimit:10;" d="M18.823,12.617h0.047l-0.181-0.307
				c-0.835-2.159-5.048-8.716-5.805-9.811c-0.702,1.089-5.084,7.634-5.804,9.811l-0.182,0.307h0.047
				c-0.305,0.748-0.474,1.564-0.474,2.42c0,3.543,2.871,6.414,6.412,6.414s6.413-2.871,6.413-6.414
				C19.297,14.182,19.128,13.365,18.823,12.617z"/>
		</g>
	</g>
</g>
<g>
</g>
<g>
</g>
<g>
</g>
<g>
</g>
<g>
</g>
<g>
</g>
<g>
</g>
<g>
</g>
<g>
</g>
<g>
</g>
<g>
</g>
<g>
</g>
<g>
</g>
<g>
</g>
<g>
</g>
<g>
</g>
</svg>
